<svg width="800" height="560" viewBox="0 0 800 560" fill="none" xmlns="http://www.w3.org/2000/svg">
  <defs>
    <linearGradient id="bg" x1="120" y1="60" x2="680" y2="500" gradientUnits="userSpaceOnUse">
      <stop stop-color="#E8F5E9"/>
      <stop offset="1" stop-color="#E3F2FD"/>
    </linearGradient>
    <linearGradient id="bubble" x1="260" y1="130" x2="540" y2="360" gradientUnits="userSpaceOnUse">
      <stop stop-color="#25D366"/>
      <stop offset="1" stop-color="#128C7E"/>
    </linearGradient>
  </defs>

  <rect x="20" y="20" width="760" height="520" rx="36" fill="url(#bg)"/>

  <circle cx="650" cy="120" r="28" fill="#BBDEFB"/>
  <circle cx="140" cy="140" r="22" fill="#C8E6C9"/>
  <circle cx="700" cy="430" r="18" fill="#E1BEE7"/>

  <rect x="90" y="110" width="300" height="340" rx="24" fill="#fff"/>
  <rect x="120" y="150" width="220" height="18" rx="9" fill="#ECEFF1"/>
  <rect x="120" y="185" width="170" height="18" rx="9" fill="#ECEFF1"/>
  <rect x="120" y="238" width="130" height="56" rx="16" fill="#E8F5E9"/>
  <rect x="260" y="238" width="90" height="56" rx="16" fill="#F3E5F5"/>
  <rect x="120" y="315" width="230" height="18" rx="9" fill="#ECEFF1"/>
  <rect x="120" y="350" width="190" height="18" rx="9" fill="#ECEFF1"/>

  <rect x="420" y="90" width="290" height="380" rx="28" fill="#fff"/>
  <rect x="468" y="130" width="194" height="228" rx="26" fill="url(#bubble)"/>
  <path d="M532 278L557 303L606 254" stroke="white" stroke-width="14" stroke-linecap="round" stroke-linejoin="round"/>
  <rect x="468" y="380" width="194" height="16" rx="8" fill="#ECEFF1"/>
  <rect x="504" y="410" width="120" height="14" rx="7" fill="#ECEFF1"/>
</svg>
