<?xml version="1.0" encoding="utf-8"?>
<!-- Generator: Adobe Illustrator 25.4.1, SVG Export Plug-In . SVG Version: 6.00 Build 0)  -->
<svg version="1.1" xmlns="http://www.w3.org/2000/svg" xmlns:xlink="http://www.w3.org/1999/xlink" x="0px" y="0px"
	 viewBox="0 0 520 451.6" style="enable-background:new 0 0 520 451.6;" xml:space="preserve">
<style type="text/css">
	.st0{fill:#FFFFFF;}
	.st1{opacity:0.4;fill:#D6E1E9;}
	.st2{fill:#D6E1E9;}
	.st3{fill:#FCC835;}
	.st4{opacity:0.5;fill:#D6E1E9;}
	.st5{fill:#A1B4FB;}
	.st6{fill:#233FC9;}
	.st7{fill:#D44659;}
	.st8{fill:#80DCEE;}
	.st9{fill:none;stroke:#000000;stroke-width:0.5;stroke-linecap:round;stroke-linejoin:round;stroke-miterlimit:10;}
	.st10{fill:#1F1B55;}
	.st11{fill:#2F3789;}
	.st12{fill:#D46B9A;}
	.st13{fill:none;stroke:#000000;stroke-linejoin:round;stroke-miterlimit:10;}
	.st14{fill:none;stroke:#D6E1E9;stroke-linecap:round;stroke-miterlimit:10;}
	.st15{fill:none;stroke:#D6E1E9;stroke-linecap:round;stroke-miterlimit:10;stroke-dasharray:4.8613,4.8613;}
</style>
<g id="BACKGROUND">
	<rect class="st0" width="520" height="451.6"/>
</g>
<g id="OBJECTS">
	<g>
		<circle class="st1" cx="117.19" cy="175.89" r="5.07"/>
		<path class="st1" d="M303.35,314.03c0,1.24-1,2.24-2.24,2.24c-1.24,0-2.24-1-2.24-2.24c0-1.24,1-2.24,2.24-2.24
			C302.35,311.79,303.35,312.8,303.35,314.03z"/>
		<path class="st2" d="M203.91,61.45c0,1.72-1.4,3.12-3.12,3.12c-1.72,0-3.12-1.4-3.12-3.12c0-1.72,1.4-3.12,3.12-3.12
			C202.51,58.33,203.91,59.73,203.91,61.45z"/>
		<path class="st1" d="M440.52,318.34c0,2.38-1.93,4.31-4.31,4.31c-2.38,0-4.31-1.93-4.31-4.31c0-2.38,1.93-4.31,4.31-4.31
			C438.59,314.03,440.52,315.96,440.52,318.34z"/>
		<path class="st2" d="M462.89,198.91c0,1.99-1.61,3.6-3.6,3.6c-1.99,0-3.6-1.61-3.6-3.6c0-1.99,1.61-3.6,3.6-3.6
			C461.28,195.31,462.89,196.92,462.89,198.91z"/>
		<path class="st2" d="M410.55,63.42c0,1.09-0.88,1.97-1.97,1.97c-1.09,0-1.97-0.88-1.97-1.97c0-1.09,0.88-1.97,1.97-1.97
			C409.67,61.45,410.55,62.33,410.55,63.42z"/>
		<circle class="st2" cx="0" cy="281.62" r="1.76"/>
		<path class="st3" d="M349.18,99.99l-4.52-3.56l-5.49,1.7l1.99-5.4l-3.32-4.7l5.75,0.22l3.44-4.61l1.56,5.54l5.45,1.85l-4.78,3.2
			L349.18,99.99z"/>
		<path class="st4" d="M136.04,105.3l-5.38-2.03l-4.73,3.28l0.27-5.75l-4.58-3.48l5.55-1.52l1.89-5.43l3.16,4.81l5.75,0.12
			l-3.6,4.49L136.04,105.3z"/>
		<path class="st4" d="M103.78,143.76l-7.62-2.17l-6.11,5.05l-0.29-7.92l-6.69-4.25l7.44-2.72l1.97-7.67l4.89,6.23l7.91-0.49
			l-4.42,6.58L103.78,143.76z"/>
		<path class="st4" d="M445.31,278.23l-5.02-6.12l-7.89,0.67l4.27-6.67l-3.07-7.3l7.67,2l5.99-5.18l0.47,7.91l6.78,4.1l-7.38,2.89
			L445.31,278.23z"/>
		<path class="st2" d="M54.22,101.09l-9.14-2.95l-7.62,5.86l-0.02-9.61l-7.92-5.43l9.13-2.98l2.72-9.21l5.66,7.76l9.6-0.26L51,92.04
			L54.22,101.09z"/>
	</g>
	<g>
		<path class="st2" d="M101.49,228.94c-9.03-7.3-13.02,9.83-17.87,6.03S78.66,173.7,60,176.95c-17.74,3.1-3.06,32.59-8.3,35.78
			c-7.39,4.51-16.59-4.73-16.08,6.03c0.36,7.57,12.07,19.93,16.47,26.39c4.66,6.86,5.5,12.75,0.63,13.28
			c-9.44,1.02-27.83-5.74-6.72,23.49c26.52,36.73,43.49,65.36,43.49,65.36h11.74C101.23,347.28,110.17,235.96,101.49,228.94z
			 M63.17,234.23c-1.61,1.34-5.59-1.09-8.01-5.64c-2.43-4.54,1.85-6.04,1.85-6.04C62.41,221.01,65.5,232.29,63.17,234.23z"/>
		<path class="st2" d="M256.38,313c15.09-9.08,37.93,54.96,37.93,54.96s-6.27-95.36,10.96-94.27c17.57,1.11,3.62,83.15,3.62,83.15
			s13.67-43.71,22.89-39.69c12.29,5.36-14.24,52.85-14.24,52.85s22.22-26.98,30.25-19.85c9.49,8.43-24.94,39.54-24.94,39.54h-35.61
			C287.24,389.69,242.48,321.37,256.38,313z"/>
		<path class="st2" d="M141.61,325.17c-5.92-3.57-15.27,2.02-22.03,10.64c-12.49,15.9-21.51,42.36-21.51,42.36
			s9.74-34.46-0.95-35.77c-13.05-1.6-12.12,27.45-12.12,27.45c-12.36-59.77-67.61-57.87-41-33.15
			c26.62,24.72,32.44,51.87,32.44,51.87h30.3C115.48,359.77,160.4,336.52,141.61,325.17z"/>
	</g>
	<g>
		<rect x="81.88" y="324.22" class="st5" width="65.47" height="65.47"/>
		<rect x="81.89" y="255" class="st5" width="65.47" height="65.47"/>
		<rect x="219.91" y="324.22" class="st5" width="65.47" height="65.47"/>
		<polygon class="st3" points="245.51,389.7 219.91,389.7 219.91,364.41 		"/>
		<rect x="219.91" y="255" class="st6" width="65.47" height="65.47"/>
		<rect x="219.91" y="186.02" class="st5" width="65.47" height="65.47"/>
		<rect x="150.92" y="324.22" class="st5" width="65.47" height="65.47"/>
		<rect x="81.88" y="324.22" class="st3" width="65.47" height="65.47"/>
		<polygon class="st3" points="147.37,292.76 147.37,320.48 81.89,320.48 81.89,255.01 109.15,255.01 		"/>
		<polygon class="st3" points="216.4,360.95 216.4,389.7 150.92,389.7 150.92,324.22 179.22,324.22 		"/>
		<rect x="150.92" y="255" class="st5" width="65.47" height="65.47"/>
		<polygon class="st3" points="175.43,320.48 150.92,320.48 150.92,296.27 		"/>
		<rect x="150.92" y="186.02" class="st5" width="65.47" height="65.47"/>
		<polygon points="251.04,186.03 219.91,189.73 219.91,186.03 		"/>
		<polygon points="216.4,186.03 216.4,190.15 150.92,197.93 150.92,186.03 		"/>
		<polygon points="219.91,324.22 221.94,324.22 229.4,389.69 219.91,389.69 		"/>
		<polygon points="150.92,320.48 153.38,320.48 157.02,255 150.92,255 		"/>
	</g>
	<g>
		<g>
			<path class="st7" d="M294.97,133.77l-29.49-25.13l-6.41-7.14l-13,7.41l6.54,6.96c1.11,1.18,2.37,2.19,3.77,3l34.58,20.23
				c0,0,5.28,7.99,11.53,7.06c2.86-0.43,6.94-7.6,6.94-7.6L294.97,133.77z"/>
			<polygon class="st8" points="249.18,88.13 262.55,104.02 247.36,116.33 236.89,105.99 			"/>
			<path class="st6" d="M210.71,127.01l-32.67,10.92c0,0,2.78,8.86,7.23,12.45c6.11,4.93,9.97,4.31,13.8,7.28s2.88,5.8,8.87,9.06
				c5.43,2.95,10.82,4.34,16.63,8.84l15.81-22.68L210.71,127.01z"/>
			<polygon class="st7" points="255.45,164.26 251.04,186.02 154.38,186.02 172.51,171.88 181.32,176.62 220.17,167.29 
				230.18,167.48 239.86,153.59 			"/>
			<path class="st6" d="M188.04,200.64l23.88-62.62c-5.05-2.91-20.4-6.8-28.24-5.3c-3.14,0.6-9.46-1.17-14.03,7.31
				c-2.92,5.42-2.31,16.11-3.26,20.39c-1.22,5.52-4.85,6.05-5.17,11.01c-0.57,8.9-4.21,19.72-4.21,19.72L188.04,200.64z"/>
			<path d="M211.93,138.02l-0.82,2.15l-43.36,6.47c0.38-2.5,0.95-4.83,1.91-6.6c4.57-8.48,10.89-6.72,14.03-7.32
				C191.52,131.22,206.88,135.11,211.93,138.02z"/>
			<path class="st7" d="M241.12,79.67c0.28-0.18,8.26-8.01,9.16-9.09c0,0-5.32-10.78,3.72-15.86c5.97-3.36,18.65-4.09,17.99,8.09
				c-0.55,10.3-2.99,19.78-4.82,19.92c-2.98,0.23-6.9-1.28-9.54-2.52c-1.62-0.76-3.54,0-4.2,1.66l-3.05,7.65L241.12,79.67z"/>
			<path class="st8" d="M243.82,106.68l6.55-17.17l-9.25-9.85c0,0-5.22-1.88-14.2,4.35c-8.98,6.22-52.73,50.31-52.73,50.31
				s11.36,6.94,32.43,10.19c14.81,2.29,23.14-1.03,23.14-1.03l11.98-31.37l3.1-0.6L243.82,106.68z"/>
			<path class="st7" d="M268.09,155.77l-21.08-33.74l-2.83-10.37l-14.69,2.85l2.36,7.16c0.65,1.96,1.69,3.78,3.05,5.33l28.72,32.58
				c0,0,2.06,7.62,8.28,8.74c2.84,0.51,9-4.97,9-4.97L268.09,155.77z"/>
			<polyline class="st9" points="240.57,90.45 244.84,111.53 225.23,115.33 			"/>
			<path class="st10" d="M271.99,62.8l-11.75-2.57l-2.5,2.47c-0.16-0.92-0.98-2.18-3.02-2.11c-3.03,0.1-3.37,4.85-1.78,7.18
				l-2.66,2.8c0,0-4.48-2.32-7.06-7.26c-2.23-4.26-2.11-13.7,8.33-13.51c4.02-4.31,15.39-7.44,21.51-2.87
				C279.18,51.51,271.99,62.8,271.99,62.8z"/>
			<polygon class="st7" points="158.43,191.59 157.02,194.71 147.33,200.8 117.19,255 147.37,255 136.91,244.38 173.49,201.37 
				176.44,196.25 			"/>
			<path class="st9" d="M206.62,151.93c0,0-9.96,26.12-11.66,30.57"/>
		</g>
		<g>
			<polygon class="st11" points="404.29,162.92 382.98,161.15 387.57,175.89 			"/>
			<polygon class="st12" points="333.38,356.83 331.46,381.37 316.63,389.69 343.68,389.69 347.74,358.1 			"/>
			<path class="st8" d="M362.59,230.94c0,0-14.48,29.8-22,60.55c-4.34,17.74-9.32,75.85-9.32,75.85l20.3,1.64
				c0,0,1.08-14.85,2.75-20.4c1.68-5.55,3.22-6.96,3.74-11.74c0.52-4.77-2.26-11.48-1.23-16.25c1.03-4.77,1.81-6.99,6.78-11.25
				c6.83-5.85,11.02-14.7,14.63-24.37c3.61-9.67,0.2-18.57,6.78-26.57c6.58-8,7.48-21.54,7.48-21.54L362.59,230.94z"/>
			<polygon class="st12" points="429.19,351.68 442.53,371.17 423.24,389.69 427.77,372.99 417.64,359.47 			"/>
			<path class="st8" d="M369.79,236.08c0,0,3.37,47.18,14.21,74.66c6.37,16.13,29.47,53.53,29.47,53.53l18.01-10.91
				c0,0-6.65-8.91-8.6-16.82c-1.95-7.91-7.58-11-10.74-20.27c-3.16-9.27-0.63-17.1-0.84-26.74c-0.22-9.65-3.59-10.24-4.54-21.07
				c-0.94-10.83,6.94-15.98,7.75-28.02L369.79,236.08z"/>
			<path d="M406.74,268.19l-29.25-16.69v-14.67l37.01,3.61C413.7,252.39,405.94,257.54,406.74,268.19z"/>
			<path class="st9" d="M373.9,270.12c2.22,13.67,5.48,28.93,10.1,40.62c2.65,6.72,8.2,17.12,13.78,26.97"/>
			<path class="st11" d="M424.72,174.65c-3.34-3.97-10.81-9.57-10.81-9.57l-9.62-2.16c0,0-6.49,0.3-13.58,6.51
				c-6.33,5.55-35.49,73.68-35.49,73.68s32.23,14.67,57.64,15.32c0,0,8.43-38.22,13.65-61.4c2.97-2.52,5.3-4.6,5.63-5.19
				C435.45,185.79,424.72,174.65,424.72,174.65z"/>
			<path class="st12" d="M410.03,125.51c-3.04,1.22-4.79,4.11-4.79,4.11s-6.7,11.64-6.39,17.43c0.3,5.78,4.72,5.71,5.86,7.61
				c1.14,1.9-0.99,11.03-0.99,11.03l-7.14,3.79c0,0,18.06,6.41,17.34-4.4c0,0-0.38-6.77,0.84-10.2
				c1.22-3.42,10.65-14.08,11.34-18.79C426.77,131.37,413.07,124.3,410.03,125.51z"/>
			<path class="st10" d="M429.92,137.54c-1.32,5.33-13.3,14.1-13.3,14.1s-0.6-2.88-1.03-5.61c2.54-0.83,5.17-3.98,3.96-5.99
				c-1.02-1.69-2.54-1.35-3.72-0.69c0.82-2.05,2.11-3.99,2.11-3.99s-1.26-0.1-3.85-2.79c-2.4-2.5-2.49-3.73-2.49-3.89
				c-0.13,0.36-1.76,4.73-5.17,3.08c-3.55-1.73-4.31-12.71-4.31-12.71s-0.44-4.35,2.93-5.92c4.33-2.01,7.21,6.4,7.21,6.4
				s3.15-5.12,7.71-2.03c4.57,3.1,6.14,13.09,6.14,13.09S431.23,132.21,429.92,137.54z"/>
			
				<rect x="326.02" y="143.16" transform="matrix(0.9485 -0.3168 0.3168 0.9485 -37.2431 122.7023)" class="st3" width="65.47" height="65.47"/>
			<path class="st12" d="M402.57,189.62l7.26,16.63l-9.09,4.23c-2.74,1.27-5.73,1.92-8.75,1.9l-53.63-0.46
				c-2.83-0.02-5.48-1.37-7.17-3.64l-9.68-13.03c0,0,11.59-5.62,17.68,7.28l50.79-7.55L402.57,189.62z"/>
			<path class="st12" d="M344.53,146.13c0,0,5.76,6.5,11.62,4.87c5.86-1.63,7.87-7.47,7.87-7.47l-12.81-3.92
				c-2.14-0.66-4.47-0.1-6.09,1.45l-7.77,7.46L344.53,146.13z"/>
			<polyline class="st9" points="410.07,206.94 402.18,188.89 409.07,185.59 			"/>
		</g>
		<g>
			<path class="st8" d="M331.54,37.49l-35.87-6.94l-3.79,19.61l6.74,1.3l-9.62,10.1l14.03-5.72c3.83-1.56,8.04-1.98,12.11-1.19
				l12.61,2.44L331.54,37.49z"/>
			<path class="st0" d="M304.44,42.42c-0.2,1.02-1.19,1.69-2.21,1.49c-1.02-0.2-1.69-1.19-1.49-2.21c0.2-1.02,1.19-1.69,2.21-1.49
				C303.97,40.41,304.64,41.4,304.44,42.42z"/>
			<path class="st0" d="M313.59,44.19c-0.2,1.02-1.19,1.69-2.21,1.49c-1.02-0.2-1.69-1.19-1.49-2.21c0.2-1.02,1.19-1.69,2.21-1.49
				S313.79,43.17,313.59,44.19z"/>
			<path class="st0" d="M322.74,45.96c-0.2,1.02-1.19,1.69-2.21,1.49c-1.02-0.2-1.69-1.19-1.49-2.21c0.2-1.02,1.19-1.69,2.21-1.49
				C322.27,43.95,322.94,44.94,322.74,45.96z"/>
		</g>
	</g>
	<line class="st13" x1="43.08" y1="389.69" x2="452.63" y2="389.69"/>
	<g>
		<g>
			<g>
				<path class="st14" d="M91.51,152.42c0.81,0.17,1.63,0.33,2.46,0.46"/>
				<path class="st15" d="M98.79,153.46c11.87,0.86,24.13-2.5,31.16-14.1c11.06-20.49,8.14-45.32,0.26-66.38"/>
				<path class="st14" d="M129.34,70.71c-0.31-0.78-0.62-1.55-0.94-2.31"/>
			</g>
		</g>
		<polygon class="st5" points="142.88,64.91 130.64,65.57 127.3,60.88 125.34,65.86 115.07,66.42 99.24,21.4 		"/>
		<polygon class="st2" points="99.24,21.4 127.3,60.88 125.34,65.86 		"/>
		<polygon class="st2" points="99.24,21.4 132.37,47.99 130.55,52.62 		"/>
	</g>
</g>
</svg>
