<svg width="1313" height="845" viewBox="0 0 1313 845" fill="none" xmlns="http://www.w3.org/2000/svg">
<g clip-path="url(#clip0_2_36)">
<path d="M1027.67 599.54C1038.46 587.27 1050.7 576.353 1064.12 567.03" stroke="#A1B4FB" stroke-miterlimit="10" stroke-linecap="round"/>
<path d="M948 826.19C948 826.19 951.37 693.64 1022.34 607" stroke="#A1B4FB" stroke-miterlimit="10" stroke-linecap="round"/>
<path d="M952.53 778.71C952.53 778.71 924.47 736.04 924.33 706.42C924.19 676.8 946.13 697.57 952.53 683.1C958.93 668.63 952.67 641.76 964.53 632.17C972.8 625.51 975.01 644.63 990.18 628.29C1005.35 611.95 1018.43 582.12 1043.96 560.38C1069.49 538.64 1102.11 547.62 1091.64 567.08C1084.64 580.17 1057.37 597.33 1049.51 609.02C1041.65 620.71 1060.81 613.23 1057.51 625.87C1054.21 638.51 1016.94 658.94 1008.92 669.4C1004.56 675.08 1005.69 678.51 1007.46 680.4C1010.88 683.99 1020.03 683.18 1017.93 691.25C1015.83 699.32 993.61 712.25 978.42 723.35C971.628 728.274 965.439 733.98 959.98 740.35" stroke="#A1B4FB" stroke-miterlimit="10"/>
<path d="M1032.38 616.85C1028.97 618.06 1019.44 623.95 1022.7 628.46C1025.7 632.56 1037.82 625.02 1038.5 619.37C1038.71 617.71 1036.99 615.23 1032.38 616.85Z" stroke="#A1B4FB" stroke-miterlimit="10"/>
<path d="M973.73 660.28C973.73 660.28 972.63 675.37 976.05 688.03" stroke="#A1B4FB" stroke-miterlimit="10" stroke-linecap="round"/>
<path d="M932.37 825.35C932.37 825.35 929.37 768.28 892.18 726.16" stroke="#A1B4FB" stroke-miterlimit="10" stroke-linecap="round"/>
<path d="M925.93 790.56C928.851 781.06 930.123 771.13 929.69 761.2C928.37 727.32 918.97 756.03 909.2 735.92C903.59 724.36 890 705.43 878.76 713.92C864.76 724.45 914.76 757.44 907.48 764.28C897.71 773.47 921.48 788.79 930.29 809.44" stroke="#A1B4FB" stroke-miterlimit="10"/>
<path d="M114.33 825.32C114.33 825.32 104.76 796.75 76.67 770.2C48.58 743.65 111.27 748.88 120.2 807.09C120.2 807.09 122.5 757.18 135.52 759.48C148.54 761.78 137.05 809.07 137.05 809.07C137.05 809.07 159.84 774.71 170.99 783.48C180.18 790.78 144.37 808.48 141.69 825.35" fill="#D6E1E9"/>
<path d="M473.88 786.03C473.88 786.03 492.71 740.03 514.67 753.35C536.63 766.67 510.08 806.94 510.08 806.94C510.08 806.94 540.2 774.8 553.48 786.03C566.76 797.26 540.48 817.43 540.48 817.43C540.48 817.43 564.48 804.67 572.65 810.54C580.82 816.41 569.84 825.35 569.84 825.35H473.9L473.88 786.03Z" fill="#D6E1E9"/>
<path d="M307.86 153.6H557.46C557.46 153.6 532.16 126.54 498.46 116.84C464.76 107.14 452.88 136.11 452.88 136.11C452.88 136.11 426.88 96.11 387.01 96.16C342.07 96.27 338.01 136.5 338.01 136.5C338.01 136.5 302.25 120.16 307.86 153.6Z" fill="#D6E1E9"/>
<path opacity="0.5" d="M1147.61 351.97C1147.61 351.97 1121.06 317.63 1089.4 310.48C1057.74 303.33 1045.86 333.48 1045.86 333.48C1045.86 333.48 1013.56 315.94 988.67 317.71C963.78 319.48 970.29 351.93 970.29 351.93L1147.61 351.97Z" fill="#D6E1E9"/>
<path opacity="0.6" d="M774.33 393.12C774.332 394.794 773.837 396.431 772.908 397.824C771.98 399.217 770.658 400.303 769.112 400.944C767.566 401.586 765.864 401.754 764.222 401.428C762.58 401.102 761.072 400.296 759.888 399.112C758.704 397.928 757.898 396.42 757.572 394.778C757.246 393.136 757.414 391.434 758.056 389.888C758.697 388.342 759.783 387.02 761.176 386.092C762.569 385.163 764.206 384.668 765.88 384.67C768.12 384.673 770.268 385.564 771.852 387.148C773.436 388.732 774.327 390.88 774.33 393.12Z" fill="#D6E1E9"/>
<path opacity="0.4" d="M1086.36 716.62C1086.36 717.459 1086.11 718.278 1085.65 718.976C1085.18 719.673 1084.52 720.216 1083.74 720.537C1082.97 720.858 1082.12 720.942 1081.29 720.779C1080.47 720.615 1079.71 720.211 1079.12 719.618C1078.53 719.025 1078.13 718.27 1077.96 717.447C1077.8 716.625 1077.88 715.772 1078.2 714.997C1078.52 714.223 1079.07 713.561 1079.76 713.095C1080.46 712.629 1081.28 712.38 1082.12 712.38C1083.24 712.38 1084.32 712.827 1085.12 713.622C1085.91 714.417 1086.36 715.495 1086.36 716.62Z" fill="#D6E1E9"/>
<path opacity="0.4" d="M156.71 458.6C156.71 459.763 156.365 460.9 155.719 461.867C155.073 462.834 154.155 463.587 153.08 464.032C152.006 464.477 150.823 464.594 149.683 464.367C148.542 464.14 147.495 463.58 146.672 462.758C145.85 461.935 145.29 460.888 145.063 459.747C144.836 458.606 144.953 457.424 145.398 456.35C145.843 455.275 146.596 454.357 147.563 453.711C148.53 453.065 149.667 452.72 150.83 452.72C152.39 452.72 153.885 453.339 154.988 454.442C156.091 455.545 156.71 457.041 156.71 458.6Z" fill="#D6E1E9"/>
<path opacity="0.4" d="M143.19 166.26C143.19 167.423 142.845 168.56 142.199 169.527C141.553 170.494 140.635 171.247 139.56 171.692C138.486 172.137 137.303 172.254 136.163 172.027C135.022 171.8 133.975 171.24 133.152 170.418C132.33 169.595 131.77 168.548 131.543 167.407C131.316 166.267 131.433 165.084 131.878 164.01C132.323 162.935 133.076 162.017 134.043 161.371C135.01 160.725 136.147 160.38 137.31 160.38C138.869 160.38 140.365 160.999 141.468 162.102C142.571 163.205 143.19 164.701 143.19 166.26Z" fill="#D6E1E9"/>
<path d="M353.55 210.71C353.55 212.094 353.139 213.448 352.37 214.599C351.601 215.75 350.508 216.647 349.229 217.177C347.95 217.707 346.542 217.846 345.184 217.576C343.826 217.305 342.579 216.639 341.6 215.66C340.621 214.681 339.955 213.434 339.684 212.076C339.414 210.718 339.553 209.31 340.083 208.031C340.613 206.752 341.51 205.659 342.661 204.89C343.812 204.121 345.166 203.71 346.55 203.71C348.407 203.71 350.187 204.448 351.5 205.76C352.812 207.073 353.55 208.854 353.55 210.71Z" fill="#D6E1E9"/>
<path d="M1020.49 189.99C1020.49 191.158 1020.14 192.3 1019.49 193.271C1018.84 194.241 1017.91 194.997 1016.83 195.443C1015.75 195.889 1014.57 196.004 1013.42 195.775C1012.28 195.546 1011.22 194.982 1010.4 194.155C1009.57 193.329 1009.01 192.275 1008.78 191.129C1008.56 189.983 1008.67 188.795 1009.12 187.716C1009.57 186.637 1010.33 185.714 1011.3 185.065C1012.27 184.416 1013.41 184.07 1014.58 184.07C1015.36 184.07 1016.13 184.223 1016.84 184.521C1017.56 184.818 1018.21 185.255 1018.76 185.805C1019.31 186.354 1019.75 187.007 1020.04 187.725C1020.34 188.443 1020.49 189.213 1020.49 189.99Z" fill="#D6E1E9"/>
<path opacity="0.4" d="M1006.56 539.13C1006.56 540.746 1006.08 542.327 1005.19 543.672C1004.29 545.017 1003.02 546.065 1001.52 546.685C1000.03 547.305 998.388 547.468 996.802 547.154C995.217 546.84 993.76 546.063 992.616 544.921C991.473 543.778 990.694 542.323 990.378 540.738C990.062 539.152 990.223 537.509 990.841 536.016C991.459 534.522 992.506 533.246 993.85 532.348C995.194 531.449 996.774 530.97 998.39 530.97C999.462 530.969 1000.52 531.179 1001.52 531.588C1002.51 531.998 1003.41 532.599 1004.17 533.356C1004.93 534.114 1005.53 535.014 1005.94 536.005C1006.35 536.996 1006.56 538.058 1006.56 539.13Z" fill="#D6E1E9"/>
<path d="M1137.99 423.71C1137.99 425.06 1137.59 426.38 1136.83 427.502C1136.08 428.624 1135.02 429.498 1133.77 430.013C1132.52 430.528 1131.15 430.662 1129.82 430.398C1128.5 430.133 1127.28 429.482 1126.33 428.526C1125.37 427.57 1124.72 426.353 1124.46 425.029C1124.2 423.704 1124.33 422.331 1124.85 421.084C1125.37 419.837 1126.24 418.77 1127.37 418.02C1128.49 417.27 1129.81 416.87 1131.16 416.87C1132.06 416.87 1132.95 417.047 1133.78 417.391C1134.61 417.735 1135.36 418.239 1135.99 418.874C1136.63 419.509 1137.13 420.263 1137.47 421.093C1137.82 421.923 1137.99 422.812 1137.99 423.71Z" fill="#D6E1E9"/>
<path d="M675.07 192.28C675.072 193.02 674.854 193.744 674.445 194.361C674.035 194.977 673.451 195.458 672.768 195.742C672.085 196.027 671.333 196.103 670.606 195.959C669.88 195.816 669.213 195.461 668.689 194.938C668.165 194.415 667.808 193.749 667.663 193.023C667.517 192.298 667.591 191.545 667.874 190.861C668.157 190.177 668.636 189.592 669.251 189.181C669.866 188.77 670.59 188.55 671.33 188.55C672.32 188.55 673.27 188.943 673.971 189.642C674.672 190.341 675.067 191.29 675.07 192.28Z" fill="#D6E1E9"/>
<path d="M617.22 762.54C617.22 763.201 617.024 763.846 616.657 764.396C616.29 764.945 615.768 765.373 615.158 765.626C614.548 765.879 613.876 765.945 613.228 765.816C612.58 765.687 611.985 765.369 611.518 764.902C611.051 764.435 610.733 763.84 610.604 763.192C610.475 762.544 610.541 761.872 610.794 761.262C611.047 760.652 611.475 760.13 612.024 759.763C612.574 759.396 613.219 759.2 613.88 759.2C614.319 759.199 614.754 759.284 615.16 759.452C615.565 759.619 615.934 759.865 616.245 760.175C616.555 760.486 616.801 760.855 616.968 761.26C617.136 761.666 617.221 762.101 617.22 762.54Z" fill="#D6E1E9"/>
<path d="M237.99 711.9C237.988 712.902 237.689 713.882 237.131 714.714C236.572 715.546 235.78 716.195 234.853 716.577C233.927 716.959 232.908 717.058 231.925 716.861C230.942 716.665 230.039 716.181 229.331 715.471C228.623 714.762 228.142 713.859 227.947 712.875C227.752 711.892 227.853 710.873 228.237 709.948C228.621 709.022 229.271 708.23 230.104 707.674C230.938 707.117 231.918 706.82 232.92 706.82C233.587 706.82 234.247 706.951 234.863 707.207C235.478 707.462 236.038 707.837 236.509 708.309C236.979 708.78 237.353 709.34 237.607 709.957C237.861 710.573 237.991 711.233 237.99 711.9Z" fill="#D6E1E9"/>
<path d="M114 272.82V317.76H158.94V272.82H114ZM153.9 312.72H119.04V277.86H153.9V312.72Z" fill="#D6E1E9"/>
<path d="M121.54 297.31L136.47 307.04L165 275.06L153.31 266L135.45 297.97L121.54 297.31Z" fill="#4D6FFB"/>
<path d="M114 341.22V386.12H158.94V341.22H114ZM153.9 381.12H119.04V346.27H153.9V381.12Z" fill="#D6E1E9"/>
<path d="M121.54 365.71L136.47 375.44L165 343.46L153.31 334.4L135.45 366.38L121.54 365.71Z" fill="#4D6FFB"/>
<path d="M299.85 426H247V429.64H299.85V426Z" fill="#D6E1E9"/>
<path d="M267.55 435.87H247V439.51H267.55V435.87Z" fill="#D6E1E9"/>
<path d="M307.51 435.87H273.74V439.51H307.51V435.87Z" fill="#D6E1E9"/>
<path d="M285.36 445.73H247V449.37H285.36V445.73Z" fill="#D6E1E9"/>
<path d="M1108.01 54C1095.75 53.9972 1083.76 57.6315 1073.56 64.4431C1063.37 71.2547 1055.42 80.9376 1050.72 92.2672C1046.03 103.597 1044.8 116.064 1047.19 128.092C1049.58 140.12 1055.49 151.169 1064.16 159.841C1072.83 168.512 1083.88 174.417 1095.91 176.809C1107.94 179.201 1120.4 177.972 1131.73 173.278C1143.06 168.583 1152.75 160.635 1159.56 150.437C1166.37 140.239 1170 128.25 1170 115.986C1170 99.5475 1163.46 83.7832 1151.84 72.1594C1140.22 60.5355 1124.45 54.0037 1108.01 54ZM1108.01 170.144C1097.3 170.144 1086.83 166.967 1077.93 161.016C1069.02 155.065 1062.08 146.607 1057.98 136.711C1053.88 126.815 1052.81 115.926 1054.9 105.42C1056.99 94.9149 1062.14 85.2649 1069.72 77.6909C1077.29 70.1168 1086.94 64.9588 1097.45 62.8691C1107.95 60.7794 1118.84 61.8519 1128.74 65.951C1138.64 70.05 1147.09 76.9916 1153.04 85.8977C1159 94.8039 1162.17 105.275 1162.17 115.986C1162.17 123.099 1160.77 130.142 1158.05 136.713C1155.33 143.285 1151.34 149.256 1146.31 154.285C1141.28 159.315 1135.31 163.304 1128.74 166.025C1122.17 168.746 1115.13 170.145 1108.01 170.144Z" fill="#D6E1E9"/>
<path d="M68.81 562C64.6938 562 60.6699 563.221 57.2475 565.508C53.8251 567.795 51.1579 571.046 49.5831 574.849C48.0083 578.652 47.5968 582.836 48.4006 586.873C49.2044 590.91 51.1873 594.618 54.0987 597.528C57.01 600.438 60.7189 602.419 64.7563 603.221C68.7937 604.023 72.9782 603.61 76.7806 602.033C80.5829 600.456 83.8323 597.788 86.1178 594.364C88.4032 590.941 89.622 586.916 89.62 582.8C89.6174 577.283 87.4237 571.992 83.5213 568.092C79.619 564.191 74.3275 562 68.81 562ZM68.81 600C65.4003 600 62.0671 598.989 59.232 597.095C56.3969 595.2 54.1872 592.508 52.8823 589.357C51.5774 586.207 51.2361 582.741 51.9013 579.397C52.5665 576.052 54.2084 572.981 56.6195 570.569C59.0305 568.158 62.1024 566.516 65.4466 565.851C68.7909 565.186 72.2572 565.527 75.4074 566.832C78.5576 568.137 81.2502 570.347 83.1446 573.182C85.0389 576.017 86.05 579.35 86.05 582.76C86.0566 585.028 85.6154 587.274 84.7519 589.371C83.8883 591.468 82.6193 593.374 81.0176 594.979C79.4159 596.585 77.5132 597.858 75.4183 598.727C73.3234 599.595 71.0778 600.041 68.81 600.04V600Z" fill="#D6E1E9"/>
<path d="M81.0701 580.51H71.1101V570.55H66.5201V580.51H56.5601V585.1H66.5201V595.06H71.1101V585.1H81.0701V580.51Z" fill="#A1B4FB"/>
<path d="M107.545 594.364C105.909 594.364 104.5 593.977 103.318 593.205C102.136 592.432 101.227 591.367 100.591 590.011C99.9545 588.655 99.6364 587.106 99.6364 585.364C99.6364 583.591 99.9621 582.027 100.614 580.67C101.273 579.307 102.189 578.242 103.364 577.477C104.545 576.705 105.924 576.318 107.5 576.318C108.727 576.318 109.833 576.545 110.818 577C111.803 577.455 112.61 578.091 113.239 578.909C113.867 579.727 114.258 580.682 114.409 581.773H111.727C111.523 580.977 111.068 580.273 110.364 579.659C109.667 579.038 108.727 578.727 107.545 578.727C106.5 578.727 105.583 579 104.795 579.545C104.015 580.083 103.405 580.845 102.966 581.83C102.534 582.807 102.318 583.955 102.318 585.273C102.318 586.621 102.53 587.795 102.955 588.795C103.386 589.795 103.992 590.572 104.773 591.125C105.561 591.678 106.485 591.955 107.545 591.955C108.242 591.955 108.875 591.833 109.443 591.591C110.011 591.348 110.492 591 110.886 590.545C111.28 590.091 111.561 589.545 111.727 588.909H114.409C114.258 589.939 113.883 590.867 113.284 591.693C112.693 592.511 111.909 593.163 110.932 593.648C109.962 594.125 108.833 594.364 107.545 594.364ZM121.011 570.727V594H118.33V570.727H121.011ZM125.923 594V576.545H128.605V594H125.923ZM127.287 573.636C126.764 573.636 126.313 573.458 125.935 573.102C125.563 572.746 125.378 572.318 125.378 571.818C125.378 571.318 125.563 570.89 125.935 570.534C126.313 570.178 126.764 570 127.287 570C127.81 570 128.257 570.178 128.628 570.534C129.007 570.89 129.196 571.318 129.196 571.818C129.196 572.318 129.007 572.746 128.628 573.102C128.257 573.458 127.81 573.636 127.287 573.636ZM140.835 594.364C139.153 594.364 137.703 593.992 136.483 593.25C135.271 592.5 134.335 591.455 133.676 590.114C133.025 588.765 132.699 587.197 132.699 585.409C132.699 583.621 133.025 582.045 133.676 580.682C134.335 579.311 135.252 578.242 136.426 577.477C137.608 576.705 138.987 576.318 140.562 576.318C141.472 576.318 142.369 576.47 143.256 576.773C144.142 577.076 144.949 577.568 145.676 578.25C146.403 578.924 146.983 579.818 147.415 580.932C147.847 582.045 148.062 583.417 148.062 585.045V586.182H134.608V583.864H145.335C145.335 582.879 145.138 582 144.744 581.227C144.358 580.455 143.805 579.845 143.085 579.398C142.373 578.951 141.532 578.727 140.562 578.727C139.494 578.727 138.57 578.992 137.79 579.523C137.017 580.045 136.422 580.727 136.006 581.568C135.589 582.409 135.381 583.311 135.381 584.273V585.818C135.381 587.136 135.608 588.254 136.062 589.17C136.525 590.08 137.165 590.773 137.983 591.25C138.801 591.72 139.752 591.955 140.835 591.955C141.54 591.955 142.176 591.856 142.744 591.659C143.32 591.455 143.816 591.152 144.233 590.75C144.65 590.341 144.972 589.833 145.199 589.227L147.79 589.955C147.517 590.833 147.059 591.606 146.415 592.273C145.771 592.932 144.975 593.447 144.028 593.818C143.081 594.182 142.017 594.364 140.835 594.364ZM154.824 583.5V594H152.142V576.545H154.733V579.273H154.96C155.369 578.386 155.991 577.674 156.824 577.136C157.657 576.591 158.733 576.318 160.051 576.318C161.233 576.318 162.267 576.561 163.153 577.045C164.04 577.523 164.729 578.25 165.222 579.227C165.714 580.197 165.96 581.424 165.96 582.909V594H163.278V583.091C163.278 581.72 162.922 580.652 162.21 579.886C161.498 579.114 160.521 578.727 159.278 578.727C158.422 578.727 157.657 578.913 156.983 579.284C156.316 579.655 155.79 580.197 155.403 580.909C155.017 581.621 154.824 582.485 154.824 583.5ZM178.452 576.545V578.818H169.406V576.545H178.452ZM172.043 572.364H174.724V589C174.724 589.758 174.834 590.326 175.054 590.705C175.281 591.076 175.569 591.326 175.918 591.455C176.274 591.576 176.649 591.636 177.043 591.636C177.338 591.636 177.58 591.621 177.77 591.591C177.959 591.553 178.111 591.523 178.224 591.5L178.77 593.909C178.588 593.977 178.334 594.045 178.009 594.114C177.683 594.189 177.27 594.227 176.77 594.227C176.012 594.227 175.27 594.064 174.543 593.739C173.823 593.413 173.224 592.917 172.747 592.25C172.277 591.583 172.043 590.742 172.043 589.727V572.364ZM189.616 594.364C187.935 594.364 186.484 593.992 185.264 593.25C184.052 592.5 183.116 591.455 182.457 590.114C181.806 588.765 181.48 587.197 181.48 585.409C181.48 583.621 181.806 582.045 182.457 580.682C183.116 579.311 184.033 578.242 185.207 577.477C186.389 576.705 187.768 576.318 189.344 576.318C190.253 576.318 191.151 576.47 192.037 576.773C192.923 577.076 193.73 577.568 194.457 578.25C195.185 578.924 195.764 579.818 196.196 580.932C196.628 582.045 196.844 583.417 196.844 585.045V586.182H183.389V583.864H194.116C194.116 582.879 193.92 582 193.526 581.227C193.139 580.455 192.586 579.845 191.866 579.398C191.154 578.951 190.313 578.727 189.344 578.727C188.276 578.727 187.351 578.992 186.571 579.523C185.798 580.045 185.204 580.727 184.787 581.568C184.37 582.409 184.162 583.311 184.162 584.273V585.818C184.162 587.136 184.389 588.254 184.844 589.17C185.306 590.08 185.946 590.773 186.764 591.25C187.582 591.72 188.533 591.955 189.616 591.955C190.321 591.955 190.957 591.856 191.526 591.659C192.101 591.455 192.598 591.152 193.014 590.75C193.431 590.341 193.753 589.833 193.98 589.227L196.571 589.955C196.298 590.833 195.84 591.606 195.196 592.273C194.552 592.932 193.757 593.447 192.81 593.818C191.863 594.182 190.798 594.364 189.616 594.364ZM213.287 580.455L210.878 581.136C210.726 580.735 210.503 580.345 210.207 579.966C209.92 579.58 209.526 579.261 209.026 579.011C208.526 578.761 207.885 578.636 207.105 578.636C206.037 578.636 205.147 578.883 204.435 579.375C203.73 579.86 203.378 580.477 203.378 581.227C203.378 581.894 203.62 582.42 204.105 582.807C204.59 583.193 205.348 583.515 206.378 583.773L208.969 584.409C210.529 584.788 211.692 585.367 212.457 586.148C213.223 586.92 213.605 587.917 213.605 589.136C213.605 590.136 213.317 591.03 212.741 591.818C212.173 592.606 211.378 593.227 210.355 593.682C209.332 594.136 208.143 594.364 206.787 594.364C205.007 594.364 203.533 593.977 202.366 593.205C201.2 592.432 200.461 591.303 200.151 589.818L202.696 589.182C202.938 590.121 203.397 590.826 204.071 591.295C204.753 591.765 205.643 592 206.741 592C207.991 592 208.984 591.735 209.719 591.205C210.461 590.667 210.832 590.023 210.832 589.273C210.832 588.667 210.62 588.159 210.196 587.75C209.772 587.333 209.12 587.023 208.241 586.818L205.332 586.136C203.734 585.758 202.56 585.17 201.81 584.375C201.067 583.572 200.696 582.568 200.696 581.364C200.696 580.379 200.973 579.508 201.526 578.75C202.086 577.992 202.848 577.398 203.81 576.966C204.779 576.534 205.878 576.318 207.105 576.318C208.832 576.318 210.188 576.697 211.173 577.455C212.166 578.212 212.87 579.212 213.287 580.455Z" fill="#A1B4FB"/>
<path d="M997.29 390.28H917.5C915.078 390.283 912.755 391.247 911.043 392.961C909.332 394.674 908.37 396.998 908.37 399.42V439.36C908.37 440.559 908.606 441.746 909.065 442.854C909.524 443.962 910.196 444.968 911.044 445.816C911.892 446.664 912.898 447.336 914.006 447.795C915.114 448.254 916.301 448.49 917.5 448.49H920.59L908.37 472.56L933.21 453.85C937.821 450.376 943.437 448.495 949.21 448.49H997.21C999.632 448.49 1001.96 447.528 1003.67 445.816C1005.38 444.105 1006.35 441.782 1006.35 439.36V399.41C1006.35 397.001 1005.4 394.689 1003.7 392.979C1002 391.269 999.699 390.298 997.29 390.28Z" fill="#4D6FFB"/>
<path d="M947.7 402.73H993.52" stroke="white" stroke-miterlimit="10" stroke-linecap="round"/>
<path d="M921.27 402.73H942.15" stroke="white" stroke-miterlimit="10" stroke-linecap="round"/>
<path d="M921.27 413.07H993.52" stroke="white" stroke-miterlimit="10" stroke-linecap="round"/>
<path d="M969.53 423.41H993.52" stroke="white" stroke-miterlimit="10" stroke-linecap="round"/>
<path d="M921.27 423.41H963.4" stroke="white" stroke-miterlimit="10" stroke-linecap="round"/>
<path d="M921.27 433.75H956.5" stroke="white" stroke-miterlimit="10" stroke-linecap="round"/>
<path d="M714.32 604.86H577.03V742.15H714.32V604.86Z" fill="#C9CEFF"/>
<path d="M641.94 604.86L577.03 644.22V604.86H641.94Z" fill="#ABB3FF"/>
<path d="M724.31 464.48H587.02V601.77H724.31V464.48Z" fill="#FCC835"/>
<path d="M724.3 472.56L587.01 493.2V464.48H724.3V472.56Z" fill="#DDBA55"/>
<path d="M714.32 324.1H577.03V461.39H714.32V324.1Z" fill="#94A8F4"/>
<path d="M597.363 169.16L469.683 219.958L520.481 347.637L648.16 296.84L597.363 169.16Z" fill="#FFEAEA"/>
<path d="M551.63 334.65L521.03 346.9L470 219.45L473.63 218L551.63 334.65Z" fill="#FFC7C7"/>
<path d="M454.99 742.15H765.4" stroke="black" stroke-miterlimit="10"/>
<path d="M413.92 646.88V706.36H335.03V765.84H256.15V825.32H335.03H413.92H492.8V765.84V706.36V646.88H413.92Z" fill="#A1B4FB"/>
<path d="M335.03 765.84L272.63 783.48L256.15 765.84H335.03Z" fill="black"/>
<path d="M492.8 646.88L413.92 666.54V646.88H492.8Z" fill="black"/>
<path d="M1005.54 768.62L1027.81 792.24L997.2 825.35L1002.65 795.81L990.23 783.93L1005.54 768.62Z" fill="#D46B9A"/>
<path d="M776.99 788.53L773.25 808.5L743.19 825.35H792.38L799.14 791.55L776.99 788.53Z" fill="#D46B9A"/>
<path d="M828.46 433.52C824.474 443.075 821.391 452.981 819.25 463.11C816.67 475.43 833.46 472.75 835.25 474.93C837.04 477.11 839.13 488.64 839.13 488.64L854.52 482.08C854.52 482.08 849.46 475.08 850.65 468.38C851.84 461.68 862.1 443.84 855.81 433.91C851.29 426.79 832.57 423.59 828.46 433.52Z" fill="#D46B9A"/>
<path d="M999.28 757.12C995.28 750.37 994.48 738.62 989.71 731.47C984.94 724.32 973.6 732.08 966.45 724.14C959.3 716.2 963.27 702.8 957.51 697.48C951.75 692.16 943.41 693.35 939.23 687.58C936.12 683.28 937.58 646.41 938.52 628.06C938.633 625.881 938.937 623.716 939.43 621.59C942.475 607.54 941.048 592.889 935.35 579.69L857.81 627.44C857.81 627.44 810.38 678.3 799.81 691.44C789.24 704.58 775.51 792.14 775.51 792.14L801.51 796.38C801.51 796.38 802.06 790.89 806.6 781.04C811.14 771.19 816.19 771.71 822.5 754.29C828.81 736.87 833.99 718.83 837.5 711.7C841.01 704.57 852.91 705.95 862.5 700.4C872.09 694.85 871.17 680.9 883.28 673.83C885.09 672.78 887.28 671.58 889.69 670.27C894.49 684.99 901.92 706.43 907.2 715.6C917.73 733.88 991.2 788.68 991.2 788.68L1008.77 771.26C1005.37 766.71 1002.2 761.991 999.28 757.12Z" fill="#2F3789"/>
<path d="M940.09 618.31L883.35 632.12L875.71 616.42L935.35 579.71C940.59 591.858 942.235 605.255 940.09 618.31Z" fill="black"/>
<path d="M879.44 493.11C872.69 487.11 854.51 482.11 854.51 482.11L839.12 488.67L840.95 501.67L815.08 525.71L841.9 555.31L847.52 548.31L860.19 638.16C912.82 629.84 942.19 589.9 942.19 589.9C942.19 589.9 886.2 499.07 879.44 493.11Z" fill="#80DCEE"/>
<path d="M815.65 526.31L802.76 537.51L733.14 527.97C733.14 527.97 738.3 506.12 724.3 505.62V536.22L801.61 560.22C803.462 560.794 805.417 560.958 807.339 560.701C809.261 560.444 811.104 559.771 812.74 558.73L832.99 545.47L815.65 526.31Z" fill="#D46B9A"/>
<path d="M847.53 548.29L862.42 530.97L849.73 563.93L847.53 548.29Z" fill="black"/>
<path d="M851.32 472.56L847.32 470.2L846.7 462.48C851.05 462.26 852.79 452.86 849.64 450.98C849.057 450.606 848.369 450.431 847.678 450.482C846.988 450.532 846.332 450.805 845.81 451.26L845.24 444.13C845.24 444.13 839.69 448.02 836.24 447.33C832.79 446.64 827.78 438.59 827.78 438.59C825.303 436.94 823.264 434.713 821.839 432.1C820.414 429.486 819.645 426.566 819.6 423.59C819.18 413.06 829.03 426.36 829.03 426.36C829.03 426.36 828.03 419.58 832.49 418.74C836.95 417.9 838.49 424.74 838.49 424.74C838.49 424.74 851.96 420.17 859.04 425.74C866.12 431.31 859.59 438.64 859.59 438.64C859.59 438.64 865 438.22 866.8 444.88C868.6 451.54 851.32 472.56 851.32 472.56Z" fill="#1F1B55"/>
<path d="M903.99 709.13C896.99 693.49 889.7 670.26 889.7 670.26C889.7 670.26 884.9 653.46 883.31 647.71" stroke="black" stroke-linecap="round" stroke-linejoin="round"/>
<path d="M850.93 491.9L815.08 525.69L841.9 555.29" stroke="black" stroke-linecap="round" stroke-linejoin="round"/>
<path d="M415.49 349.79L425.76 341.7L445.88 365.33L423.27 385.21L415.49 349.79Z" fill="#FCC835"/>
<path d="M487.71 266.04L447.24 328.23L426.92 343.23L441.4 360.04L458.93 346.36C462.355 343.711 465.098 340.283 466.93 336.36L493.16 279.57L487.71 266.04Z" fill="#D44659"/>
<path d="M293.19 703.18L280.48 738.45L320.12 765.84L308.25 730.5L317.06 709.44L293.19 703.18Z" fill="#D44659"/>
<path d="M432.84 614.46L426.72 646.88H471.14L451.48 635.01L455.31 616.75L432.84 614.46Z" fill="#D44659"/>
<path d="M472.45 526.21C465.08 512.89 414.66 464.48 414.66 464.48L338.99 479.33C338.99 479.33 321.99 505.74 321.41 535.94C321.216 543.351 321.55 550.766 322.41 558.13C322.41 558.13 323.9 573.6 318.98 583.97C314.06 594.34 310.43 597.97 309.34 603.08C308.25 608.19 309.71 618.72 310.07 625.08C310.43 631.44 305.52 639.46 301.88 646.73C298.24 654 301.69 663.41 298.15 681.08C294.31 693.95 290.47 705.86 290.47 705.86L323.04 716.96C323.04 716.96 358.34 627.72 370.14 595.31C377.94 573.88 384.3 552.5 389.14 534.67C402.88 538.97 418.47 543.46 429.54 545.51C432.85 546.12 433.39 545.79 432.38 549C430.51 555 427.03 562.11 428.49 572.27C429.4 578.68 432.93 581.11 432.95 588.9C432.97 596.69 430.95 617.17 430.95 617.17L456.27 621.86C456.27 621.86 479.83 539.54 472.45 526.21Z" fill="#2F3789"/>
<path d="M389.99 469.32L385.25 502.1L324.41 514.24C327.534 501.952 332.447 490.19 338.99 479.33L389.99 469.32Z" fill="black"/>
<path d="M422.84 352.01C422.84 352.01 424.64 338.88 430.03 334.39C435.42 329.9 444.34 331.44 444.17 317.59C444 303.74 437.01 284.92 419.4 288.93C400.46 293.25 407.92 316.23 410.4 324.32C412.88 332.41 404.83 346.25 404.83 346.25L427.83 363.87L422.84 352.01Z" fill="#D44659"/>
<path d="M404.87 346.25C404.87 346.25 389.76 349.37 375.87 375.74C361.98 402.11 326.4 495.48 326.4 495.48C326.4 495.48 334.63 504.01 364.72 504.01C411.17 504.01 431.72 476.83 431.72 476.83L427.92 363.83L404.87 346.25Z" fill="#FCC835"/>
<path d="M429.96 425.69L403.5 396.59L429.18 402.48L429.96 425.69Z" fill="black"/>
<path d="M507.04 314.32C507.04 314.32 500.42 317.32 502.16 328.05C503.012 332.602 504.89 336.901 507.65 340.62L460.29 382.62L446.09 374.97L431.68 402.97L458.36 409.41C460.532 409.934 462.809 409.821 464.918 409.083C467.027 408.345 468.879 407.014 470.25 405.25L518.56 343.04L507.04 314.32Z" fill="#D44659"/>
<path d="M418.63 358.04L449.42 376.18L431.09 412.48L398.03 393.48C398.03 393.48 386.76 381.43 394.19 366.25C401.62 351.07 418.63 358.04 418.63 358.04Z" fill="#FCC835"/>
<path d="M440.27 290.33C438.6 294.18 429.04 295.5 429.04 295.5C429.04 295.5 432.49 302.5 427.7 303.83C424.519 304.567 421.189 304.309 418.16 303.09C418.567 305.287 418.775 307.516 418.78 309.75C417.6 308.14 414.3 306.15 412.26 308.11C409.4 310.88 413.46 317.5 417.04 318.59C415.197 322.756 413.079 326.795 410.7 330.68C410.7 330.68 391.88 315.8 391.89 304.5C391.89 295.65 399.89 295.4 399.89 295.4C399.89 295.4 402.18 280.85 409.27 279.03C416.36 277.21 415.49 284.87 415.49 284.87C415.49 284.87 426.08 268.87 431.63 271.37C437.18 273.87 431.63 283.53 431.63 283.53C431.63 283.53 442.64 284.87 440.27 290.33Z" fill="#1F1B55"/>
<path d="M376.27 577.71C381.2 563.8 389.12 534.71 389.12 534.71L394.8 512.23" stroke="black" stroke-miterlimit="10" stroke-linecap="round"/>
<path d="M855.99 143.84C835.303 143.838 815.08 149.971 797.879 161.462C780.678 172.954 767.271 189.289 759.353 208.401C751.436 227.512 749.364 248.543 753.399 268.832C757.435 289.121 767.396 307.759 782.024 322.386C796.652 337.014 815.289 346.975 835.578 351.011C855.867 355.046 876.898 352.974 896.01 345.057C915.121 337.139 931.456 323.732 942.948 306.531C954.439 289.33 960.572 269.107 960.57 248.42C960.57 220.684 949.552 194.083 929.939 174.471C910.327 154.858 883.726 143.84 855.99 143.84ZM855.99 343.06C837.271 343.064 818.972 337.517 803.405 327.12C787.839 316.723 775.706 301.944 768.54 284.651C761.374 267.358 759.497 248.329 763.146 229.969C766.796 211.609 775.808 194.744 789.042 181.506C802.277 168.269 819.14 159.253 837.499 155.6C855.858 151.947 874.888 153.82 892.183 160.982C909.477 168.145 924.259 180.275 934.659 195.839C945.059 211.403 950.61 229.701 950.61 248.42C950.61 273.517 940.642 297.586 922.898 315.333C905.154 333.081 881.087 343.055 855.99 343.06Z" fill="#D6E1E9"/>
<path d="M845.18 165.98C845.18 165.98 841.51 166.68 843.08 150.98C844.65 135.28 861.46 132.26 879.31 146.98C879.31 146.98 877.56 135.98 890.16 138.23C902.76 140.48 908.97 164.94 891.73 161.85C891.73 161.85 894.88 176.73 887.73 178.48C887.73 178.48 903.16 205.24 868.67 207L845.18 165.98Z" fill="#1F1B55"/>
<path d="M795.32 211.81L781.26 215.18L742.99 167.59L744.14 155.59L738.57 147.59L734.45 150.47L723.15 132.57C723.15 132.57 714.63 138.87 727.64 151.99L717.8 162.1L725.89 173.39L732.95 173.81L770.99 235.71C771.901 237.195 773.25 238.36 774.851 239.046C776.452 239.732 778.227 239.905 779.93 239.54L800.32 235.18L795.32 211.81Z" fill="#FCC835"/>
<path d="M927.09 244.65L904.51 269.95L889.76 258.23L892.04 335.93C878.763 341.387 864.42 343.759 850.093 342.867C835.766 341.975 821.828 337.842 809.33 330.78L824.24 236.89L799.35 242.89L792.41 211.33L825.53 203.92C830.186 202.881 835.001 202.769 839.7 203.59L876.24 209.95C883.257 211.172 889.84 214.186 895.35 218.7L927.09 244.65Z" fill="#D46B9A"/>
<path d="M926.33 245.5L940.78 257.35C941.366 257.831 941.846 258.427 942.193 259.101C942.54 259.774 942.744 260.512 942.795 261.268C942.846 262.024 942.741 262.783 942.487 263.497C942.234 264.211 941.836 264.865 941.32 265.42L899.17 310.62C899.17 310.62 903.39 325.34 891.95 332.88L891.13 305L916.48 267L911.32 262.31L926.33 245.5Z" fill="#FCC835"/>
<path d="M870.99 177.8C873.89 174.8 875.79 169.93 873.5 167.68C870.8 165.04 867.62 167.96 866.03 169.83C865.5 167.983 865.334 166.05 865.54 164.14C861.03 163.86 856.27 163.14 853.17 161.65C851.608 160.943 850.25 159.852 849.222 158.48C848.194 157.107 847.53 155.498 847.29 153.8C846.026 154.713 845.14 156.058 844.8 157.58C844.8 157.58 838.85 180.16 840.24 187.86C841.63 195.56 856.87 193.27 856.87 193.27L850.42 209.11C850.42 209.11 851.76 214.9 859.42 214.31C868.42 213.61 868.81 207.99 868.81 207.99C868.81 207.99 875.57 184.7 876.81 180.71C874.676 180.19 872.687 179.195 870.99 177.8Z" fill="#FCC835"/>
<path d="M824.24 236.89L826.53 223.85L813.25 239.54L824.24 236.89Z" fill="black"/>
<path d="M889.59 246.33L890.5 277.27" stroke="black" stroke-width="1.09" stroke-linecap="round" stroke-linejoin="round"/>
<path d="M0 825H1313" stroke="black" stroke-miterlimit="10"/>
<path d="M1206.29 686H1069V823.29H1206.29V686Z" fill="#C9CEFF"/>
<path d="M1133.91 686L1069 725.36V686H1133.91Z" fill="#ABB3FF"/>
<path d="M720.83 835.31H919.74C920.343 835.309 920.941 835.427 921.498 835.657C922.056 835.887 922.562 836.225 922.989 836.652C923.415 837.078 923.753 837.584 923.983 838.142C924.213 838.699 924.331 839.297 924.33 839.9C924.331 840.504 924.214 841.102 923.984 841.66C923.753 842.218 923.415 842.725 922.989 843.152C922.563 843.579 922.056 843.918 921.499 844.15C920.941 844.381 920.344 844.5 919.74 844.5H798.74" stroke="black" stroke-miterlimit="10"/>
<g clip-path="url(#clip1_2_36)">
<path d="M685 536C685 518.327 670.673 504 653 504C635.327 504 621 518.327 621 536C621 551.972 632.702 565.211 648 567.611V545.25H639.875V536H648V528.95C648 520.93 652.778 516.5 660.087 516.5C663.588 516.5 667.25 517.125 667.25 517.125V525H663.215C659.24 525 658 527.467 658 529.997V536H666.875L665.456 545.25H658V567.611C673.298 565.211 685 551.972 685 536Z" fill="#1877F2"/>
<path d="M665.456 545.25L666.875 536H658V529.997C658 527.466 659.24 525 663.215 525H667.25V517.125C667.25 517.125 663.588 516.5 660.087 516.5C652.778 516.5 648 520.93 648 528.95V536H639.875V545.25H648V567.611C649.654 567.87 651.326 568 653 568C654.674 568 656.346 567.87 658 567.611V545.25H665.456Z" fill="white"/>
</g>
<g clip-path="url(#clip2_2_36)">
<path d="M663.234 642H629.766C621.611 642 615 648.611 615 656.766V690.234C615 698.389 621.611 705 629.766 705H663.234C671.389 705 678 698.389 678 690.234V656.766C678 648.611 671.389 642 663.234 642Z" fill="url(#paint0_radial_2_36)"/>
<path d="M663.234 642H629.766C621.611 642 615 648.611 615 656.766V690.234C615 698.389 621.611 705 629.766 705H663.234C671.389 705 678 698.389 678 690.234V656.766C678 648.611 671.389 642 663.234 642Z" fill="url(#paint1_radial_2_36)"/>
<path d="M646.502 648.891C639.819 648.891 638.98 648.92 636.355 649.039C633.735 649.159 631.947 649.574 630.382 650.183C628.763 650.811 627.39 651.652 626.023 653.02C624.654 654.388 623.813 655.761 623.182 657.379C622.572 658.945 622.157 660.734 622.039 663.352C621.921 665.977 621.891 666.817 621.891 673.5C621.891 680.184 621.92 681.02 622.039 683.645C622.16 686.265 622.575 688.053 623.183 689.618C623.812 691.237 624.653 692.61 626.021 693.977C627.388 695.346 628.761 696.189 630.379 696.818C631.945 697.426 633.733 697.841 636.353 697.961C638.978 698.081 639.816 698.11 646.499 698.11C653.183 698.11 654.02 698.081 656.644 697.961C659.264 697.841 661.055 697.426 662.621 696.818C664.239 696.189 665.61 695.346 666.977 693.977C668.346 692.61 669.187 691.237 669.817 689.619C670.422 688.053 670.838 686.264 670.961 683.645C671.079 681.021 671.109 680.184 671.109 673.5C671.109 666.817 671.079 665.978 670.961 663.353C670.838 660.733 670.422 658.945 669.817 657.38C669.187 655.761 668.346 654.388 666.977 653.02C665.608 651.652 664.239 650.811 662.619 650.183C661.05 649.574 659.261 649.159 656.641 649.039C654.016 648.92 653.18 648.891 646.495 648.891H646.502ZM644.295 653.325C644.95 653.324 645.681 653.325 646.502 653.325C653.073 653.325 653.852 653.349 656.447 653.467C658.846 653.577 660.148 653.978 661.016 654.315C662.164 654.76 662.983 655.294 663.844 656.155C664.705 657.017 665.238 657.837 665.685 658.985C666.022 659.852 666.424 661.154 666.533 663.553C666.651 666.148 666.676 666.927 666.676 673.495C666.676 680.062 666.651 680.842 666.533 683.436C666.423 685.835 666.022 687.138 665.685 688.004C665.24 689.153 664.705 689.97 663.844 690.831C662.983 691.692 662.165 692.226 661.016 692.672C660.149 693.01 658.846 693.41 656.447 693.52C653.852 693.638 653.073 693.663 646.502 693.663C639.931 693.663 639.152 693.638 636.558 693.52C634.159 693.409 632.856 693.008 631.988 692.671C630.84 692.225 630.019 691.692 629.158 690.831C628.297 689.969 627.764 689.151 627.317 688.002C626.98 687.136 626.578 685.833 626.469 683.434C626.351 680.839 626.327 680.06 626.327 673.488C626.327 666.917 626.351 666.142 626.469 663.547C626.579 661.148 626.98 659.845 627.317 658.978C627.763 657.829 628.297 657.009 629.158 656.148C630.02 655.287 630.84 654.753 631.988 654.306C632.856 653.968 634.159 653.568 636.558 653.458C638.828 653.355 639.708 653.324 644.295 653.319V653.325ZM659.639 657.412C658.008 657.412 656.686 658.733 656.686 660.364C656.686 661.994 658.008 663.317 659.639 663.317C661.269 663.317 662.592 661.994 662.592 660.364C662.592 658.733 661.269 657.411 659.639 657.411V657.412ZM646.502 660.862C639.523 660.862 633.864 666.521 633.864 673.5C633.864 680.48 639.523 686.136 646.502 686.136C653.482 686.136 659.138 680.48 659.138 673.5C659.138 666.521 653.481 660.862 646.502 660.862H646.502ZM646.502 665.297C651.033 665.297 654.706 668.969 654.706 673.5C654.706 678.031 651.033 681.704 646.502 681.704C641.972 681.704 638.299 678.031 638.299 673.5C638.299 668.969 641.972 665.297 646.502 665.297Z" fill="white"/>
</g>
<g clip-path="url(#clip3_2_36)">
<path d="M623.494 389.581C623.492 395.462 625.041 401.205 627.986 406.267L623.212 423.561L641.049 418.921C645.982 421.585 651.51 422.982 657.127 422.982H657.142C675.685 422.982 690.78 408.01 690.788 389.607C690.791 380.69 687.294 372.305 680.941 365.996C674.589 359.688 666.142 356.212 657.141 356.208C638.595 356.208 623.502 371.179 623.494 389.581" fill="url(#paint2_linear_2_36)"/>
<path d="M622.293 389.57C622.291 395.663 623.895 401.611 626.945 406.854L622 424.769L640.476 419.962C645.567 422.716 651.299 424.168 657.132 424.17H657.147C676.355 424.17 691.992 408.659 692 389.598C692.003 380.36 688.381 371.673 681.801 365.139C675.22 358.605 666.47 355.004 657.147 355C637.935 355 622.3 370.509 622.293 389.57ZM633.296 405.951L632.606 404.865C629.706 400.289 628.175 395.002 628.177 389.572C628.184 373.729 641.178 360.839 657.158 360.839C664.896 360.842 672.168 363.835 677.638 369.266C683.108 374.697 686.117 381.917 686.115 389.596C686.108 405.439 673.113 418.331 657.147 418.331H657.135C651.936 418.328 646.837 416.943 642.391 414.325L641.333 413.702L630.368 416.555L633.296 405.951Z" fill="white"/>
<path d="M648.435 375.118C647.783 373.679 647.096 373.65 646.476 373.625C645.968 373.603 645.387 373.605 644.807 373.605C644.226 373.605 643.282 373.821 642.485 374.685C641.686 375.55 639.437 377.641 639.437 381.892C639.437 386.143 642.557 390.252 642.992 390.829C643.428 391.405 649.017 400.409 657.869 403.872C665.225 406.751 666.722 406.178 668.319 406.034C669.916 405.89 673.472 403.944 674.197 401.926C674.923 399.909 674.923 398.179 674.705 397.818C674.488 397.458 673.907 397.242 673.036 396.81C672.165 396.378 667.883 394.287 667.085 393.999C666.287 393.711 665.706 393.567 665.125 394.432C664.545 395.296 662.877 397.242 662.369 397.818C661.861 398.396 661.353 398.468 660.482 398.035C659.611 397.602 656.806 396.69 653.478 393.747C650.89 391.456 649.142 388.628 648.634 387.763C648.126 386.899 648.579 386.431 649.016 386C649.407 385.613 649.887 384.991 650.323 384.487C650.757 383.982 650.902 383.622 651.192 383.046C651.483 382.469 651.338 381.964 651.12 381.532C650.902 381.1 649.21 376.826 648.435 375.118Z" fill="white"/>
</g>
<g clip-path="url(#clip4_2_36)">
<path d="M561.92 278.556C565.229 280.49 568.4 282.652 571.409 285.026C574.084 287.319 575.498 289.033 577.997 292.083C579.445 293.742 580.292 294.073 581.623 293.546C583.074 292.972 583.344 291.733 583.254 290.016C583.005 286.301 582.838 283.456 583.205 280.561C583.954 274.955 585.528 269.614 587.109 264.454C587.517 263.009 590.442 254.375 590.892 248.298C590.892 248.298 591.709 241.494 588.613 233.667C585.718 226.346 580.718 222.451 580.718 222.451L573.019 228.164L573.237 244.007L572.694 246.418L572.571 246.865L572.397 247.431L572.065 248.358L571.544 249.563L568.387 255.199L559.402 266.527L561.92 278.556Z" fill="#34A853"/>
<path d="M543.1 266.11C548.509 271.477 556.246 275.015 561.934 278.556L572.401 247.44C572.401 247.44 571.062 252.166 566.029 254.156C560.423 256.373 554.124 253.688 551.892 248.044C550.361 244.173 551.638 240.593 551.638 240.593L539.686 249.462L543.1 266.11Z" fill="#FBBC04"/>
<path d="M560.031 215.52C567.406 215.042 574.755 217.255 580.723 222.445L572.402 247.424C572.402 247.424 573.66 243.796 572.138 239.95C569.854 234.174 563.284 231.782 558.029 233.86C553.061 235.825 551.64 240.576 551.64 240.576L546.967 228.76L560.031 215.52Z" fill="#4285F4"/>
<path d="M534.974 235.014C537.032 228.795 542.002 221.263 551.479 217.515C556.076 215.697 560.018 215.534 560.018 215.534L551.629 240.592L540.418 245.026L534.974 235.014Z" fill="#1A73E8"/>
<path d="M543.1 266.11C543.1 266.11 538.461 262.024 535.528 254.607C532.755 247.597 533.057 240.392 534.974 235.014L551.639 240.591L543.1 266.11Z" fill="#EA4335"/>
</g>
<g clip-path="url(#clip5_2_36)">
<path d="M671.886 7.53925C683.886 9.44401 694.731 15.7881 702.274 25.3134C709.817 34.8386 713.506 46.8502 712.611 58.9678C711.715 71.0855 706.3 82.4253 697.439 90.7387L696.514 91.6061L697.215 92.6623L719.908 126.827L719.937 126.871C720.471 127.616 720.85 128.462 721.05 129.356C721.249 130.251 721.267 131.177 721.101 132.079C720.936 132.98 720.59 133.839 720.085 134.604C719.581 135.369 718.927 136.025 718.164 136.532C717.4 137.04 716.542 137.387 715.641 137.555C714.74 137.724 713.814 137.709 712.919 137.512C712.024 137.314 711.178 136.939 710.431 136.408C709.684 135.876 709.052 135.199 708.572 134.418L708.559 134.396L708.543 134.374L685.851 100.208L685.15 99.1523L683.992 99.6677C672.892 104.609 660.341 105.2 648.827 101.323C637.313 97.4456 627.675 89.3841 621.824 78.7355C615.973 68.0868 614.336 55.6275 617.237 43.8282C620.138 32.0292 627.366 21.7508 637.488 15.0297C647.61 8.30841 659.887 5.63449 671.886 7.53925ZM671.185 21.2778C662.138 19.4507 652.735 21.2931 645.046 26.3992C637.356 31.5053 632.01 39.4568 630.183 48.5048C629.278 52.9849 629.264 57.5996 630.142 62.0848C631.021 66.5702 632.775 70.8392 635.303 74.6469C637.83 78.4545 641.083 81.7271 644.876 84.2774C648.668 86.8277 652.926 88.606 657.406 89.5107C661.886 90.4154 666.5 90.4288 670.985 89.5501C675.47 88.6714 679.739 86.9178 683.546 84.3895C687.354 81.8612 690.626 78.6072 693.176 74.8142C695.726 71.0213 697.504 66.7628 698.409 62.2827C700.236 53.2348 698.395 43.8316 693.29 36.1418C688.184 28.4518 680.233 23.1049 671.185 21.2778Z" fill="#A1B4FB" stroke="white" stroke-width="3"/>
<path d="M666.643 38.4932C665.502 36.4195 662.499 36.4195 661.356 38.4932C659.853 41.2239 658.614 44.0918 657.656 47.0577C657.611 47.1738 657.532 47.2733 657.428 47.343C657.325 47.4127 657.203 47.4494 657.079 47.448C654.511 47.5147 651.953 47.7697 649.423 48.211C647.083 48.6187 646.052 51.4257 647.83 53.1635C648.054 53.3828 648.28 53.601 648.509 53.818C650.222 55.4399 652.036 56.952 653.939 58.3452C654.026 58.4027 654.091 58.4866 654.126 58.5844C654.161 58.6822 654.163 58.7887 654.132 58.8877C653.171 61.7712 652.484 64.739 652.081 67.7515C651.748 70.2435 654.387 71.773 656.447 70.716C658.948 69.4345 661.339 67.9495 663.596 66.2762C663.714 66.1926 663.855 66.1477 664 66.1477C664.145 66.1477 664.286 66.1926 664.404 66.2762C666.66 67.9515 669.051 69.4365 671.553 70.716C673.613 71.773 676.252 70.2435 675.919 67.7515C675.517 64.739 674.83 61.7713 673.87 58.8877C673.839 58.7887 673.841 58.6822 673.876 58.5844C673.911 58.4866 673.976 58.4027 674.063 58.3452C676.219 56.7665 678.26 55.0355 680.17 53.1652C681.948 51.4257 680.917 48.6187 678.578 48.211C676.047 47.7697 673.487 47.5146 670.92 47.448C670.795 47.449 670.674 47.4122 670.571 47.3425C670.468 47.2728 670.389 47.1735 670.344 47.0577C669.389 44.0906 668.148 41.2225 666.643 38.4932Z" fill="#FCC835"/>
</g>
<path d="M175.409 291V279.364H179.341C180.25 279.364 180.996 279.519 181.58 279.83C182.163 280.136 182.595 280.559 182.875 281.097C183.155 281.634 183.295 282.246 183.295 282.932C183.295 283.617 183.155 284.225 182.875 284.756C182.595 285.286 182.165 285.703 181.585 286.006C181.006 286.305 180.265 286.455 179.364 286.455H176.182V285.182H179.318C179.939 285.182 180.439 285.091 180.818 284.909C181.201 284.727 181.477 284.47 181.648 284.136C181.822 283.799 181.909 283.398 181.909 282.932C181.909 282.466 181.822 282.059 181.648 281.71C181.473 281.362 181.195 281.093 180.812 280.903C180.43 280.71 179.924 280.614 179.295 280.614H176.818V291H175.409ZM180.886 285.773L183.75 291H182.114L179.295 285.773H180.886ZM189.027 291.182C188.186 291.182 187.461 290.996 186.851 290.625C186.245 290.25 185.777 289.727 185.447 289.057C185.122 288.383 184.959 287.598 184.959 286.705C184.959 285.811 185.122 285.023 185.447 284.341C185.777 283.655 186.235 283.121 186.822 282.739C187.413 282.352 188.103 282.159 188.891 282.159C189.345 282.159 189.794 282.235 190.237 282.386C190.68 282.538 191.084 282.784 191.447 283.125C191.811 283.462 192.101 283.909 192.317 284.466C192.533 285.023 192.641 285.708 192.641 286.523V287.091H185.913V285.932H191.277C191.277 285.439 191.179 285 190.982 284.614C190.788 284.227 190.512 283.922 190.152 283.699C189.796 283.475 189.375 283.364 188.891 283.364C188.357 283.364 187.894 283.496 187.504 283.761C187.118 284.023 186.821 284.364 186.612 284.784C186.404 285.205 186.3 285.655 186.3 286.136V286.909C186.3 287.568 186.413 288.127 186.641 288.585C186.872 289.04 187.192 289.386 187.601 289.625C188.01 289.86 188.485 289.977 189.027 289.977C189.379 289.977 189.697 289.928 189.982 289.83C190.269 289.727 190.518 289.576 190.726 289.375C190.934 289.17 191.095 288.917 191.209 288.614L192.504 288.977C192.368 289.417 192.139 289.803 191.817 290.136C191.495 290.466 191.097 290.723 190.624 290.909C190.15 291.091 189.618 291.182 189.027 291.182ZM198.567 282.273V283.409H193.862V282.273H198.567ZM195.271 291V281.068C195.271 280.568 195.389 280.152 195.624 279.818C195.858 279.485 196.163 279.235 196.538 279.068C196.913 278.902 197.309 278.818 197.726 278.818C198.055 278.818 198.324 278.845 198.533 278.898C198.741 278.951 198.896 279 198.999 279.045L198.612 280.205C198.544 280.182 198.449 280.153 198.328 280.119C198.211 280.085 198.055 280.068 197.862 280.068C197.419 280.068 197.099 280.18 196.902 280.403C196.709 280.627 196.612 280.955 196.612 281.386V291H195.271ZM203.746 291.182C202.905 291.182 202.179 290.996 201.57 290.625C200.964 290.25 200.496 289.727 200.166 289.057C199.84 288.383 199.678 287.598 199.678 286.705C199.678 285.811 199.84 285.023 200.166 284.341C200.496 283.655 200.954 283.121 201.541 282.739C202.132 282.352 202.821 282.159 203.609 282.159C204.064 282.159 204.513 282.235 204.956 282.386C205.399 282.538 205.803 282.784 206.166 283.125C206.53 283.462 206.82 283.909 207.036 284.466C207.251 285.023 207.359 285.708 207.359 286.523V287.091H200.632V285.932H205.996C205.996 285.439 205.897 285 205.7 284.614C205.507 284.227 205.231 283.922 204.871 283.699C204.515 283.475 204.094 283.364 203.609 283.364C203.075 283.364 202.613 283.496 202.223 283.761C201.837 284.023 201.539 284.364 201.331 284.784C201.123 285.205 201.018 285.655 201.018 286.136V286.909C201.018 287.568 201.132 288.127 201.359 288.585C201.59 289.04 201.911 289.386 202.32 289.625C202.729 289.86 203.204 289.977 203.746 289.977C204.098 289.977 204.416 289.928 204.7 289.83C204.988 289.727 205.236 289.576 205.445 289.375C205.653 289.17 205.814 288.917 205.928 288.614L207.223 288.977C207.087 289.417 206.857 289.803 206.536 290.136C206.214 290.466 205.816 290.723 205.342 290.909C204.869 291.091 204.337 291.182 203.746 291.182ZM209.399 291V282.273H210.695V283.591H210.786C210.945 283.159 211.232 282.809 211.649 282.54C212.066 282.271 212.536 282.136 213.058 282.136C213.157 282.136 213.28 282.138 213.428 282.142C213.575 282.146 213.687 282.152 213.763 282.159V283.523C213.717 283.511 213.613 283.494 213.45 283.472C213.291 283.445 213.123 283.432 212.945 283.432C212.52 283.432 212.142 283.521 211.808 283.699C211.479 283.873 211.217 284.116 211.024 284.426C210.835 284.733 210.74 285.083 210.74 285.477V291H209.399ZM218.746 291.182C217.905 291.182 217.179 290.996 216.57 290.625C215.964 290.25 215.496 289.727 215.166 289.057C214.84 288.383 214.678 287.598 214.678 286.705C214.678 285.811 214.84 285.023 215.166 284.341C215.496 283.655 215.954 283.121 216.541 282.739C217.132 282.352 217.821 282.159 218.609 282.159C219.064 282.159 219.513 282.235 219.956 282.386C220.399 282.538 220.803 282.784 221.166 283.125C221.53 283.462 221.82 283.909 222.036 284.466C222.251 285.023 222.359 285.708 222.359 286.523V287.091H215.632V285.932H220.996C220.996 285.439 220.897 285 220.7 284.614C220.507 284.227 220.231 283.922 219.871 283.699C219.515 283.475 219.094 283.364 218.609 283.364C218.075 283.364 217.613 283.496 217.223 283.761C216.837 284.023 216.539 284.364 216.331 284.784C216.123 285.205 216.018 285.655 216.018 286.136V286.909C216.018 287.568 216.132 288.127 216.359 288.585C216.59 289.04 216.911 289.386 217.32 289.625C217.729 289.86 218.204 289.977 218.746 289.977C219.098 289.977 219.416 289.928 219.7 289.83C219.988 289.727 220.236 289.576 220.445 289.375C220.653 289.17 220.814 288.917 220.928 288.614L222.223 288.977C222.087 289.417 221.857 289.803 221.536 290.136C221.214 290.466 220.816 290.723 220.342 290.909C219.869 291.091 219.337 291.182 218.746 291.182ZM225.74 285.75V291H224.399V282.273H225.695V283.636H225.808C226.013 283.193 226.323 282.837 226.74 282.568C227.157 282.295 227.695 282.159 228.354 282.159C228.945 282.159 229.462 282.28 229.905 282.523C230.348 282.761 230.693 283.125 230.939 283.614C231.185 284.098 231.308 284.712 231.308 285.455V291H229.967V285.545C229.967 284.86 229.789 284.326 229.433 283.943C229.077 283.557 228.589 283.364 227.967 283.364C227.539 283.364 227.157 283.456 226.82 283.642C226.486 283.828 226.223 284.098 226.03 284.455C225.837 284.811 225.74 285.242 225.74 285.75ZM237.304 291.182C236.486 291.182 235.781 290.989 235.19 290.602C234.599 290.216 234.145 289.684 233.827 289.006C233.509 288.328 233.349 287.553 233.349 286.682C233.349 285.795 233.512 285.013 233.838 284.335C234.168 283.653 234.626 283.121 235.213 282.739C235.804 282.352 236.493 282.159 237.281 282.159C237.895 282.159 238.448 282.273 238.94 282.5C239.433 282.727 239.836 283.045 240.151 283.455C240.465 283.864 240.66 284.341 240.736 284.886H239.395C239.293 284.489 239.065 284.136 238.713 283.83C238.365 283.519 237.895 283.364 237.304 283.364C236.781 283.364 236.323 283.5 235.929 283.773C235.539 284.042 235.234 284.422 235.014 284.915C234.798 285.403 234.69 285.977 234.69 286.636C234.69 287.311 234.796 287.898 235.009 288.398C235.224 288.898 235.527 289.286 235.918 289.562C236.312 289.839 236.774 289.977 237.304 289.977C237.652 289.977 237.969 289.917 238.253 289.795C238.537 289.674 238.777 289.5 238.974 289.273C239.171 289.045 239.312 288.773 239.395 288.455H240.736C240.66 288.97 240.473 289.434 240.173 289.847C239.878 290.256 239.486 290.581 238.997 290.824C238.512 291.062 237.948 291.182 237.304 291.182ZM242.696 291V282.273H244.037V291H242.696ZM243.378 280.818C243.116 280.818 242.891 280.729 242.702 280.551C242.516 280.373 242.423 280.159 242.423 279.909C242.423 279.659 242.516 279.445 242.702 279.267C242.891 279.089 243.116 279 243.378 279C243.639 279 243.863 279.089 244.048 279.267C244.238 279.445 244.332 279.659 244.332 279.909C244.332 280.159 244.238 280.373 244.048 280.551C243.863 280.729 243.639 280.818 243.378 280.818ZM249.061 291.205C248.508 291.205 248.006 291.1 247.555 290.892C247.105 290.68 246.747 290.375 246.482 289.977C246.216 289.576 246.084 289.091 246.084 288.523C246.084 288.023 246.182 287.617 246.379 287.307C246.576 286.992 246.839 286.746 247.169 286.568C247.499 286.39 247.862 286.258 248.26 286.17C248.661 286.08 249.065 286.008 249.47 285.955C250 285.886 250.43 285.835 250.76 285.801C251.093 285.763 251.336 285.701 251.487 285.614C251.643 285.527 251.72 285.375 251.72 285.159V285.114C251.72 284.553 251.567 284.117 251.26 283.807C250.957 283.496 250.497 283.341 249.879 283.341C249.239 283.341 248.737 283.481 248.374 283.761C248.01 284.042 247.754 284.341 247.607 284.659L246.334 284.205C246.561 283.674 246.864 283.261 247.243 282.966C247.625 282.667 248.042 282.458 248.493 282.341C248.947 282.22 249.394 282.159 249.834 282.159C250.114 282.159 250.436 282.193 250.8 282.261C251.167 282.326 251.521 282.46 251.862 282.665C252.207 282.869 252.493 283.178 252.72 283.591C252.947 284.004 253.061 284.557 253.061 285.25V291H251.72V289.818H251.652C251.561 290.008 251.41 290.21 251.197 290.426C250.985 290.642 250.703 290.826 250.351 290.977C249.999 291.129 249.569 291.205 249.061 291.205ZM249.266 290C249.796 290 250.243 289.896 250.607 289.688C250.974 289.479 251.25 289.21 251.436 288.881C251.625 288.551 251.72 288.205 251.72 287.841V286.614C251.663 286.682 251.538 286.744 251.345 286.801C251.156 286.854 250.936 286.902 250.686 286.943C250.44 286.981 250.199 287.015 249.964 287.045C249.733 287.072 249.546 287.095 249.402 287.114C249.054 287.159 248.728 287.233 248.425 287.335C248.125 287.434 247.883 287.583 247.697 287.784C247.516 287.981 247.425 288.25 247.425 288.591C247.425 289.057 247.597 289.409 247.942 289.648C248.29 289.883 248.732 290 249.266 290ZM260.009 291V282.273H261.304V283.591H261.395C261.554 283.159 261.842 282.809 262.259 282.54C262.675 282.271 263.145 282.136 263.668 282.136C263.766 282.136 263.889 282.138 264.037 282.142C264.185 282.146 264.296 282.152 264.372 282.159V283.523C264.327 283.511 264.223 283.494 264.06 283.472C263.901 283.445 263.732 283.432 263.554 283.432C263.13 283.432 262.751 283.521 262.418 283.699C262.088 283.873 261.827 284.116 261.634 284.426C261.444 284.733 261.349 285.083 261.349 285.477V291H260.009ZM269.355 291.182C268.514 291.182 267.789 290.996 267.179 290.625C266.573 290.25 266.105 289.727 265.776 289.057C265.45 288.383 265.287 287.598 265.287 286.705C265.287 285.811 265.45 285.023 265.776 284.341C266.105 283.655 266.563 283.121 267.151 282.739C267.741 282.352 268.431 282.159 269.219 282.159C269.673 282.159 270.122 282.235 270.565 282.386C271.009 282.538 271.412 282.784 271.776 283.125C272.139 283.462 272.429 283.909 272.645 284.466C272.861 285.023 272.969 285.708 272.969 286.523V287.091H266.241V285.932H271.605C271.605 285.439 271.507 285 271.31 284.614C271.116 284.227 270.84 283.922 270.48 283.699C270.124 283.475 269.704 283.364 269.219 283.364C268.685 283.364 268.223 283.496 267.832 283.761C267.446 284.023 267.149 284.364 266.94 284.784C266.732 285.205 266.628 285.655 266.628 286.136V286.909C266.628 287.568 266.741 288.127 266.969 288.585C267.2 289.04 267.52 289.386 267.929 289.625C268.338 289.86 268.813 289.977 269.355 289.977C269.707 289.977 270.026 289.928 270.31 289.83C270.598 289.727 270.846 289.576 271.054 289.375C271.262 289.17 271.423 288.917 271.537 288.614L272.832 288.977C272.696 289.417 272.467 289.803 272.145 290.136C271.823 290.466 271.425 290.723 270.952 290.909C270.478 291.091 269.946 291.182 269.355 291.182ZM278.531 294.455C277.884 294.455 277.327 294.371 276.861 294.205C276.395 294.042 276.007 293.826 275.696 293.557C275.389 293.292 275.145 293.008 274.963 292.705L276.031 291.955C276.152 292.114 276.306 292.295 276.491 292.5C276.677 292.708 276.931 292.888 277.253 293.04C277.579 293.195 278.005 293.273 278.531 293.273C279.236 293.273 279.817 293.102 280.276 292.761C280.734 292.42 280.963 291.886 280.963 291.159V289.386H280.849C280.751 289.545 280.611 289.742 280.429 289.977C280.251 290.208 279.993 290.415 279.656 290.597C279.323 290.775 278.872 290.864 278.304 290.864C277.599 290.864 276.967 290.697 276.406 290.364C275.849 290.03 275.408 289.545 275.082 288.909C274.76 288.273 274.599 287.5 274.599 286.591C274.599 285.697 274.757 284.919 275.071 284.256C275.385 283.589 275.823 283.074 276.384 282.71C276.944 282.343 277.592 282.159 278.327 282.159C278.895 282.159 279.346 282.254 279.679 282.443C280.016 282.629 280.274 282.841 280.452 283.08C280.634 283.314 280.774 283.508 280.872 283.659H281.009V282.273H282.304V291.25C282.304 292 282.134 292.61 281.793 293.08C281.455 293.553 281.001 293.9 280.429 294.119C279.861 294.343 279.228 294.455 278.531 294.455ZM278.486 289.659C279.024 289.659 279.478 289.536 279.849 289.29C280.221 289.044 280.503 288.689 280.696 288.227C280.889 287.765 280.986 287.212 280.986 286.568C280.986 285.939 280.891 285.384 280.702 284.903C280.512 284.422 280.232 284.045 279.861 283.773C279.49 283.5 279.031 283.364 278.486 283.364C277.918 283.364 277.444 283.508 277.065 283.795C276.69 284.083 276.408 284.47 276.219 284.955C276.033 285.439 275.94 285.977 275.94 286.568C275.94 287.174 276.035 287.71 276.224 288.176C276.418 288.638 276.702 289.002 277.077 289.267C277.455 289.528 277.925 289.659 278.486 289.659ZM284.759 291V282.273H286.099V291H284.759ZM285.44 280.818C285.179 280.818 284.954 280.729 284.764 280.551C284.579 280.373 284.486 280.159 284.486 279.909C284.486 279.659 284.579 279.445 284.764 279.267C284.954 279.089 285.179 279 285.44 279C285.702 279 285.925 279.089 286.111 279.267C286.3 279.445 286.395 279.659 286.395 279.909C286.395 280.159 286.3 280.373 286.111 280.551C285.925 280.729 285.702 280.818 285.44 280.818ZM292.101 291.182C291.313 291.182 290.622 290.994 290.027 290.619C289.436 290.244 288.974 289.72 288.641 289.045C288.311 288.371 288.146 287.583 288.146 286.682C288.146 285.773 288.311 284.979 288.641 284.301C288.974 283.623 289.436 283.097 290.027 282.722C290.622 282.347 291.313 282.159 292.101 282.159C292.889 282.159 293.578 282.347 294.169 282.722C294.764 283.097 295.226 283.623 295.555 284.301C295.889 284.979 296.055 285.773 296.055 286.682C296.055 287.583 295.889 288.371 295.555 289.045C295.226 289.72 294.764 290.244 294.169 290.619C293.578 290.994 292.889 291.182 292.101 291.182ZM292.101 289.977C292.699 289.977 293.192 289.824 293.578 289.517C293.964 289.21 294.25 288.807 294.436 288.307C294.622 287.807 294.714 287.265 294.714 286.682C294.714 286.098 294.622 285.555 294.436 285.051C294.25 284.547 293.964 284.14 293.578 283.83C293.192 283.519 292.699 283.364 292.101 283.364C291.502 283.364 291.01 283.519 290.624 283.83C290.237 284.14 289.951 284.547 289.766 285.051C289.58 285.555 289.487 286.098 289.487 286.682C289.487 287.265 289.58 287.807 289.766 288.307C289.951 288.807 290.237 289.21 290.624 289.517C291.01 289.824 291.502 289.977 292.101 289.977ZM299.443 285.75V291H298.102V282.273H299.398V283.636H299.511C299.716 283.193 300.027 282.837 300.443 282.568C300.86 282.295 301.398 282.159 302.057 282.159C302.648 282.159 303.165 282.28 303.608 282.523C304.051 282.761 304.396 283.125 304.642 283.614C304.888 284.098 305.011 284.712 305.011 285.455V291H303.67V285.545C303.67 284.86 303.492 284.326 303.136 283.943C302.78 283.557 302.292 283.364 301.67 283.364C301.242 283.364 300.86 283.456 300.523 283.642C300.189 283.828 299.926 284.098 299.733 284.455C299.54 284.811 299.443 285.242 299.443 285.75ZM310.03 291.205C309.477 291.205 308.975 291.1 308.524 290.892C308.073 290.68 307.715 290.375 307.45 289.977C307.185 289.576 307.053 289.091 307.053 288.523C307.053 288.023 307.151 287.617 307.348 287.307C307.545 286.992 307.808 286.746 308.138 286.568C308.467 286.39 308.831 286.258 309.229 286.17C309.63 286.08 310.034 286.008 310.439 285.955C310.969 285.886 311.399 285.835 311.729 285.801C312.062 285.763 312.304 285.701 312.456 285.614C312.611 285.527 312.689 285.375 312.689 285.159V285.114C312.689 284.553 312.536 284.117 312.229 283.807C311.926 283.496 311.465 283.341 310.848 283.341C310.208 283.341 309.706 283.481 309.342 283.761C308.979 284.042 308.723 284.341 308.575 284.659L307.303 284.205C307.53 283.674 307.833 283.261 308.212 282.966C308.594 282.667 309.011 282.458 309.462 282.341C309.916 282.22 310.363 282.159 310.803 282.159C311.083 282.159 311.405 282.193 311.768 282.261C312.136 282.326 312.49 282.46 312.831 282.665C313.176 282.869 313.462 283.178 313.689 283.591C313.916 284.004 314.03 284.557 314.03 285.25V291H312.689V289.818H312.621C312.53 290.008 312.378 290.21 312.166 290.426C311.954 290.642 311.672 290.826 311.32 290.977C310.967 291.129 310.537 291.205 310.03 291.205ZM310.234 290C310.765 290 311.212 289.896 311.575 289.688C311.943 289.479 312.219 289.21 312.405 288.881C312.594 288.551 312.689 288.205 312.689 287.841V286.614C312.632 286.682 312.507 286.744 312.314 286.801C312.125 286.854 311.905 286.902 311.655 286.943C311.409 286.981 311.168 287.015 310.933 287.045C310.702 287.072 310.515 287.095 310.371 287.114C310.022 287.159 309.696 287.233 309.393 287.335C309.094 287.434 308.852 287.583 308.666 287.784C308.484 287.981 308.393 288.25 308.393 288.591C308.393 289.057 308.566 289.409 308.911 289.648C309.259 289.883 309.7 290 310.234 290ZM317.818 279.364V291H316.477V279.364H317.818Z" fill="#4D6FFB"/>
<path d="M175.409 301.364H177.091L181.045 311.023H181.182L185.136 301.364H186.818V313H185.5V304.159H185.386L181.75 313H180.477L176.841 304.159H176.727V313H175.409V301.364ZM192.03 313.205C191.477 313.205 190.975 313.1 190.524 312.892C190.073 312.68 189.715 312.375 189.45 311.977C189.185 311.576 189.053 311.091 189.053 310.523C189.053 310.023 189.151 309.617 189.348 309.307C189.545 308.992 189.808 308.746 190.138 308.568C190.467 308.39 190.831 308.258 191.229 308.17C191.63 308.08 192.034 308.008 192.439 307.955C192.969 307.886 193.399 307.835 193.729 307.801C194.062 307.763 194.304 307.701 194.456 307.614C194.611 307.527 194.689 307.375 194.689 307.159V307.114C194.689 306.553 194.536 306.117 194.229 305.807C193.926 305.496 193.465 305.341 192.848 305.341C192.208 305.341 191.706 305.481 191.342 305.761C190.979 306.042 190.723 306.341 190.575 306.659L189.303 306.205C189.53 305.674 189.833 305.261 190.212 304.966C190.594 304.667 191.011 304.458 191.462 304.341C191.916 304.22 192.363 304.159 192.803 304.159C193.083 304.159 193.405 304.193 193.768 304.261C194.136 304.326 194.49 304.46 194.831 304.665C195.176 304.869 195.462 305.178 195.689 305.591C195.916 306.004 196.03 306.557 196.03 307.25V313H194.689V311.818H194.621C194.53 312.008 194.378 312.21 194.166 312.426C193.954 312.642 193.672 312.826 193.32 312.977C192.967 313.129 192.537 313.205 192.03 313.205ZM192.234 312C192.765 312 193.212 311.896 193.575 311.688C193.943 311.479 194.219 311.21 194.405 310.881C194.594 310.551 194.689 310.205 194.689 309.841V308.614C194.632 308.682 194.507 308.744 194.314 308.801C194.125 308.854 193.905 308.902 193.655 308.943C193.409 308.981 193.168 309.015 192.933 309.045C192.702 309.072 192.515 309.095 192.371 309.114C192.022 309.159 191.696 309.233 191.393 309.335C191.094 309.434 190.852 309.583 190.666 309.784C190.484 309.981 190.393 310.25 190.393 310.591C190.393 311.057 190.566 311.409 190.911 311.648C191.259 311.883 191.7 312 192.234 312ZM198.477 313V304.273H199.818V313H198.477ZM199.159 302.818C198.898 302.818 198.672 302.729 198.483 302.551C198.297 302.373 198.205 302.159 198.205 301.909C198.205 301.659 198.297 301.445 198.483 301.267C198.672 301.089 198.898 301 199.159 301C199.42 301 199.644 301.089 199.83 301.267C200.019 301.445 200.114 301.659 200.114 301.909C200.114 302.159 200.019 302.373 199.83 302.551C199.644 302.729 199.42 302.818 199.159 302.818ZM208.456 306.227L207.251 306.568C207.176 306.367 207.064 306.172 206.916 305.983C206.772 305.79 206.575 305.631 206.325 305.506C206.075 305.381 205.755 305.318 205.365 305.318C204.831 305.318 204.386 305.441 204.03 305.688C203.678 305.93 203.501 306.239 203.501 306.614C203.501 306.947 203.623 307.21 203.865 307.403C204.107 307.597 204.486 307.758 205.001 307.886L206.297 308.205C207.077 308.394 207.659 308.684 208.041 309.074C208.424 309.46 208.615 309.958 208.615 310.568C208.615 311.068 208.471 311.515 208.183 311.909C207.899 312.303 207.501 312.614 206.99 312.841C206.479 313.068 205.884 313.182 205.206 313.182C204.316 313.182 203.579 312.989 202.996 312.602C202.412 312.216 202.043 311.652 201.888 310.909L203.161 310.591C203.282 311.061 203.511 311.413 203.848 311.648C204.189 311.883 204.634 312 205.183 312C205.808 312 206.304 311.867 206.672 311.602C207.043 311.333 207.229 311.011 207.229 310.636C207.229 310.333 207.123 310.08 206.911 309.875C206.698 309.667 206.373 309.511 205.933 309.409L204.479 309.068C203.679 308.879 203.092 308.585 202.717 308.188C202.346 307.786 202.161 307.284 202.161 306.682C202.161 306.189 202.299 305.754 202.575 305.375C202.856 304.996 203.236 304.699 203.717 304.483C204.202 304.267 204.751 304.159 205.365 304.159C206.229 304.159 206.907 304.348 207.399 304.727C207.895 305.106 208.248 305.606 208.456 306.227ZM218.679 313.182C217.861 313.182 217.156 312.989 216.565 312.602C215.974 312.216 215.52 311.684 215.202 311.006C214.884 310.328 214.724 309.553 214.724 308.682C214.724 307.795 214.887 307.013 215.213 306.335C215.543 305.653 216.001 305.121 216.588 304.739C217.179 304.352 217.868 304.159 218.656 304.159C219.27 304.159 219.823 304.273 220.315 304.5C220.808 304.727 221.211 305.045 221.526 305.455C221.84 305.864 222.035 306.341 222.111 306.886H220.77C220.668 306.489 220.44 306.136 220.088 305.83C219.74 305.519 219.27 305.364 218.679 305.364C218.156 305.364 217.698 305.5 217.304 305.773C216.914 306.042 216.609 306.422 216.389 306.915C216.173 307.403 216.065 307.977 216.065 308.636C216.065 309.311 216.171 309.898 216.384 310.398C216.599 310.898 216.902 311.286 217.293 311.562C217.687 311.839 218.149 311.977 218.679 311.977C219.027 311.977 219.344 311.917 219.628 311.795C219.912 311.674 220.152 311.5 220.349 311.273C220.546 311.045 220.687 310.773 220.77 310.455H222.111C222.035 310.97 221.848 311.434 221.548 311.847C221.253 312.256 220.861 312.581 220.372 312.824C219.887 313.062 219.323 313.182 218.679 313.182ZM225.412 301.364V313H224.071V301.364H225.412ZM227.868 313V304.273H229.209V313H227.868ZM228.55 302.818C228.288 302.818 228.063 302.729 227.874 302.551C227.688 302.373 227.595 302.159 227.595 301.909C227.595 301.659 227.688 301.445 227.874 301.267C228.063 301.089 228.288 301 228.55 301C228.811 301 229.035 301.089 229.22 301.267C229.41 301.445 229.504 301.659 229.504 301.909C229.504 302.159 229.41 302.373 229.22 302.551C229.035 302.729 228.811 302.818 228.55 302.818ZM235.324 313.182C234.483 313.182 233.758 312.996 233.148 312.625C232.542 312.25 232.074 311.727 231.744 311.057C231.419 310.383 231.256 309.598 231.256 308.705C231.256 307.811 231.419 307.023 231.744 306.341C232.074 305.655 232.532 305.121 233.119 304.739C233.71 304.352 234.4 304.159 235.188 304.159C235.642 304.159 236.091 304.235 236.534 304.386C236.977 304.538 237.381 304.784 237.744 305.125C238.108 305.462 238.398 305.909 238.614 306.466C238.83 307.023 238.938 307.708 238.938 308.523V309.091H232.21V307.932H237.574C237.574 307.439 237.475 307 237.278 306.614C237.085 306.227 236.809 305.922 236.449 305.699C236.093 305.475 235.672 305.364 235.188 305.364C234.653 305.364 234.191 305.496 233.801 305.761C233.415 306.023 233.117 306.364 232.909 306.784C232.701 307.205 232.597 307.655 232.597 308.136V308.909C232.597 309.568 232.71 310.127 232.938 310.585C233.169 311.04 233.489 311.386 233.898 311.625C234.307 311.86 234.782 311.977 235.324 311.977C235.676 311.977 235.994 311.928 236.278 311.83C236.566 311.727 236.814 311.576 237.023 311.375C237.231 311.17 237.392 310.917 237.506 310.614L238.801 310.977C238.665 311.417 238.436 311.803 238.114 312.136C237.792 312.466 237.394 312.723 236.92 312.909C236.447 313.091 235.915 313.182 235.324 313.182ZM242.318 307.75V313H240.977V304.273H242.273V305.636H242.386C242.591 305.193 242.902 304.837 243.318 304.568C243.735 304.295 244.273 304.159 244.932 304.159C245.523 304.159 246.04 304.28 246.483 304.523C246.926 304.761 247.271 305.125 247.517 305.614C247.763 306.098 247.886 306.712 247.886 307.455V313H246.545V307.545C246.545 306.86 246.367 306.326 246.011 305.943C245.655 305.557 245.167 305.364 244.545 305.364C244.117 305.364 243.735 305.456 243.398 305.642C243.064 305.828 242.801 306.098 242.608 306.455C242.415 306.811 242.318 307.242 242.318 307.75ZM254.132 304.273V305.409H249.609V304.273H254.132ZM250.928 302.182H252.268V310.5C252.268 310.879 252.323 311.163 252.433 311.352C252.547 311.538 252.691 311.663 252.865 311.727C253.043 311.788 253.231 311.818 253.428 311.818C253.575 311.818 253.696 311.811 253.791 311.795C253.886 311.777 253.962 311.761 254.018 311.75L254.291 312.955C254.2 312.989 254.073 313.023 253.911 313.057C253.748 313.095 253.541 313.114 253.291 313.114C252.912 313.114 252.541 313.032 252.178 312.869C251.818 312.706 251.518 312.458 251.28 312.125C251.045 311.792 250.928 311.371 250.928 310.864V302.182ZM259.714 313.182C258.874 313.182 258.148 312.996 257.538 312.625C256.932 312.25 256.464 311.727 256.135 311.057C255.809 310.383 255.646 309.598 255.646 308.705C255.646 307.811 255.809 307.023 256.135 306.341C256.464 305.655 256.923 305.121 257.51 304.739C258.101 304.352 258.79 304.159 259.578 304.159C260.033 304.159 260.482 304.235 260.925 304.386C261.368 304.538 261.771 304.784 262.135 305.125C262.499 305.462 262.788 305.909 263.004 306.466C263.22 307.023 263.328 307.708 263.328 308.523V309.091H256.601V307.932H261.964C261.964 307.439 261.866 307 261.669 306.614C261.476 306.227 261.199 305.922 260.839 305.699C260.483 305.475 260.063 305.364 259.578 305.364C259.044 305.364 258.582 305.496 258.192 305.761C257.805 306.023 257.508 306.364 257.3 306.784C257.091 307.205 256.987 307.655 256.987 308.136V308.909C256.987 309.568 257.101 310.127 257.328 310.585C257.559 311.04 257.879 311.386 258.288 311.625C258.697 311.86 259.173 311.977 259.714 311.977C260.067 311.977 260.385 311.928 260.669 311.83C260.957 311.727 261.205 311.576 261.413 311.375C261.622 311.17 261.783 310.917 261.896 310.614L263.192 310.977C263.055 311.417 262.826 311.803 262.504 312.136C262.182 312.466 261.785 312.723 261.311 312.909C260.838 313.091 260.305 313.182 259.714 313.182ZM271.55 306.227L270.345 306.568C270.269 306.367 270.158 306.172 270.01 305.983C269.866 305.79 269.669 305.631 269.419 305.506C269.169 305.381 268.849 305.318 268.459 305.318C267.925 305.318 267.48 305.441 267.124 305.688C266.771 305.93 266.595 306.239 266.595 306.614C266.595 306.947 266.716 307.21 266.959 307.403C267.201 307.597 267.58 307.758 268.095 307.886L269.391 308.205C270.171 308.394 270.752 308.684 271.135 309.074C271.518 309.46 271.709 309.958 271.709 310.568C271.709 311.068 271.565 311.515 271.277 311.909C270.993 312.303 270.595 312.614 270.084 312.841C269.572 313.068 268.978 313.182 268.3 313.182C267.41 313.182 266.673 312.989 266.089 312.602C265.506 312.216 265.137 311.652 264.982 310.909L266.254 310.591C266.375 311.061 266.605 311.413 266.942 311.648C267.283 311.883 267.728 312 268.277 312C268.902 312 269.398 311.867 269.766 311.602C270.137 311.333 270.322 311.011 270.322 310.636C270.322 310.333 270.216 310.08 270.004 309.875C269.792 309.667 269.466 309.511 269.027 309.409L267.572 309.068C266.773 308.879 266.186 308.585 265.811 308.188C265.44 307.786 265.254 307.284 265.254 306.682C265.254 306.189 265.393 305.754 265.669 305.375C265.949 304.996 266.33 304.699 266.811 304.483C267.296 304.267 267.845 304.159 268.459 304.159C269.322 304.159 270 304.348 270.493 304.727C270.989 305.106 271.341 305.606 271.55 306.227Z" fill="#4D6FFB"/>
<path d="M117.324 227.71C117.278 227.252 117.083 226.896 116.739 226.642C116.394 226.388 115.926 226.261 115.335 226.261C114.934 226.261 114.595 226.318 114.318 226.432C114.042 226.542 113.83 226.695 113.682 226.892C113.538 227.089 113.466 227.312 113.466 227.562C113.458 227.771 113.502 227.953 113.597 228.108C113.695 228.263 113.83 228.398 114 228.511C114.17 228.621 114.367 228.718 114.591 228.801C114.814 228.881 115.053 228.949 115.307 229.006L116.352 229.256C116.86 229.369 117.326 229.521 117.75 229.71C118.174 229.9 118.542 230.133 118.852 230.409C119.163 230.686 119.403 231.011 119.574 231.386C119.748 231.761 119.837 232.191 119.841 232.676C119.837 233.388 119.655 234.006 119.295 234.528C118.939 235.047 118.424 235.451 117.75 235.739C117.08 236.023 116.271 236.165 115.324 236.165C114.384 236.165 113.566 236.021 112.869 235.733C112.176 235.445 111.634 235.019 111.244 234.455C110.858 233.886 110.655 233.184 110.636 232.347H113.017C113.044 232.737 113.155 233.062 113.352 233.324C113.553 233.581 113.82 233.777 114.153 233.909C114.491 234.038 114.871 234.102 115.295 234.102C115.712 234.102 116.074 234.042 116.381 233.92C116.691 233.799 116.932 233.631 117.102 233.415C117.273 233.199 117.358 232.951 117.358 232.67C117.358 232.409 117.28 232.189 117.125 232.011C116.973 231.833 116.75 231.682 116.455 231.557C116.163 231.432 115.805 231.318 115.381 231.216L114.114 230.898C113.133 230.659 112.358 230.286 111.79 229.778C111.222 229.271 110.939 228.587 110.943 227.727C110.939 227.023 111.127 226.407 111.506 225.881C111.888 225.354 112.413 224.943 113.08 224.648C113.746 224.352 114.504 224.205 115.352 224.205C116.216 224.205 116.97 224.352 117.614 224.648C118.261 224.943 118.765 225.354 119.125 225.881C119.485 226.407 119.67 227.017 119.682 227.71H117.324ZM125.428 236.17C124.53 236.17 123.757 235.989 123.109 235.625C122.465 235.258 121.969 234.739 121.621 234.068C121.272 233.394 121.098 232.597 121.098 231.676C121.098 230.778 121.272 229.991 121.621 229.312C121.969 228.634 122.46 228.106 123.092 227.727C123.729 227.348 124.475 227.159 125.331 227.159C125.907 227.159 126.443 227.252 126.939 227.438C127.439 227.619 127.875 227.894 128.246 228.261C128.621 228.629 128.912 229.091 129.121 229.648C129.329 230.201 129.433 230.848 129.433 231.591V232.256H122.064V230.756H127.155C127.155 230.407 127.079 230.098 126.928 229.83C126.776 229.561 126.566 229.35 126.297 229.199C126.032 229.044 125.723 228.966 125.371 228.966C125.003 228.966 124.678 229.051 124.393 229.222C124.113 229.388 123.893 229.614 123.734 229.898C123.575 230.178 123.494 230.491 123.49 230.835V232.261C123.49 232.693 123.57 233.066 123.729 233.381C123.892 233.695 124.121 233.938 124.416 234.108C124.712 234.278 125.062 234.364 125.467 234.364C125.736 234.364 125.982 234.326 126.206 234.25C126.429 234.174 126.621 234.061 126.78 233.909C126.939 233.758 127.06 233.572 127.143 233.352L129.382 233.5C129.268 234.038 129.036 234.508 128.683 234.909C128.335 235.307 127.884 235.617 127.331 235.841C126.782 236.061 126.147 236.17 125.428 236.17ZM136.609 232.284V227.273H139.03V236H136.706V234.415H136.615C136.418 234.926 136.09 235.337 135.632 235.648C135.178 235.958 134.623 236.114 133.967 236.114C133.384 236.114 132.871 235.981 132.428 235.716C131.984 235.451 131.638 235.074 131.388 234.585C131.142 234.097 131.017 233.511 131.013 232.83V227.273H133.433V232.398C133.437 232.913 133.575 233.32 133.848 233.619C134.121 233.919 134.486 234.068 134.945 234.068C135.236 234.068 135.509 234.002 135.763 233.869C136.017 233.733 136.221 233.532 136.376 233.267C136.536 233.002 136.613 232.674 136.609 232.284ZM147.089 230.955V236H144.669V227.273H146.976V228.812H147.078C147.271 228.305 147.595 227.903 148.05 227.608C148.504 227.309 149.055 227.159 149.703 227.159C150.309 227.159 150.838 227.292 151.288 227.557C151.739 227.822 152.089 228.201 152.339 228.693C152.589 229.182 152.714 229.765 152.714 230.443V236H150.294V230.875C150.298 230.341 150.161 229.924 149.885 229.625C149.608 229.322 149.228 229.17 148.743 229.17C148.417 229.17 148.129 229.241 147.879 229.381C147.633 229.521 147.44 229.725 147.3 229.994C147.163 230.259 147.093 230.58 147.089 230.955ZM158.599 236.17C157.702 236.17 156.929 235.989 156.281 235.625C155.637 235.258 155.141 234.739 154.793 234.068C154.444 233.394 154.27 232.597 154.27 231.676C154.27 230.778 154.444 229.991 154.793 229.312C155.141 228.634 155.632 228.106 156.264 227.727C156.901 227.348 157.647 227.159 158.503 227.159C159.079 227.159 159.615 227.252 160.111 227.438C160.611 227.619 161.046 227.894 161.418 228.261C161.793 228.629 162.084 229.091 162.293 229.648C162.501 230.201 162.605 230.848 162.605 231.591V232.256H155.236V230.756H160.327C160.327 230.407 160.251 230.098 160.099 229.83C159.948 229.561 159.738 229.35 159.469 229.199C159.204 229.044 158.895 228.966 158.543 228.966C158.175 228.966 157.849 229.051 157.565 229.222C157.285 229.388 157.065 229.614 156.906 229.898C156.747 230.178 156.666 230.491 156.662 230.835V232.261C156.662 232.693 156.741 233.066 156.901 233.381C157.063 233.695 157.293 233.938 157.588 234.108C157.884 234.278 158.234 234.364 158.639 234.364C158.908 234.364 159.154 234.326 159.378 234.25C159.601 234.174 159.793 234.061 159.952 233.909C160.111 233.758 160.232 233.572 160.315 233.352L162.554 233.5C162.44 234.038 162.207 234.508 161.855 234.909C161.507 235.307 161.056 235.617 160.503 235.841C159.954 236.061 159.319 236.17 158.599 236.17ZM168.116 239.455C167.332 239.455 166.66 239.347 166.099 239.131C165.543 238.919 165.099 238.629 164.77 238.261C164.44 237.894 164.226 237.481 164.128 237.023L166.366 236.722C166.435 236.896 166.543 237.059 166.69 237.21C166.838 237.362 167.033 237.483 167.276 237.574C167.522 237.669 167.821 237.716 168.173 237.716C168.7 237.716 169.134 237.587 169.474 237.33C169.819 237.076 169.991 236.65 169.991 236.051V234.455H169.889C169.783 234.697 169.624 234.926 169.412 235.142C169.2 235.358 168.927 235.534 168.594 235.67C168.26 235.807 167.863 235.875 167.401 235.875C166.745 235.875 166.149 235.723 165.611 235.42C165.077 235.114 164.651 234.646 164.332 234.017C164.018 233.384 163.861 232.585 163.861 231.619C163.861 230.631 164.022 229.805 164.344 229.142C164.666 228.479 165.094 227.983 165.628 227.653C166.166 227.324 166.755 227.159 167.395 227.159C167.884 227.159 168.293 227.242 168.622 227.409C168.952 227.572 169.217 227.777 169.418 228.023C169.622 228.265 169.779 228.504 169.889 228.739H169.98V227.273H172.384V236.085C172.384 236.828 172.202 237.449 171.838 237.949C171.474 238.449 170.971 238.824 170.327 239.074C169.687 239.328 168.95 239.455 168.116 239.455ZM168.168 234.057C168.558 234.057 168.887 233.96 169.156 233.767C169.429 233.57 169.637 233.29 169.781 232.926C169.929 232.559 170.003 232.119 170.003 231.608C170.003 231.097 169.931 230.653 169.787 230.278C169.643 229.9 169.435 229.606 169.162 229.398C168.889 229.189 168.558 229.085 168.168 229.085C167.77 229.085 167.435 229.193 167.162 229.409C166.889 229.621 166.683 229.917 166.543 230.295C166.402 230.674 166.332 231.112 166.332 231.608C166.332 232.112 166.402 232.547 166.543 232.915C166.687 233.278 166.893 233.561 167.162 233.761C167.435 233.958 167.77 234.057 168.168 234.057ZM178.253 236.17C177.37 236.17 176.607 235.983 175.963 235.608C175.323 235.229 174.829 234.703 174.48 234.028C174.132 233.35 173.957 232.564 173.957 231.67C173.957 230.769 174.132 229.981 174.48 229.307C174.829 228.629 175.323 228.102 175.963 227.727C176.607 227.348 177.37 227.159 178.253 227.159C179.135 227.159 179.897 227.348 180.537 227.727C181.181 228.102 181.677 228.629 182.026 229.307C182.374 229.981 182.548 230.769 182.548 231.67C182.548 232.564 182.374 233.35 182.026 234.028C181.677 234.703 181.181 235.229 180.537 235.608C179.897 235.983 179.135 236.17 178.253 236.17ZM178.264 234.295C178.666 234.295 179.001 234.182 179.27 233.955C179.539 233.723 179.741 233.409 179.878 233.011C180.018 232.614 180.088 232.161 180.088 231.653C180.088 231.146 180.018 230.693 179.878 230.295C179.741 229.898 179.539 229.583 179.27 229.352C179.001 229.121 178.666 229.006 178.264 229.006C177.859 229.006 177.518 229.121 177.241 229.352C176.969 229.583 176.762 229.898 176.622 230.295C176.486 230.693 176.418 231.146 176.418 231.653C176.418 232.161 176.486 232.614 176.622 233.011C176.762 233.409 176.969 233.723 177.241 233.955C177.518 234.182 177.859 234.295 178.264 234.295ZM188.065 236.17C187.171 236.17 186.402 235.981 185.759 235.602C185.118 235.22 184.626 234.689 184.281 234.011C183.94 233.333 183.77 232.553 183.77 231.67C183.77 230.777 183.942 229.992 184.287 229.318C184.635 228.64 185.13 228.112 185.77 227.733C186.41 227.35 187.171 227.159 188.054 227.159C188.815 227.159 189.482 227.297 190.054 227.574C190.626 227.85 191.079 228.239 191.412 228.739C191.745 229.239 191.929 229.826 191.963 230.5H189.679C189.615 230.064 189.444 229.714 189.168 229.449C188.895 229.18 188.537 229.045 188.094 229.045C187.719 229.045 187.391 229.148 187.111 229.352C186.834 229.553 186.618 229.847 186.463 230.233C186.308 230.619 186.23 231.087 186.23 231.636C186.23 232.193 186.306 232.667 186.457 233.057C186.613 233.447 186.83 233.744 187.111 233.949C187.391 234.153 187.719 234.256 188.094 234.256C188.37 234.256 188.618 234.199 188.838 234.085C189.062 233.972 189.245 233.807 189.389 233.591C189.537 233.371 189.634 233.108 189.679 232.801H191.963C191.925 233.468 191.743 234.055 191.418 234.562C191.096 235.066 190.651 235.46 190.082 235.744C189.514 236.028 188.842 236.17 188.065 236.17ZM193.513 236V227.273H195.933V236H193.513ZM194.729 226.148C194.369 226.148 194.06 226.028 193.803 225.79C193.549 225.547 193.422 225.258 193.422 224.92C193.422 224.587 193.549 224.301 193.803 224.062C194.06 223.82 194.369 223.699 194.729 223.699C195.089 223.699 195.395 223.82 195.649 224.062C195.907 224.301 196.036 224.587 196.036 224.92C196.036 225.258 195.907 225.547 195.649 225.79C195.395 226.028 195.089 226.148 194.729 226.148ZM201.815 236.17C200.933 236.17 200.17 235.983 199.526 235.608C198.885 235.229 198.391 234.703 198.043 234.028C197.694 233.35 197.52 232.564 197.52 231.67C197.52 230.769 197.694 229.981 198.043 229.307C198.391 228.629 198.885 228.102 199.526 227.727C200.17 227.348 200.933 227.159 201.815 227.159C202.698 227.159 203.459 227.348 204.099 227.727C204.743 228.102 205.24 228.629 205.588 229.307C205.937 229.981 206.111 230.769 206.111 231.67C206.111 232.564 205.937 233.35 205.588 234.028C205.24 234.703 204.743 235.229 204.099 235.608C203.459 235.983 202.698 236.17 201.815 236.17ZM201.827 234.295C202.228 234.295 202.563 234.182 202.832 233.955C203.101 233.723 203.304 233.409 203.44 233.011C203.58 232.614 203.651 232.161 203.651 231.653C203.651 231.146 203.58 230.693 203.44 230.295C203.304 229.898 203.101 229.583 202.832 229.352C202.563 229.121 202.228 229.006 201.827 229.006C201.421 229.006 201.08 229.121 200.804 229.352C200.531 229.583 200.325 229.898 200.185 230.295C200.048 230.693 199.98 231.146 199.98 231.653C199.98 232.161 200.048 232.614 200.185 233.011C200.325 233.409 200.531 233.723 200.804 233.955C201.08 234.182 201.421 234.295 201.827 234.295ZM209.099 236.148C208.724 236.148 208.402 236.015 208.134 235.75C207.868 235.481 207.736 235.159 207.736 234.784C207.736 234.413 207.868 234.095 208.134 233.83C208.402 233.564 208.724 233.432 209.099 233.432C209.463 233.432 209.781 233.564 210.054 233.83C210.327 234.095 210.463 234.413 210.463 234.784C210.463 235.034 210.399 235.263 210.27 235.472C210.145 235.676 209.98 235.841 209.776 235.966C209.571 236.087 209.346 236.148 209.099 236.148ZM209.099 230.034C208.724 230.034 208.402 229.902 208.134 229.636C207.868 229.371 207.736 229.049 207.736 228.67C207.736 228.299 207.868 227.983 208.134 227.722C208.402 227.456 208.724 227.324 209.099 227.324C209.463 227.324 209.781 227.456 210.054 227.722C210.327 227.983 210.463 228.299 210.463 228.67C210.463 228.924 210.399 229.155 210.27 229.364C210.145 229.568 209.98 229.731 209.776 229.852C209.571 229.973 209.346 230.034 209.099 230.034Z" fill="#4D6FFB"/>
</g>
<defs>
<radialGradient id="paint0_radial_2_36" cx="0" cy="0" r="1" gradientUnits="userSpaceOnUse" gradientTransform="translate(631.734 709.852) rotate(-90) scale(62.4377 58.072)">
<stop stop-color="#FFDD55"/>
<stop offset="0.1" stop-color="#FFDD55"/>
<stop offset="0.5" stop-color="#FF543E"/>
<stop offset="1" stop-color="#C837AB"/>
</radialGradient>
<radialGradient id="paint1_radial_2_36" cx="0" cy="0" r="1" gradientUnits="userSpaceOnUse" gradientTransform="translate(604.447 646.538) rotate(78.68) scale(27.91 115.046)">
<stop stop-color="#3771C8"/>
<stop offset="0.128" stop-color="#3771C8"/>
<stop offset="1" stop-color="#6600FF" stop-opacity="0"/>
</radialGradient>
<linearGradient id="paint2_linear_2_36" x1="4001.98" y1="7091.54" x2="4001.98" y2="356.208" gradientUnits="userSpaceOnUse">
<stop stop-color="#1FAF38"/>
<stop offset="1" stop-color="#60D669"/>
</linearGradient>
<clipPath id="clip0_2_36">
<rect width="1313" height="845" fill="white"/>
</clipPath>
<clipPath id="clip1_2_36">
<rect width="64" height="64" fill="white" transform="translate(621 504)"/>
</clipPath>
<clipPath id="clip2_2_36">
<rect width="63" height="63" fill="white" transform="translate(615 642)"/>
</clipPath>
<clipPath id="clip3_2_36">
<rect width="70" height="70" fill="white" transform="translate(622 355)"/>
</clipPath>
<clipPath id="clip4_2_36">
<rect width="57.0664" height="81.81" fill="white" transform="translate(525 227.988) rotate(-21.5785)"/>
</clipPath>
<clipPath id="clip5_2_36">
<rect width="122.321" height="133.075" fill="white" transform="translate(627.342 -14) rotate(11.417)"/>
</clipPath>
</defs>
</svg>
