<svg width="1245" height="845" viewBox="0 0 1245 845" fill="none" xmlns="http://www.w3.org/2000/svg">
<g clip-path="url(#clip0_52_5)">
<mask id="mask0_52_5" style="mask-type:luminance" maskUnits="userSpaceOnUse" x="0" y="0" width="1313" height="845">
<path d="M1313 0H0V845H1313V0Z" fill="white"/>
</mask>
<g mask="url(#mask0_52_5)">
<path d="M1027.67 599.54C1038.46 587.27 1050.7 576.353 1064.12 567.03" stroke="#A1B4FB" stroke-miterlimit="10" stroke-linecap="round"/>
<path d="M948 826.19C948 826.19 951.37 693.64 1022.34 607" stroke="#A1B4FB" stroke-miterlimit="10" stroke-linecap="round"/>
<path d="M952.53 778.71C952.53 778.71 924.47 736.04 924.33 706.42C924.19 676.8 946.13 697.57 952.53 683.1C958.93 668.63 952.67 641.76 964.53 632.17C972.8 625.51 975.01 644.63 990.18 628.29C1005.35 611.95 1018.43 582.12 1043.96 560.38C1069.49 538.64 1102.11 547.62 1091.64 567.08C1084.64 580.17 1057.37 597.33 1049.51 609.02C1041.65 620.71 1060.81 613.23 1057.51 625.87C1054.21 638.51 1016.94 658.94 1008.92 669.4C1004.56 675.08 1005.69 678.51 1007.46 680.4C1010.88 683.99 1020.03 683.18 1017.93 691.25C1015.83 699.32 993.61 712.25 978.42 723.35C971.628 728.274 965.439 733.98 959.98 740.35" stroke="#A1B4FB" stroke-miterlimit="10"/>
<path d="M1032.38 616.85C1028.97 618.06 1019.44 623.95 1022.7 628.46C1025.7 632.56 1037.82 625.02 1038.5 619.37C1038.71 617.71 1036.99 615.23 1032.38 616.85Z" stroke="#A1B4FB" stroke-miterlimit="10"/>
<path d="M973.73 660.28C973.73 660.28 972.63 675.37 976.05 688.03" stroke="#A1B4FB" stroke-miterlimit="10" stroke-linecap="round"/>
<path d="M932.37 825.35C932.37 825.35 929.37 768.28 892.18 726.16" stroke="#A1B4FB" stroke-miterlimit="10" stroke-linecap="round"/>
<path d="M925.93 790.56C928.851 781.06 930.123 771.13 929.69 761.2C928.37 727.32 918.97 756.03 909.2 735.92C903.59 724.36 890 705.43 878.76 713.92C864.76 724.45 914.76 757.44 907.48 764.28C897.71 773.47 921.48 788.79 930.29 809.44" stroke="#A1B4FB" stroke-miterlimit="10"/>
<path d="M114.33 825.32C114.33 825.32 104.76 796.75 76.67 770.2C48.58 743.65 111.27 748.88 120.2 807.09C120.2 807.09 122.5 757.18 135.52 759.48C148.54 761.78 137.05 809.07 137.05 809.07C137.05 809.07 159.84 774.71 170.99 783.48C180.18 790.78 144.37 808.48 141.69 825.35" fill="#D6E1E9"/>
<path d="M473.88 786.03C473.88 786.03 492.71 740.03 514.67 753.35C536.63 766.67 510.08 806.94 510.08 806.94C510.08 806.94 540.2 774.8 553.48 786.03C566.76 797.26 540.48 817.43 540.48 817.43C540.48 817.43 564.48 804.67 572.65 810.54C580.82 816.41 569.84 825.35 569.84 825.35H473.9L473.88 786.03Z" fill="#D6E1E9"/>
<path d="M307.86 153.6H557.46C557.46 153.6 532.16 126.54 498.46 116.84C464.76 107.14 452.88 136.11 452.88 136.11C452.88 136.11 426.88 96.11 387.01 96.16C342.07 96.27 338.01 136.5 338.01 136.5C338.01 136.5 302.25 120.16 307.86 153.6Z" fill="#D6E1E9"/>
<path opacity="0.5" d="M1147.61 351.97C1147.61 351.97 1121.06 317.63 1089.4 310.48C1057.74 303.33 1045.86 333.48 1045.86 333.48C1045.86 333.48 1013.56 315.94 988.67 317.71C963.78 319.48 970.29 351.93 970.29 351.93L1147.61 351.97Z" fill="#D6E1E9"/>
<path opacity="0.6" d="M774.33 393.12C774.332 394.794 773.837 396.431 772.908 397.824C771.98 399.217 770.658 400.303 769.112 400.944C767.566 401.586 765.864 401.754 764.222 401.428C762.58 401.102 761.072 400.296 759.888 399.112C758.704 397.928 757.898 396.42 757.572 394.778C757.246 393.136 757.414 391.434 758.056 389.888C758.697 388.342 759.783 387.02 761.176 386.092C762.569 385.163 764.206 384.668 765.88 384.67C768.12 384.673 770.268 385.564 771.852 387.148C773.436 388.732 774.327 390.88 774.33 393.12Z" fill="#D6E1E9"/>
<path opacity="0.4" d="M1086.36 716.62C1086.36 717.459 1086.11 718.278 1085.65 718.976C1085.18 719.673 1084.52 720.216 1083.74 720.537C1082.97 720.858 1082.12 720.942 1081.29 720.779C1080.47 720.615 1079.71 720.211 1079.12 719.618C1078.53 719.025 1078.13 718.27 1077.96 717.447C1077.8 716.625 1077.88 715.772 1078.2 714.997C1078.52 714.223 1079.07 713.561 1079.76 713.095C1080.46 712.629 1081.28 712.38 1082.12 712.38C1083.24 712.38 1084.32 712.827 1085.12 713.622C1085.91 714.417 1086.36 715.495 1086.36 716.62Z" fill="#D6E1E9"/>
<path opacity="0.4" d="M156.71 458.6C156.71 459.763 156.365 460.9 155.719 461.867C155.073 462.834 154.155 463.587 153.08 464.032C152.006 464.477 150.823 464.594 149.683 464.367C148.542 464.14 147.495 463.58 146.672 462.758C145.85 461.935 145.29 460.888 145.063 459.747C144.836 458.606 144.953 457.424 145.398 456.35C145.843 455.275 146.596 454.357 147.563 453.711C148.53 453.065 149.667 452.72 150.83 452.72C152.39 452.72 153.885 453.339 154.988 454.442C156.091 455.545 156.71 457.041 156.71 458.6Z" fill="#D6E1E9"/>
<path opacity="0.4" d="M143.19 166.26C143.19 167.423 142.845 168.56 142.199 169.527C141.553 170.494 140.635 171.247 139.56 171.692C138.486 172.137 137.303 172.254 136.163 172.027C135.022 171.8 133.975 171.24 133.152 170.418C132.33 169.595 131.77 168.548 131.543 167.407C131.316 166.267 131.433 165.084 131.878 164.01C132.323 162.935 133.076 162.017 134.043 161.371C135.01 160.725 136.147 160.38 137.31 160.38C138.869 160.38 140.365 160.999 141.468 162.102C142.571 163.205 143.19 164.701 143.19 166.26Z" fill="#D6E1E9"/>
<path d="M353.55 210.71C353.55 212.094 353.139 213.448 352.37 214.599C351.601 215.75 350.508 216.647 349.229 217.177C347.95 217.707 346.542 217.846 345.184 217.576C343.826 217.305 342.579 216.639 341.6 215.66C340.621 214.681 339.955 213.434 339.684 212.076C339.414 210.718 339.553 209.31 340.083 208.031C340.613 206.752 341.51 205.659 342.661 204.89C343.812 204.121 345.166 203.71 346.55 203.71C348.407 203.71 350.187 204.448 351.5 205.76C352.812 207.073 353.55 208.854 353.55 210.71Z" fill="#D6E1E9"/>
<path d="M1020.49 189.99C1020.49 191.158 1020.14 192.3 1019.49 193.271C1018.84 194.241 1017.91 194.997 1016.83 195.443C1015.75 195.889 1014.57 196.004 1013.42 195.775C1012.28 195.546 1011.22 194.982 1010.4 194.155C1009.57 193.329 1009.01 192.275 1008.78 191.129C1008.56 189.983 1008.67 188.795 1009.12 187.716C1009.57 186.637 1010.33 185.714 1011.3 185.065C1012.27 184.416 1013.41 184.07 1014.58 184.07C1015.36 184.07 1016.13 184.223 1016.84 184.521C1017.56 184.818 1018.21 185.255 1018.76 185.805C1019.31 186.354 1019.75 187.007 1020.04 187.725C1020.34 188.443 1020.49 189.213 1020.49 189.99Z" fill="#D6E1E9"/>
<path opacity="0.4" d="M1006.56 539.13C1006.56 540.746 1006.08 542.327 1005.19 543.672C1004.29 545.017 1003.02 546.065 1001.52 546.685C1000.03 547.305 998.388 547.468 996.802 547.154C995.217 546.84 993.76 546.063 992.616 544.921C991.473 543.778 990.694 542.323 990.378 540.738C990.062 539.152 990.223 537.509 990.841 536.016C991.459 534.522 992.506 533.246 993.85 532.348C995.194 531.449 996.774 530.97 998.39 530.97C999.462 530.969 1000.52 531.179 1001.52 531.588C1002.51 531.998 1003.41 532.599 1004.17 533.356C1004.93 534.114 1005.53 535.014 1005.94 536.005C1006.35 536.996 1006.56 538.058 1006.56 539.13Z" fill="#D6E1E9"/>
<path d="M1137.99 423.71C1137.99 425.06 1137.59 426.38 1136.83 427.502C1136.08 428.624 1135.02 429.498 1133.77 430.013C1132.52 430.528 1131.15 430.662 1129.82 430.398C1128.5 430.133 1127.28 429.482 1126.33 428.526C1125.37 427.57 1124.72 426.353 1124.46 425.029C1124.2 423.704 1124.33 422.331 1124.85 421.084C1125.37 419.837 1126.24 418.77 1127.37 418.02C1128.49 417.27 1129.81 416.87 1131.16 416.87C1132.06 416.87 1132.95 417.047 1133.78 417.391C1134.61 417.735 1135.36 418.239 1135.99 418.874C1136.63 419.509 1137.13 420.263 1137.47 421.093C1137.82 421.923 1137.99 422.812 1137.99 423.71Z" fill="#D6E1E9"/>
<path d="M675.07 192.28C675.072 193.02 674.854 193.744 674.445 194.361C674.035 194.977 673.451 195.458 672.768 195.742C672.085 196.027 671.333 196.103 670.606 195.959C669.88 195.816 669.213 195.461 668.689 194.938C668.165 194.415 667.808 193.749 667.663 193.023C667.517 192.298 667.591 191.545 667.874 190.861C668.157 190.177 668.636 189.592 669.251 189.181C669.866 188.77 670.59 188.55 671.33 188.55C672.32 188.55 673.27 188.943 673.971 189.642C674.672 190.341 675.067 191.29 675.07 192.28Z" fill="#D6E1E9"/>
<path d="M617.22 762.54C617.22 763.201 617.024 763.846 616.657 764.396C616.29 764.945 615.768 765.373 615.158 765.626C614.548 765.879 613.876 765.945 613.228 765.816C612.58 765.687 611.985 765.369 611.518 764.902C611.051 764.435 610.733 763.84 610.604 763.192C610.475 762.544 610.541 761.872 610.794 761.262C611.047 760.652 611.475 760.13 612.024 759.763C612.574 759.396 613.219 759.2 613.88 759.2C614.319 759.199 614.754 759.284 615.16 759.452C615.565 759.619 615.934 759.865 616.245 760.175C616.555 760.486 616.801 760.855 616.968 761.26C617.136 761.666 617.221 762.101 617.22 762.54Z" fill="#D6E1E9"/>
<path d="M237.99 711.9C237.988 712.902 237.689 713.882 237.131 714.714C236.572 715.546 235.78 716.195 234.853 716.577C233.927 716.959 232.908 717.058 231.925 716.861C230.942 716.665 230.039 716.181 229.331 715.471C228.623 714.762 228.142 713.859 227.947 712.875C227.752 711.892 227.853 710.873 228.237 709.948C228.621 709.022 229.271 708.23 230.104 707.674C230.938 707.117 231.918 706.82 232.92 706.82C233.587 706.82 234.247 706.951 234.863 707.207C235.478 707.462 236.038 707.837 236.509 708.309C236.979 708.78 237.353 709.34 237.607 709.957C237.861 710.573 237.991 711.233 237.99 711.9Z" fill="#D6E1E9"/>
<path d="M114 272.82V317.76H158.94V272.82H114ZM153.9 312.72H119.04V277.86H153.9V312.72Z" fill="#D6E1E9"/>
<path d="M121.54 297.31L136.47 307.04L165 275.06L153.31 266L135.45 297.97L121.54 297.31Z" fill="#4D6FFB"/>
<path d="M114 341.22V386.12H158.94V341.22H114ZM153.9 381.12H119.04V346.27H153.9V381.12Z" fill="#D6E1E9"/>
<path d="M121.54 365.71L136.47 375.44L165 343.46L153.31 334.4L135.45 366.38L121.54 365.71Z" fill="#4D6FFB"/>
<path d="M299.85 426H247V429.64H299.85V426Z" fill="#D6E1E9"/>
<path d="M267.55 435.87H247V439.51H267.55V435.87Z" fill="#D6E1E9"/>
<path d="M307.51 435.87H273.74V439.51H307.51V435.87Z" fill="#D6E1E9"/>
<path d="M285.36 445.73H247V449.37H285.36V445.73Z" fill="#D6E1E9"/>
<path d="M1108.01 54C1095.75 53.9972 1083.76 57.6315 1073.56 64.4431C1063.37 71.2547 1055.42 80.9376 1050.72 92.2672C1046.03 103.597 1044.8 116.064 1047.19 128.092C1049.58 140.12 1055.49 151.169 1064.16 159.841C1072.83 168.512 1083.88 174.417 1095.91 176.809C1107.94 179.201 1120.4 177.972 1131.73 173.278C1143.06 168.583 1152.75 160.635 1159.56 150.437C1166.37 140.239 1170 128.25 1170 115.986C1170 99.5475 1163.46 83.7832 1151.84 72.1594C1140.22 60.5355 1124.45 54.0037 1108.01 54ZM1108.01 170.144C1097.3 170.144 1086.83 166.967 1077.93 161.016C1069.02 155.065 1062.08 146.607 1057.98 136.711C1053.88 126.815 1052.81 115.926 1054.9 105.42C1056.99 94.9149 1062.14 85.2649 1069.72 77.6909C1077.29 70.1168 1086.94 64.9588 1097.45 62.8691C1107.95 60.7794 1118.84 61.8519 1128.74 65.951C1138.64 70.05 1147.09 76.9916 1153.04 85.8977C1159 94.8039 1162.17 105.275 1162.17 115.986C1162.17 123.099 1160.77 130.142 1158.05 136.713C1155.33 143.285 1151.34 149.256 1146.31 154.285C1141.28 159.315 1135.31 163.304 1128.74 166.025C1122.17 168.746 1115.13 170.145 1108.01 170.144Z" fill="#D6E1E9"/>
<path d="M68.81 562C64.6938 562 60.6699 563.221 57.2475 565.508C53.8251 567.795 51.1579 571.046 49.5831 574.849C48.0083 578.652 47.5968 582.836 48.4006 586.873C49.2044 590.91 51.1873 594.618 54.0987 597.528C57.01 600.438 60.7189 602.419 64.7563 603.221C68.7937 604.023 72.9782 603.61 76.7806 602.033C80.5829 600.456 83.8323 597.788 86.1178 594.364C88.4032 590.941 89.622 586.916 89.62 582.8C89.6174 577.283 87.4237 571.992 83.5213 568.092C79.619 564.191 74.3275 562 68.81 562ZM68.81 600C65.4003 600 62.0671 598.989 59.232 597.095C56.3969 595.2 54.1872 592.508 52.8823 589.357C51.5774 586.207 51.2361 582.741 51.9013 579.397C52.5665 576.052 54.2084 572.981 56.6195 570.569C59.0305 568.158 62.1024 566.516 65.4466 565.851C68.7909 565.186 72.2572 565.527 75.4074 566.832C78.5576 568.137 81.2502 570.347 83.1446 573.182C85.0389 576.017 86.05 579.35 86.05 582.76C86.0566 585.028 85.6154 587.274 84.7519 589.371C83.8883 591.468 82.6193 593.374 81.0176 594.979C79.4159 596.585 77.5132 597.858 75.4183 598.727C73.3234 599.595 71.0778 600.041 68.81 600.04V600Z" fill="#D6E1E9"/>
<path d="M81.0701 580.51H71.1101V570.55H66.5201V580.51H56.5601V585.1H66.5201V595.06H71.1101V585.1H81.0701V580.51Z" fill="#A1B4FB"/>
<path d="M997.29 390.28H917.5C915.078 390.283 912.755 391.247 911.043 392.961C909.332 394.674 908.37 396.998 908.37 399.42V439.36C908.37 440.559 908.606 441.746 909.065 442.854C909.524 443.962 910.196 444.968 911.044 445.816C911.892 446.664 912.898 447.336 914.006 447.795C915.114 448.254 916.301 448.49 917.5 448.49H920.59L908.37 472.56L933.21 453.85C937.821 450.376 943.437 448.495 949.21 448.49H997.21C999.632 448.49 1001.96 447.528 1003.67 445.816C1005.38 444.105 1006.35 441.782 1006.35 439.36V399.41C1006.35 397.001 1005.4 394.689 1003.7 392.979C1002 391.269 999.699 390.298 997.29 390.28Z" fill="#4D6FFB"/>
<path d="M947.7 402.73H993.52" stroke="white" stroke-miterlimit="10" stroke-linecap="round"/>
<path d="M921.27 402.73H942.15" stroke="white" stroke-miterlimit="10" stroke-linecap="round"/>
<path d="M921.27 413.07H993.52" stroke="white" stroke-miterlimit="10" stroke-linecap="round"/>
<path d="M969.53 423.41H993.52" stroke="white" stroke-miterlimit="10" stroke-linecap="round"/>
<path d="M921.27 423.41H963.4" stroke="white" stroke-miterlimit="10" stroke-linecap="round"/>
<path d="M921.27 433.75H956.5" stroke="white" stroke-miterlimit="10" stroke-linecap="round"/>
<path d="M714.32 604.86H577.03V742.15H714.32V604.86Z" fill="#C9CEFF"/>
<path d="M641.94 604.86L577.03 644.22V604.86H641.94Z" fill="#ABB3FF"/>
<path d="M724.31 464.48H587.02V601.77H724.31V464.48Z" fill="#FCC835"/>
<path d="M724.3 472.56L587.01 493.2V464.48H724.3V472.56Z" fill="#DDBA55"/>
<path d="M714.32 324.1H577.03V461.39H714.32V324.1Z" fill="#94A8F4"/>
<path d="M597.363 169.16L469.683 219.958L520.481 347.637L648.16 296.84L597.363 169.16Z" fill="#FFEAEA"/>
<path d="M551.63 334.65L521.03 346.9L470 219.45L473.63 218L551.63 334.65Z" fill="#FFC7C7"/>
<path d="M454.99 742.15H765.4" stroke="black" stroke-miterlimit="10"/>
<path d="M413.92 646.88V706.36H335.03V765.84H256.15V825.32H335.03H413.92H492.8V765.84V706.36V646.88H413.92Z" fill="#A1B4FB"/>
<path d="M335.03 765.84L272.63 783.48L256.15 765.84H335.03Z" fill="black"/>
<path d="M492.8 646.88L413.92 666.54V646.88H492.8Z" fill="black"/>
<path d="M1005.54 768.62L1027.81 792.24L997.2 825.35L1002.65 795.81L990.23 783.93L1005.54 768.62Z" fill="#D46B9A"/>
<path d="M776.99 788.53L773.25 808.5L743.19 825.35H792.38L799.14 791.55L776.99 788.53Z" fill="#D46B9A"/>
<path d="M828.46 433.52C824.474 443.075 821.391 452.981 819.25 463.11C816.67 475.43 833.46 472.75 835.25 474.93C837.04 477.11 839.13 488.64 839.13 488.64L854.52 482.08C854.52 482.08 849.46 475.08 850.65 468.38C851.84 461.68 862.1 443.84 855.81 433.91C851.29 426.79 832.57 423.59 828.46 433.52Z" fill="#D46B9A"/>
<path d="M999.28 757.12C995.28 750.37 994.48 738.62 989.71 731.47C984.94 724.32 973.6 732.08 966.45 724.14C959.3 716.2 963.27 702.8 957.51 697.48C951.75 692.16 943.41 693.35 939.23 687.58C936.12 683.28 937.58 646.41 938.52 628.06C938.633 625.881 938.937 623.716 939.43 621.59C942.475 607.54 941.048 592.889 935.35 579.69L857.81 627.44C857.81 627.44 810.38 678.3 799.81 691.44C789.24 704.58 775.51 792.14 775.51 792.14L801.51 796.38C801.51 796.38 802.06 790.89 806.6 781.04C811.14 771.19 816.19 771.71 822.5 754.29C828.81 736.87 833.99 718.83 837.5 711.7C841.01 704.57 852.91 705.95 862.5 700.4C872.09 694.85 871.17 680.9 883.28 673.83C885.09 672.78 887.28 671.58 889.69 670.27C894.49 684.99 901.92 706.43 907.2 715.6C917.73 733.88 991.2 788.68 991.2 788.68L1008.77 771.26C1005.37 766.71 1002.2 761.991 999.28 757.12Z" fill="#2F3789"/>
<path d="M940.09 618.31L883.35 632.12L875.71 616.42L935.35 579.71C940.59 591.858 942.235 605.255 940.09 618.31Z" fill="black"/>
<path d="M879.44 493.11C872.69 487.11 854.51 482.11 854.51 482.11L839.12 488.67L840.95 501.67L815.08 525.71L841.9 555.31L847.52 548.31L860.19 638.16C912.82 629.84 942.19 589.9 942.19 589.9C942.19 589.9 886.2 499.07 879.44 493.11Z" fill="#80DCEE"/>
<path d="M815.65 526.31L802.76 537.51L733.14 527.97C733.14 527.97 738.3 506.12 724.3 505.62V536.22L801.61 560.22C803.462 560.794 805.417 560.958 807.339 560.701C809.261 560.444 811.104 559.771 812.74 558.73L832.99 545.47L815.65 526.31Z" fill="#D46B9A"/>
<path d="M847.53 548.29L862.42 530.97L849.73 563.93L847.53 548.29Z" fill="black"/>
<path d="M851.32 472.56L847.32 470.2L846.7 462.48C851.05 462.26 852.79 452.86 849.64 450.98C849.057 450.606 848.369 450.431 847.678 450.482C846.988 450.532 846.332 450.805 845.81 451.26L845.24 444.13C845.24 444.13 839.69 448.02 836.24 447.33C832.79 446.64 827.78 438.59 827.78 438.59C825.303 436.94 823.264 434.713 821.839 432.1C820.414 429.486 819.645 426.566 819.6 423.59C819.18 413.06 829.03 426.36 829.03 426.36C829.03 426.36 828.03 419.58 832.49 418.74C836.95 417.9 838.49 424.74 838.49 424.74C838.49 424.74 851.96 420.17 859.04 425.74C866.12 431.31 859.59 438.64 859.59 438.64C859.59 438.64 865 438.22 866.8 444.88C868.6 451.54 851.32 472.56 851.32 472.56Z" fill="#1F1B55"/>
<path d="M903.99 709.13C896.99 693.49 889.7 670.26 889.7 670.26C889.7 670.26 884.9 653.46 883.31 647.71" stroke="black" stroke-linecap="round" stroke-linejoin="round"/>
<path d="M850.93 491.9L815.08 525.69L841.9 555.29" stroke="black" stroke-linecap="round" stroke-linejoin="round"/>
<path d="M415.49 349.79L425.76 341.7L445.88 365.33L423.27 385.21L415.49 349.79Z" fill="#FCC835"/>
<path d="M487.71 266.04L447.24 328.23L426.92 343.23L441.4 360.04L458.93 346.36C462.355 343.711 465.098 340.283 466.93 336.36L493.16 279.57L487.71 266.04Z" fill="#D44659"/>
<path d="M293.19 703.18L280.48 738.45L320.12 765.84L308.25 730.5L317.06 709.44L293.19 703.18Z" fill="#D44659"/>
<path d="M432.84 614.46L426.72 646.88H471.14L451.48 635.01L455.31 616.75L432.84 614.46Z" fill="#D44659"/>
<path d="M472.45 526.21C465.08 512.89 414.66 464.48 414.66 464.48L338.99 479.33C338.99 479.33 321.99 505.74 321.41 535.94C321.216 543.351 321.55 550.766 322.41 558.13C322.41 558.13 323.9 573.6 318.98 583.97C314.06 594.34 310.43 597.97 309.34 603.08C308.25 608.19 309.71 618.72 310.07 625.08C310.43 631.44 305.52 639.46 301.88 646.73C298.24 654 301.69 663.41 298.15 681.08C294.31 693.95 290.47 705.86 290.47 705.86L323.04 716.96C323.04 716.96 358.34 627.72 370.14 595.31C377.94 573.88 384.3 552.5 389.14 534.67C402.88 538.97 418.47 543.46 429.54 545.51C432.85 546.12 433.39 545.79 432.38 549C430.51 555 427.03 562.11 428.49 572.27C429.4 578.68 432.93 581.11 432.95 588.9C432.97 596.69 430.95 617.17 430.95 617.17L456.27 621.86C456.27 621.86 479.83 539.54 472.45 526.21Z" fill="#2F3789"/>
<path d="M389.99 469.32L385.25 502.1L324.41 514.24C327.534 501.952 332.447 490.19 338.99 479.33L389.99 469.32Z" fill="black"/>
<path d="M422.84 352.01C422.84 352.01 424.64 338.88 430.03 334.39C435.42 329.9 444.34 331.44 444.17 317.59C444 303.74 437.01 284.92 419.4 288.93C400.46 293.25 407.92 316.23 410.4 324.32C412.88 332.41 404.83 346.25 404.83 346.25L427.83 363.87L422.84 352.01Z" fill="#D44659"/>
<path d="M404.87 346.25C404.87 346.25 389.76 349.37 375.87 375.74C361.98 402.11 326.4 495.48 326.4 495.48C326.4 495.48 334.63 504.01 364.72 504.01C411.17 504.01 431.72 476.83 431.72 476.83L427.92 363.83L404.87 346.25Z" fill="#FCC835"/>
<path d="M429.96 425.69L403.5 396.59L429.18 402.48L429.96 425.69Z" fill="black"/>
<path d="M507.04 314.32C507.04 314.32 500.42 317.32 502.16 328.05C503.012 332.602 504.89 336.901 507.65 340.62L460.29 382.62L446.09 374.97L431.68 402.97L458.36 409.41C460.532 409.934 462.809 409.821 464.918 409.083C467.027 408.345 468.879 407.014 470.25 405.25L518.56 343.04L507.04 314.32Z" fill="#D44659"/>
<path d="M418.63 358.04L449.42 376.18L431.09 412.48L398.03 393.48C398.03 393.48 386.76 381.43 394.19 366.25C401.62 351.07 418.63 358.04 418.63 358.04Z" fill="#FCC835"/>
<path d="M440.27 290.33C438.6 294.18 429.04 295.5 429.04 295.5C429.04 295.5 432.49 302.5 427.7 303.83C424.519 304.567 421.189 304.309 418.16 303.09C418.567 305.287 418.775 307.516 418.78 309.75C417.6 308.14 414.3 306.15 412.26 308.11C409.4 310.88 413.46 317.5 417.04 318.59C415.197 322.756 413.079 326.795 410.7 330.68C410.7 330.68 391.88 315.8 391.89 304.5C391.89 295.65 399.89 295.4 399.89 295.4C399.89 295.4 402.18 280.85 409.27 279.03C416.36 277.21 415.49 284.87 415.49 284.87C415.49 284.87 426.08 268.87 431.63 271.37C437.18 273.87 431.63 283.53 431.63 283.53C431.63 283.53 442.64 284.87 440.27 290.33Z" fill="#1F1B55"/>
<path d="M376.27 577.71C381.2 563.8 389.12 534.71 389.12 534.71L394.8 512.23" stroke="black" stroke-miterlimit="10" stroke-linecap="round"/>
<path d="M855.99 143.84C835.303 143.838 815.08 149.971 797.879 161.462C780.678 172.954 767.271 189.289 759.353 208.401C751.436 227.512 749.364 248.543 753.399 268.832C757.435 289.121 767.396 307.759 782.024 322.386C796.652 337.014 815.289 346.975 835.578 351.011C855.867 355.046 876.898 352.974 896.01 345.057C915.121 337.139 931.456 323.732 942.948 306.531C954.439 289.33 960.572 269.107 960.57 248.42C960.57 220.684 949.552 194.083 929.939 174.471C910.327 154.858 883.726 143.84 855.99 143.84ZM855.99 343.06C837.271 343.064 818.972 337.517 803.405 327.12C787.839 316.723 775.706 301.944 768.54 284.651C761.374 267.358 759.497 248.329 763.146 229.969C766.796 211.609 775.808 194.744 789.042 181.506C802.277 168.269 819.14 159.253 837.499 155.6C855.858 151.947 874.888 153.82 892.183 160.982C909.477 168.145 924.259 180.275 934.659 195.839C945.059 211.403 950.61 229.701 950.61 248.42C950.61 273.517 940.642 297.586 922.898 315.333C905.154 333.081 881.087 343.055 855.99 343.06Z" fill="#D6E1E9"/>
<path d="M845.18 165.98C845.18 165.98 841.51 166.68 843.08 150.98C844.65 135.28 861.46 132.26 879.31 146.98C879.31 146.98 877.56 135.98 890.16 138.23C902.76 140.48 908.97 164.94 891.73 161.85C891.73 161.85 894.88 176.73 887.73 178.48C887.73 178.48 903.16 205.24 868.67 207L845.18 165.98Z" fill="#1F1B55"/>
<path d="M795.32 211.81L781.26 215.18L742.99 167.59L744.14 155.59L738.57 147.59L734.45 150.47L723.15 132.57C723.15 132.57 714.63 138.87 727.64 151.99L717.8 162.1L725.89 173.39L732.95 173.81L770.99 235.71C771.901 237.195 773.25 238.36 774.851 239.046C776.452 239.732 778.227 239.905 779.93 239.54L800.32 235.18L795.32 211.81Z" fill="#FCC835"/>
<path d="M927.09 244.65L904.51 269.95L889.76 258.23L892.04 335.93C878.763 341.387 864.42 343.759 850.093 342.867C835.766 341.975 821.828 337.842 809.33 330.78L824.24 236.89L799.35 242.89L792.41 211.33L825.53 203.92C830.186 202.881 835.001 202.769 839.7 203.59L876.24 209.95C883.257 211.172 889.84 214.186 895.35 218.7L927.09 244.65Z" fill="#D46B9A"/>
<path d="M926.33 245.5L940.78 257.35C941.366 257.831 941.846 258.427 942.193 259.101C942.54 259.774 942.744 260.512 942.795 261.268C942.846 262.024 942.741 262.783 942.487 263.497C942.234 264.211 941.836 264.865 941.32 265.42L899.17 310.62C899.17 310.62 903.39 325.34 891.95 332.88L891.13 305L916.48 267L911.32 262.31L926.33 245.5Z" fill="#FCC835"/>
<path d="M870.99 177.8C873.89 174.8 875.79 169.93 873.5 167.68C870.8 165.04 867.62 167.96 866.03 169.83C865.5 167.983 865.334 166.05 865.54 164.14C861.03 163.86 856.27 163.14 853.17 161.65C851.608 160.943 850.25 159.852 849.222 158.48C848.194 157.107 847.53 155.498 847.29 153.8C846.026 154.713 845.14 156.058 844.8 157.58C844.8 157.58 838.85 180.16 840.24 187.86C841.63 195.56 856.87 193.27 856.87 193.27L850.42 209.11C850.42 209.11 851.76 214.9 859.42 214.31C868.42 213.61 868.81 207.99 868.81 207.99C868.81 207.99 875.57 184.7 876.81 180.71C874.676 180.19 872.687 179.195 870.99 177.8Z" fill="#FCC835"/>
<path d="M824.24 236.89L826.53 223.85L813.25 239.54L824.24 236.89Z" fill="black"/>
<path d="M889.59 246.33L890.5 277.27" stroke="black" stroke-width="1.09" stroke-linecap="round" stroke-linejoin="round"/>
<path d="M0 825H1313" stroke="black" stroke-miterlimit="10"/>
<path d="M1206.29 686H1069V823.29H1206.29V686Z" fill="#C9CEFF"/>
<path d="M1133.91 686L1069 725.36V686H1133.91Z" fill="#ABB3FF"/>
<path d="M720.83 835.31H919.74C920.343 835.309 920.941 835.427 921.498 835.657C922.056 835.887 922.562 836.225 922.989 836.652C923.415 837.078 923.753 837.584 923.983 838.142C924.213 838.699 924.331 839.297 924.33 839.9C924.331 840.504 924.214 841.102 923.984 841.66C923.753 842.218 923.415 842.725 922.989 843.152C922.563 843.579 922.056 843.918 921.499 844.15C920.941 844.381 920.344 844.5 919.74 844.5H798.74" stroke="black" stroke-miterlimit="10"/>
<mask id="mask1_52_5" style="mask-type:luminance" maskUnits="userSpaceOnUse" x="621" y="504" width="64" height="64">
<path d="M685 504H621V568H685V504Z" fill="white"/>
</mask>
<g mask="url(#mask1_52_5)">
<path d="M685 536C685 518.327 670.673 504 653 504C635.327 504 621 518.327 621 536C621 551.972 632.702 565.211 648 567.611V545.25H639.875V536H648V528.95C648 520.93 652.778 516.5 660.087 516.5C663.588 516.5 667.25 517.125 667.25 517.125V525H663.215C659.24 525 658 527.467 658 529.997V536H666.875L665.456 545.25H658V567.611C673.298 565.211 685 551.972 685 536Z" fill="#1877F2"/>
<path d="M665.456 545.25L666.875 536H658V529.997C658 527.466 659.24 525 663.215 525H667.25V517.125C667.25 517.125 663.588 516.5 660.087 516.5C652.778 516.5 648 520.93 648 528.95V536H639.875V545.25H648V567.611C649.654 567.87 651.326 568 653 568C654.674 568 656.346 567.87 658 567.611V545.25H665.456Z" fill="white"/>
</g>
<mask id="mask2_52_5" style="mask-type:luminance" maskUnits="userSpaceOnUse" x="615" y="642" width="63" height="63">
<path d="M678 642H615V705H678V642Z" fill="white"/>
</mask>
<g mask="url(#mask2_52_5)">
<path d="M663.234 642H629.766C621.611 642 615 648.611 615 656.766V690.234C615 698.389 621.611 705 629.766 705H663.234C671.389 705 678 698.389 678 690.234V656.766C678 648.611 671.389 642 663.234 642Z" fill="url(#paint0_radial_52_5)"/>
<path d="M663.234 642H629.766C621.611 642 615 648.611 615 656.766V690.234C615 698.389 621.611 705 629.766 705H663.234C671.389 705 678 698.389 678 690.234V656.766C678 648.611 671.389 642 663.234 642Z" fill="url(#paint1_radial_52_5)"/>
<path d="M646.502 648.891C639.819 648.891 638.98 648.92 636.355 649.039C633.735 649.159 631.947 649.574 630.382 650.183C628.763 650.811 627.39 651.652 626.023 653.02C624.654 654.388 623.813 655.761 623.182 657.379C622.572 658.945 622.157 660.734 622.039 663.352C621.921 665.977 621.891 666.817 621.891 673.5C621.891 680.184 621.92 681.02 622.039 683.645C622.16 686.265 622.575 688.053 623.183 689.618C623.812 691.237 624.653 692.61 626.021 693.977C627.388 695.346 628.761 696.189 630.379 696.818C631.945 697.426 633.733 697.841 636.353 697.961C638.978 698.081 639.816 698.11 646.499 698.11C653.183 698.11 654.02 698.081 656.644 697.961C659.264 697.841 661.055 697.426 662.621 696.818C664.239 696.189 665.61 695.346 666.977 693.977C668.346 692.61 669.187 691.237 669.817 689.619C670.422 688.053 670.838 686.264 670.961 683.645C671.079 681.021 671.109 680.184 671.109 673.5C671.109 666.817 671.079 665.978 670.961 663.353C670.838 660.733 670.422 658.945 669.817 657.38C669.187 655.761 668.346 654.388 666.977 653.02C665.608 651.652 664.239 650.811 662.619 650.183C661.05 649.574 659.261 649.159 656.641 649.039C654.016 648.92 653.18 648.891 646.495 648.891H646.502ZM644.295 653.325C644.95 653.324 645.681 653.325 646.502 653.325C653.073 653.325 653.852 653.349 656.447 653.467C658.846 653.577 660.148 653.978 661.016 654.315C662.164 654.76 662.983 655.294 663.844 656.155C664.705 657.017 665.238 657.837 665.685 658.985C666.022 659.852 666.424 661.154 666.533 663.553C666.651 666.148 666.676 666.927 666.676 673.495C666.676 680.062 666.651 680.842 666.533 683.436C666.423 685.835 666.022 687.138 665.685 688.004C665.24 689.153 664.705 689.97 663.844 690.831C662.983 691.692 662.165 692.226 661.016 692.672C660.149 693.01 658.846 693.41 656.447 693.52C653.852 693.638 653.073 693.663 646.502 693.663C639.931 693.663 639.152 693.638 636.558 693.52C634.159 693.409 632.856 693.008 631.988 692.671C630.84 692.225 630.019 691.692 629.158 690.831C628.297 689.969 627.764 689.151 627.317 688.002C626.98 687.136 626.578 685.833 626.469 683.434C626.351 680.839 626.327 680.06 626.327 673.488C626.327 666.917 626.351 666.142 626.469 663.547C626.579 661.148 626.98 659.845 627.317 658.978C627.763 657.829 628.297 657.009 629.158 656.148C630.02 655.287 630.84 654.753 631.988 654.306C632.856 653.968 634.159 653.568 636.558 653.458C638.828 653.355 639.708 653.324 644.295 653.319V653.325ZM659.639 657.412C658.008 657.412 656.686 658.733 656.686 660.364C656.686 661.994 658.008 663.317 659.639 663.317C661.269 663.317 662.592 661.994 662.592 660.364C662.592 658.733 661.269 657.412 659.639 657.412ZM646.502 660.862C639.523 660.862 633.864 666.521 633.864 673.5C633.864 680.48 639.523 686.136 646.502 686.136C653.482 686.136 659.138 680.48 659.138 673.5C659.138 666.521 653.481 660.862 646.502 660.862ZM646.502 665.297C651.033 665.297 654.706 668.969 654.706 673.5C654.706 678.031 651.033 681.704 646.502 681.704C641.972 681.704 638.299 678.031 638.299 673.5C638.299 668.969 641.972 665.297 646.502 665.297Z" fill="white"/>
</g>
<mask id="mask3_52_5" style="mask-type:luminance" maskUnits="userSpaceOnUse" x="622" y="355" width="70" height="70">
<path d="M692 355H622V425H692V355Z" fill="white"/>
</mask>
<g mask="url(#mask3_52_5)">
<path d="M623.494 389.581C623.492 395.462 625.041 401.205 627.986 406.267L623.212 423.561L641.049 418.921C645.982 421.585 651.51 422.982 657.127 422.982H657.142C675.685 422.982 690.78 408.01 690.788 389.607C690.791 380.69 687.294 372.305 680.941 365.996C674.589 359.688 666.142 356.212 657.141 356.208C638.595 356.208 623.502 371.179 623.494 389.581Z" fill="url(#paint2_linear_52_5)"/>
<path d="M622.293 389.57C622.291 395.663 623.895 401.611 626.945 406.854L622 424.769L640.476 419.962C645.567 422.716 651.299 424.168 657.132 424.17H657.147C676.355 424.17 691.992 408.659 692 389.598C692.003 380.36 688.381 371.673 681.801 365.139C675.22 358.605 666.47 355.004 657.147 355C637.935 355 622.3 370.509 622.293 389.57ZM633.296 405.951L632.606 404.865C629.706 400.289 628.175 395.002 628.177 389.572C628.184 373.729 641.178 360.839 657.158 360.839C664.896 360.842 672.168 363.835 677.638 369.266C683.108 374.697 686.117 381.917 686.115 389.596C686.108 405.439 673.113 418.331 657.147 418.331H657.135C651.936 418.328 646.837 416.943 642.391 414.325L641.333 413.702L630.368 416.555L633.296 405.951Z" fill="white"/>
<path d="M648.435 375.118C647.783 373.679 647.096 373.65 646.476 373.625C645.968 373.603 645.387 373.605 644.807 373.605C644.226 373.605 643.282 373.821 642.485 374.685C641.686 375.55 639.437 377.641 639.437 381.892C639.437 386.143 642.557 390.252 642.992 390.829C643.428 391.405 649.017 400.409 657.869 403.872C665.225 406.751 666.722 406.178 668.319 406.034C669.916 405.89 673.472 403.944 674.197 401.926C674.923 399.909 674.923 398.179 674.705 397.818C674.488 397.458 673.907 397.242 673.036 396.81C672.165 396.378 667.883 394.287 667.085 393.999C666.287 393.711 665.706 393.567 665.125 394.432C664.545 395.296 662.877 397.242 662.369 397.818C661.861 398.396 661.353 398.468 660.482 398.035C659.611 397.602 656.806 396.69 653.478 393.747C650.89 391.456 649.142 388.628 648.634 387.763C648.126 386.899 648.579 386.431 649.016 386C649.407 385.613 649.887 384.991 650.323 384.487C650.757 383.982 650.902 383.622 651.192 383.046C651.483 382.469 651.338 381.964 651.12 381.532C650.902 381.1 649.21 376.826 648.435 375.118Z" fill="white"/>
</g>
<mask id="mask4_52_5" style="mask-type:luminance" maskUnits="userSpaceOnUse" x="525" y="207" width="84" height="98">
<path d="M578.067 207L525 227.988L555.088 304.064L608.155 283.077L578.067 207Z" fill="white"/>
</mask>
<g mask="url(#mask4_52_5)">
<path d="M561.92 278.556C565.229 280.49 568.4 282.652 571.409 285.026C574.084 287.319 575.498 289.033 577.997 292.083C579.445 293.742 580.292 294.073 581.623 293.546C583.074 292.972 583.344 291.733 583.254 290.016C583.005 286.301 582.838 283.456 583.205 280.561C583.954 274.955 585.528 269.614 587.109 264.454C587.517 263.009 590.442 254.375 590.892 248.298C590.892 248.298 591.709 241.494 588.613 233.667C585.718 226.346 580.718 222.451 580.718 222.451L573.019 228.164L573.237 244.007L572.694 246.418L572.571 246.865L572.397 247.431L572.065 248.358L571.544 249.563L568.387 255.199L559.402 266.527L561.92 278.556Z" fill="#34A853"/>
<path d="M543.1 266.11C548.509 271.477 556.246 275.015 561.934 278.556L572.401 247.44C572.401 247.44 571.062 252.166 566.029 254.156C560.423 256.373 554.124 253.688 551.892 248.044C550.361 244.173 551.638 240.593 551.638 240.593L539.686 249.462L543.1 266.11Z" fill="#FBBC04"/>
<path d="M560.031 215.52C567.406 215.042 574.755 217.255 580.723 222.445L572.402 247.424C572.402 247.424 573.66 243.796 572.138 239.95C569.854 234.174 563.284 231.782 558.029 233.86C553.061 235.825 551.64 240.576 551.64 240.576L546.967 228.76L560.031 215.52Z" fill="#4285F4"/>
<path d="M534.974 235.014C537.032 228.795 542.002 221.263 551.479 217.515C556.076 215.697 560.018 215.534 560.018 215.534L551.629 240.592L540.418 245.026L534.974 235.014Z" fill="#1A73E8"/>
<path d="M543.1 266.11C543.1 266.11 538.461 262.024 535.528 254.607C532.755 247.597 533.057 240.392 534.974 235.014L551.639 240.591L543.1 266.11Z" fill="#EA4335"/>
</g>
<mask id="mask5_52_5" style="mask-type:luminance" maskUnits="userSpaceOnUse" x="601" y="-14" width="147" height="155">
<path d="M747.243 10.2132L627.342 -14L601 116.442L720.901 140.655L747.243 10.2132Z" fill="white"/>
</mask>
<g mask="url(#mask5_52_5)">
<path d="M671.886 7.53925C683.886 9.44401 694.731 15.7881 702.274 25.3134C709.817 34.8386 713.506 46.8502 712.611 58.9678C711.715 71.0855 706.3 82.4253 697.439 90.7387L696.514 91.6061L697.215 92.6623L719.908 126.827L719.937 126.871C720.471 127.616 720.85 128.462 721.05 129.356C721.249 130.251 721.267 131.177 721.101 132.079C720.936 132.98 720.59 133.839 720.085 134.604C719.581 135.369 718.927 136.025 718.164 136.532C717.4 137.04 716.542 137.387 715.641 137.555C714.74 137.724 713.814 137.709 712.919 137.512C712.024 137.314 711.178 136.939 710.431 136.408C709.684 135.876 709.052 135.199 708.572 134.418L708.559 134.396L708.543 134.374L685.851 100.208L685.15 99.1523L683.992 99.6677C672.892 104.609 660.341 105.2 648.827 101.323C637.313 97.4456 627.675 89.3841 621.824 78.7355C615.973 68.0868 614.336 55.6275 617.237 43.8282C620.138 32.0292 627.366 21.7508 637.488 15.0297C647.61 8.30841 659.887 5.63449 671.886 7.53925ZM671.185 21.2778C662.138 19.4507 652.735 21.2931 645.046 26.3992C637.356 31.5053 632.01 39.4568 630.183 48.5048C629.278 52.9849 629.264 57.5996 630.142 62.0848C631.021 66.5702 632.775 70.8392 635.303 74.6469C637.83 78.4545 641.083 81.7271 644.876 84.2774C648.668 86.8277 652.926 88.606 657.406 89.5107C661.886 90.4154 666.5 90.4288 670.985 89.5501C675.47 88.6714 679.739 86.9178 683.546 84.3895C687.354 81.8612 690.626 78.6072 693.176 74.8142C695.726 71.0213 697.504 66.7628 698.409 62.2827C700.236 53.2348 698.395 43.8316 693.29 36.1418C688.184 28.4518 680.233 23.1049 671.185 21.2778Z" fill="#A1B4FB" stroke="white" stroke-width="3"/>
<path d="M666.643 38.4932C665.502 36.4195 662.499 36.4195 661.356 38.4932C659.853 41.2239 658.614 44.0918 657.656 47.0577C657.611 47.1738 657.532 47.2733 657.428 47.343C657.325 47.4127 657.203 47.4494 657.079 47.448C654.511 47.5147 651.953 47.7697 649.423 48.211C647.083 48.6187 646.052 51.4257 647.83 53.1635C648.054 53.3828 648.28 53.601 648.509 53.818C650.222 55.4399 652.036 56.952 653.939 58.3452C654.026 58.4027 654.091 58.4866 654.126 58.5844C654.161 58.6822 654.163 58.7887 654.132 58.8877C653.171 61.7712 652.484 64.739 652.081 67.7515C651.748 70.2435 654.387 71.773 656.447 70.716C658.948 69.4345 661.339 67.9495 663.596 66.2762C663.714 66.1926 663.855 66.1477 664 66.1477C664.145 66.1477 664.286 66.1926 664.404 66.2762C666.66 67.9515 669.051 69.4365 671.553 70.716C673.613 71.773 676.252 70.2435 675.919 67.7515C675.517 64.739 674.83 61.7713 673.87 58.8877C673.839 58.7887 673.841 58.6822 673.876 58.5844C673.911 58.4866 673.976 58.4027 674.063 58.3452C676.219 56.7665 678.26 55.0355 680.17 53.1652C681.948 51.4257 680.917 48.6187 678.578 48.211C676.047 47.7697 673.487 47.5146 670.92 47.448C670.795 47.449 670.674 47.4122 670.571 47.3425C670.468 47.2728 670.389 47.1735 670.344 47.0577C669.389 44.0906 668.148 41.2225 666.643 38.4932Z" fill="#FCC835"/>
</g>
<path d="M121.317 230.11C121.246 229.412 120.946 228.87 120.415 228.483C119.883 228.096 119.161 227.903 118.249 227.903C117.63 227.903 117.107 227.989 116.68 228.163C116.254 228.331 115.927 228.564 115.699 228.864C115.477 229.164 115.366 229.503 115.366 229.884C115.353 230.203 115.421 230.48 115.568 230.716C115.719 230.952 115.927 231.158 116.19 231.33C116.452 231.497 116.756 231.645 117.101 231.772C117.445 231.893 117.814 231.997 118.206 232.084L119.818 232.465C120.602 232.637 121.32 232.868 121.975 233.156C122.629 233.446 123.196 233.8 123.675 234.221C124.154 234.643 124.525 235.138 124.788 235.709C125.057 236.28 125.194 236.935 125.2 237.674C125.194 238.759 124.913 239.7 124.358 240.495C123.809 241.286 123.014 241.901 121.975 242.34C120.941 242.772 119.693 242.989 118.232 242.989C116.782 242.989 115.52 242.769 114.445 242.331C113.376 241.892 112.54 241.243 111.938 240.384C111.342 239.517 111.029 238.448 111 237.173H114.673C114.715 237.767 114.886 238.262 115.19 238.661C115.5 239.053 115.912 239.351 116.426 239.552C116.947 239.749 117.533 239.846 118.187 239.846C118.831 239.846 119.389 239.755 119.863 239.569C120.341 239.385 120.713 239.129 120.975 238.8C121.239 238.471 121.37 238.093 121.37 237.665C121.37 237.267 121.249 236.932 121.01 236.661C120.776 236.39 120.432 236.16 119.977 235.97C119.526 235.779 118.974 235.605 118.32 235.45L116.365 234.966C114.852 234.602 113.656 234.034 112.78 233.26C111.904 232.487 111.467 231.446 111.474 230.136C111.467 229.063 111.757 228.125 112.342 227.324C112.931 226.521 113.741 225.895 114.77 225.446C115.798 224.995 116.967 224.771 118.275 224.771C119.608 224.771 120.771 224.995 121.765 225.446C122.763 225.895 123.54 226.521 124.096 227.324C124.651 228.125 124.936 229.054 124.955 230.11H121.317ZM133.819 242.996C132.434 242.996 131.241 242.72 130.242 242.166C129.248 241.607 128.483 240.816 127.946 239.794C127.408 238.768 127.139 237.554 127.139 236.151C127.139 234.783 127.408 233.584 127.946 232.55C128.483 231.517 129.241 230.713 130.215 230.136C131.198 229.558 132.349 229.27 133.67 229.27C134.558 229.27 135.385 229.412 136.15 229.695C136.921 229.971 137.594 230.39 138.166 230.949C138.745 231.51 139.194 232.213 139.516 233.062C139.837 233.904 139.998 234.89 139.998 236.021V237.034H128.63V234.749H136.483C136.483 234.218 136.366 233.747 136.133 233.339C135.899 232.929 135.575 232.608 135.16 232.378C134.751 232.142 134.274 232.023 133.731 232.023C133.164 232.023 132.662 232.152 132.222 232.413C131.791 232.666 131.451 233.01 131.206 233.442C130.961 233.869 130.836 234.346 130.829 234.87V237.042C130.829 237.7 130.953 238.268 131.198 238.748C131.45 239.226 131.803 239.596 132.258 239.855C132.715 240.114 133.255 240.245 133.879 240.245C134.294 240.245 134.674 240.187 135.019 240.072C135.363 239.956 135.66 239.784 135.905 239.552C136.15 239.322 136.337 239.039 136.465 238.704L139.919 238.929C139.743 239.749 139.385 240.465 138.841 241.075C138.304 241.682 137.608 242.154 136.755 242.495C135.908 242.83 134.928 242.996 133.819 242.996ZM151.068 237.077V229.444H154.803V242.737H151.217V240.323H151.077C150.773 241.101 150.267 241.727 149.561 242.201C148.86 242.673 148.004 242.911 146.992 242.911C146.093 242.911 145.301 242.708 144.618 242.305C143.933 241.901 143.399 241.327 143.013 240.582C142.634 239.839 142.441 238.946 142.435 237.909V229.444H146.168V237.251C146.174 238.035 146.387 238.655 146.808 239.11C147.23 239.567 147.793 239.794 148.501 239.794C148.95 239.794 149.371 239.694 149.763 239.491C150.154 239.284 150.469 238.978 150.708 238.574C150.955 238.171 151.074 237.671 151.068 237.077ZM167.235 235.053V242.737H163.502V229.444H167.061V231.788H167.218C167.516 231.016 168.016 230.404 168.717 229.954C169.418 229.499 170.268 229.27 171.267 229.27C172.202 229.27 173.018 229.473 173.713 229.877C174.408 230.28 174.948 230.858 175.334 231.607C175.72 232.352 175.912 233.24 175.912 234.273V242.737H172.179V234.931C172.185 234.117 171.974 233.482 171.548 233.027C171.121 232.565 170.535 232.334 169.786 232.334C169.284 232.334 168.839 232.442 168.454 232.655C168.074 232.868 167.776 233.179 167.56 233.589C167.349 233.992 167.241 234.481 167.235 235.053ZM184.991 242.996C183.607 242.996 182.415 242.72 181.415 242.166C180.422 241.607 179.656 240.816 179.12 239.794C178.581 238.768 178.313 237.554 178.313 236.151C178.313 234.783 178.581 233.584 179.12 232.55C179.656 231.517 180.414 230.713 181.389 230.136C182.372 229.558 183.522 229.27 184.843 229.27C185.732 229.27 186.558 229.412 187.324 229.695C188.095 229.971 188.766 230.39 189.34 230.949C189.918 231.51 190.367 232.213 190.69 233.062C191.011 233.904 191.171 234.89 191.171 236.021V237.034H179.803V234.749H187.657C187.657 234.218 187.54 233.747 187.305 233.339C187.072 232.929 186.748 232.608 186.333 232.378C185.924 232.142 185.448 232.023 184.905 232.023C184.337 232.023 183.834 232.152 183.396 232.413C182.964 232.666 182.625 233.01 182.379 233.442C182.134 233.869 182.009 234.346 182.003 234.87V237.042C182.003 237.7 182.125 238.268 182.372 238.748C182.621 239.226 182.976 239.596 183.431 239.855C183.888 240.114 184.428 240.245 185.053 240.245C185.468 240.245 185.847 240.187 186.193 240.072C186.537 239.956 186.833 239.784 187.078 239.552C187.324 239.322 187.51 239.039 187.638 238.704L191.092 238.929C190.916 239.749 190.557 240.465 190.014 241.075C189.477 241.682 188.781 242.154 187.928 242.495C187.081 242.83 186.102 242.996 184.991 242.996ZM199.673 248C198.463 248 197.426 247.835 196.561 247.506C195.703 247.184 195.018 246.742 194.511 246.181C194.002 245.622 193.672 244.993 193.52 244.295L196.973 243.837C197.079 244.102 197.246 244.35 197.473 244.58C197.701 244.812 198.002 244.996 198.377 245.135C198.756 245.28 199.218 245.351 199.761 245.351C200.574 245.351 201.243 245.155 201.768 244.763C202.3 244.376 202.565 243.727 202.565 242.815V240.384H202.408C202.244 240.752 201.999 241.101 201.672 241.43C201.345 241.759 200.924 242.027 200.41 242.235C199.895 242.443 199.282 242.547 198.57 242.547C197.558 242.547 196.638 242.315 195.808 241.854C194.984 241.388 194.327 240.675 193.835 239.717C193.351 238.752 193.109 237.535 193.109 236.064C193.109 234.559 193.357 233.301 193.854 232.291C194.35 231.281 195.011 230.526 195.834 230.023C196.664 229.522 197.573 229.27 198.56 229.27C199.315 229.27 199.946 229.397 200.453 229.651C200.962 229.899 201.371 230.212 201.681 230.586C201.996 230.955 202.238 231.319 202.408 231.677H202.548V229.444H206.257V242.867C206.257 243.998 205.976 244.944 205.414 245.706C204.853 246.468 204.077 247.039 203.083 247.42C202.096 247.807 200.959 248 199.673 248ZM199.753 239.778C200.354 239.778 200.862 239.63 201.277 239.336C201.698 239.036 202.019 238.609 202.241 238.055C202.469 237.496 202.584 236.826 202.584 236.047C202.584 235.269 202.473 234.593 202.25 234.021C202.028 233.446 201.707 232.998 201.286 232.681C200.865 232.363 200.354 232.204 199.753 232.204C199.139 232.204 198.622 232.369 198.201 232.698C197.78 233.021 197.462 233.471 197.246 234.047C197.028 234.625 196.92 235.292 196.92 236.047C196.92 236.815 197.028 237.478 197.246 238.038C197.468 238.591 197.786 239.022 198.201 239.327C198.622 239.627 199.139 239.778 199.753 239.778ZM215.311 242.996C213.948 242.996 212.771 242.711 211.778 242.14C210.791 241.563 210.029 240.762 209.49 239.733C208.953 238.701 208.683 237.503 208.683 236.142C208.683 234.769 208.953 233.569 209.49 232.542C210.029 231.51 210.791 230.707 211.778 230.136C212.771 229.558 213.948 229.27 215.311 229.27C216.671 229.27 217.847 229.558 218.834 230.136C219.828 230.707 220.593 231.51 221.131 232.542C221.668 233.569 221.936 234.769 221.936 236.142C221.936 237.503 221.668 238.701 221.131 239.733C220.593 240.762 219.828 241.563 218.834 242.14C217.847 242.711 216.671 242.996 215.311 242.996ZM215.328 240.14C215.948 240.14 216.465 239.968 216.88 239.622C217.295 239.269 217.606 238.791 217.817 238.184C218.033 237.58 218.141 236.89 218.141 236.116C218.141 235.343 218.033 234.653 217.817 234.047C217.606 233.442 217.295 232.963 216.88 232.611C216.465 232.259 215.948 232.084 215.328 232.084C214.703 232.084 214.177 232.259 213.749 232.611C213.33 232.963 213.011 233.442 212.795 234.047C212.585 234.653 212.48 235.343 212.48 236.116C212.48 236.89 212.585 237.58 212.795 238.184C213.011 238.791 213.33 239.269 213.749 239.622C214.177 239.968 214.703 240.14 215.328 240.14ZM230.447 242.996C229.068 242.996 227.882 242.708 226.89 242.131C225.901 241.549 225.142 240.74 224.61 239.708C224.084 238.675 223.822 237.487 223.822 236.142C223.822 234.781 224.087 233.586 224.619 232.559C225.156 231.526 225.92 230.722 226.907 230.145C227.894 229.561 229.068 229.27 230.43 229.27C231.604 229.27 232.633 229.481 233.516 229.903C234.398 230.323 235.097 230.915 235.611 231.677C236.124 232.439 236.408 233.333 236.461 234.359H232.937C232.838 233.695 232.575 233.162 232.149 232.759C231.728 232.349 231.175 232.143 230.492 232.143C229.914 232.143 229.408 232.3 228.976 232.611C228.548 232.917 228.215 233.365 227.976 233.953C227.737 234.541 227.617 235.254 227.617 236.09C227.617 236.938 227.734 237.66 227.967 238.254C228.207 238.848 228.542 239.301 228.976 239.613C229.408 239.924 229.914 240.081 230.492 240.081C230.918 240.081 231.3 239.994 231.64 239.82C231.985 239.648 232.268 239.397 232.49 239.068C232.718 238.733 232.868 238.332 232.937 237.864H236.461C236.402 238.88 236.121 239.775 235.62 240.547C235.123 241.315 234.437 241.915 233.559 242.347C232.683 242.78 231.646 242.996 230.447 242.996ZM238.852 242.737V229.444H242.585V242.737H238.852ZM240.728 227.73C240.172 227.73 239.696 227.548 239.299 227.185C238.907 226.815 238.711 226.375 238.711 225.86C238.711 225.353 238.907 224.917 239.299 224.553C239.696 224.184 240.172 224 240.728 224C241.283 224 241.755 224.184 242.147 224.553C242.545 224.917 242.744 225.353 242.744 225.86C242.744 226.375 242.545 226.815 242.147 227.185C241.755 227.548 241.283 227.73 240.728 227.73ZM251.659 242.996C250.298 242.996 249.121 242.711 248.128 242.14C247.139 241.563 246.377 240.762 245.84 239.733C245.302 238.701 245.033 237.503 245.033 236.142C245.033 234.769 245.302 233.569 245.84 232.542C246.377 231.51 247.139 230.707 248.128 230.136C249.121 229.558 250.298 229.27 251.659 229.27C253.021 229.27 254.195 229.558 255.182 230.136C256.176 230.707 256.943 231.51 257.479 232.542C258.018 233.569 258.286 234.769 258.286 236.142C258.286 237.503 258.018 238.701 257.479 239.733C256.943 240.762 256.176 241.563 255.182 242.14C254.195 242.711 253.021 242.996 251.659 242.996ZM251.678 240.14C252.296 240.14 252.813 239.968 253.228 239.622C253.643 239.269 253.956 238.791 254.166 238.184C254.382 237.58 254.491 236.89 254.491 236.116C254.491 235.343 254.382 234.653 254.166 234.047C253.956 233.442 253.643 232.963 253.228 232.611C252.813 232.259 252.296 232.084 251.678 232.084C251.051 232.084 250.525 232.259 250.099 232.611C249.678 232.963 249.36 233.442 249.144 234.047C248.933 234.653 248.828 235.343 248.828 236.116C248.828 236.89 248.933 237.58 249.144 238.184C249.36 238.791 249.678 239.269 250.099 239.622C250.525 239.968 251.051 240.14 251.678 240.14ZM262.896 242.963C262.317 242.963 261.821 242.76 261.407 242.356C260.997 241.947 260.793 241.456 260.793 240.885C260.793 240.32 260.997 239.835 261.407 239.432C261.821 239.027 262.317 238.826 262.896 238.826C263.457 238.826 263.948 239.027 264.369 239.432C264.79 239.835 265 240.32 265 240.885C265 241.266 264.901 241.615 264.702 241.933C264.509 242.244 264.255 242.495 263.94 242.685C263.624 242.87 263.277 242.963 262.896 242.963ZM262.896 233.65C262.317 233.65 261.821 233.449 261.407 233.043C260.997 232.64 260.793 232.149 260.793 231.572C260.793 231.007 260.997 230.526 261.407 230.128C261.821 229.723 262.317 229.522 262.896 229.522C263.457 229.522 263.948 229.723 264.369 230.128C264.79 230.526 265 231.007 265 231.572C265 231.959 264.901 232.311 264.702 232.629C264.509 232.94 264.255 233.188 263.94 233.372C263.624 233.557 263.277 233.65 262.896 233.65Z" fill="#4D6FFB"/>
</g>
<path d="M187.812 304V288.974H193.686C194.888 288.974 195.893 289.128 196.7 289.436C197.521 289.744 198.13 290.257 198.526 290.976C198.936 291.695 199.142 292.67 199.142 293.902C199.142 294.987 198.944 295.904 198.548 296.652C198.166 297.385 197.58 297.928 196.788 298.28L199.142 304H195.952L193.972 298.962H190.848V304H187.812ZM190.848 296.476H193.752C194.309 296.476 194.756 296.373 195.094 296.168C195.431 295.948 195.673 295.647 195.82 295.266C195.966 294.87 196.04 294.423 196.04 293.924C196.04 293.103 195.849 292.487 195.468 292.076C195.086 291.665 194.492 291.46 193.686 291.46H190.848V296.476ZM205.991 304.242C204.774 304.242 203.806 304.037 203.087 303.626C202.383 303.215 201.877 302.592 201.569 301.756C201.261 300.92 201.107 299.871 201.107 298.61C201.107 297.246 201.298 296.131 201.679 295.266C202.075 294.401 202.647 293.763 203.395 293.352C204.143 292.927 205.067 292.714 206.167 292.714C207.795 292.714 209.02 293.125 209.841 293.946C210.677 294.767 211.095 296.065 211.095 297.84L210.963 299.468H204.055C204.07 300.289 204.238 300.905 204.561 301.316C204.884 301.727 205.441 301.932 206.233 301.932C206.688 301.932 207.186 301.925 207.729 301.91C208.272 301.881 208.807 301.851 209.335 301.822C209.878 301.793 210.34 301.763 210.721 301.734L210.787 303.78C210.42 303.839 209.958 303.905 209.401 303.978C208.844 304.051 208.264 304.11 207.663 304.154C207.076 304.213 206.519 304.242 205.991 304.242ZM204.055 297.598H208.169C208.169 296.601 208.008 295.904 207.685 295.508C207.377 295.112 206.871 294.914 206.167 294.914C205.698 294.914 205.309 295.002 205.001 295.178C204.693 295.354 204.458 295.64 204.297 296.036C204.136 296.432 204.055 296.953 204.055 297.598ZM213.921 304V295.398H212.821V292.956H213.921V292.318C213.921 291.277 214.016 290.455 214.207 289.854C214.412 289.253 214.757 288.827 215.241 288.578C215.725 288.329 216.377 288.204 217.199 288.204C217.433 288.204 217.712 288.219 218.035 288.248C218.372 288.263 218.695 288.285 219.003 288.314C219.311 288.343 219.545 288.373 219.707 288.402L219.685 290.646C219.45 290.646 219.186 290.646 218.893 290.646C218.614 290.631 218.372 290.624 218.167 290.624C217.844 290.624 217.58 290.675 217.375 290.778C217.184 290.881 217.045 291.049 216.957 291.284C216.883 291.519 216.847 291.856 216.847 292.296V292.956H219.487V295.398H216.847V304H213.921ZM225.82 304.242C224.603 304.242 223.635 304.037 222.916 303.626C222.212 303.215 221.706 302.592 221.398 301.756C221.09 300.92 220.936 299.871 220.936 298.61C220.936 297.246 221.127 296.131 221.508 295.266C221.904 294.401 222.476 293.763 223.224 293.352C223.972 292.927 224.896 292.714 225.996 292.714C227.624 292.714 228.849 293.125 229.67 293.946C230.506 294.767 230.924 296.065 230.924 297.84L230.792 299.468H223.884C223.899 300.289 224.068 300.905 224.39 301.316C224.713 301.727 225.27 301.932 226.062 301.932C226.517 301.932 227.016 301.925 227.558 301.91C228.101 301.881 228.636 301.851 229.164 301.822C229.707 301.793 230.169 301.763 230.55 301.734L230.616 303.78C230.25 303.839 229.788 303.905 229.23 303.978C228.673 304.051 228.094 304.11 227.492 304.154C226.906 304.213 226.348 304.242 225.82 304.242ZM223.884 297.598H227.998C227.998 296.601 227.837 295.904 227.514 295.508C227.206 295.112 226.7 294.914 225.996 294.914C225.527 294.914 225.138 295.002 224.83 295.178C224.522 295.354 224.288 295.64 224.126 296.036C223.965 296.432 223.884 296.953 223.884 297.598ZM233.31 304V292.956H236.236V294.254C236.485 294.063 236.793 293.865 237.16 293.66C237.526 293.44 237.922 293.242 238.348 293.066C238.788 292.875 239.206 292.751 239.602 292.692V295.53C239.22 295.589 238.817 295.691 238.392 295.838C237.966 295.97 237.563 296.117 237.182 296.278C236.815 296.439 236.5 296.586 236.236 296.718V304H233.31ZM245.907 304.242C244.69 304.242 243.722 304.037 243.003 303.626C242.299 303.215 241.793 302.592 241.485 301.756C241.177 300.92 241.023 299.871 241.023 298.61C241.023 297.246 241.214 296.131 241.595 295.266C241.991 294.401 242.563 293.763 243.311 293.352C244.059 292.927 244.983 292.714 246.083 292.714C247.711 292.714 248.936 293.125 249.757 293.946C250.593 294.767 251.011 296.065 251.011 297.84L250.879 299.468H243.971C243.986 300.289 244.155 300.905 244.477 301.316C244.8 301.727 245.357 301.932 246.149 301.932C246.604 301.932 247.103 301.925 247.645 301.91C248.188 301.881 248.723 301.851 249.251 301.822C249.794 301.793 250.256 301.763 250.637 301.734L250.703 303.78C250.337 303.839 249.875 303.905 249.317 303.978C248.76 304.051 248.181 304.11 247.579 304.154C246.993 304.213 246.435 304.242 245.907 304.242ZM243.971 297.598H248.085C248.085 296.601 247.924 295.904 247.601 295.508C247.293 295.112 246.787 294.914 246.083 294.914C245.614 294.914 245.225 295.002 244.917 295.178C244.609 295.354 244.375 295.64 244.213 296.036C244.052 296.432 243.971 296.953 243.971 297.598ZM242.585 291.284L245.027 287.962H247.073L249.625 291.284H247.205L246.105 289.502L245.027 291.284H242.585ZM253.397 304V292.956H256.323V293.66C256.558 293.513 256.844 293.374 257.181 293.242C257.518 293.095 257.87 292.971 258.237 292.868C258.618 292.765 258.985 292.714 259.337 292.714C260.1 292.714 260.73 292.817 261.229 293.022C261.742 293.213 262.146 293.528 262.439 293.968C262.732 294.408 262.945 294.987 263.077 295.706C263.209 296.41 263.275 297.268 263.275 298.28V304H260.327V298.434C260.327 297.671 260.283 297.063 260.195 296.608C260.107 296.139 259.938 295.801 259.689 295.596C259.44 295.391 259.073 295.288 258.589 295.288C258.325 295.288 258.046 295.317 257.753 295.376C257.474 295.42 257.203 295.486 256.939 295.574C256.69 295.662 256.484 295.75 256.323 295.838V304H253.397ZM270.507 304.242C269.246 304.242 268.256 304.051 267.537 303.67C266.833 303.274 266.334 302.643 266.041 301.778C265.762 300.913 265.623 299.776 265.623 298.368C265.623 296.975 265.784 295.867 266.107 295.046C266.43 294.21 266.95 293.616 267.669 293.264C268.402 292.897 269.356 292.714 270.529 292.714C270.837 292.714 271.196 292.736 271.607 292.78C272.018 292.824 272.428 292.883 272.839 292.956C273.264 293.015 273.624 293.073 273.917 293.132L273.807 295.486C273.528 295.457 273.213 295.435 272.861 295.42C272.509 295.391 272.164 295.369 271.827 295.354C271.504 295.325 271.24 295.31 271.035 295.31C270.404 295.31 269.906 295.413 269.539 295.618C269.187 295.809 268.938 296.131 268.791 296.586C268.659 297.026 268.593 297.62 268.593 298.368C268.593 299.175 268.659 299.82 268.791 300.304C268.923 300.788 269.158 301.133 269.495 301.338C269.847 301.543 270.36 301.646 271.035 301.646C271.24 301.646 271.512 301.639 271.849 301.624C272.186 301.595 272.531 301.565 272.883 301.536C273.25 301.507 273.572 301.485 273.851 301.47L273.939 303.824C273.646 303.883 273.294 303.941 272.883 304C272.472 304.073 272.054 304.132 271.629 304.176C271.218 304.22 270.844 304.242 270.507 304.242ZM276.277 304V292.956H279.203V304H276.277ZM276.277 291.196V288.688H279.225V291.196H276.277ZM284.97 304.242C283.826 304.242 282.961 303.956 282.374 303.384C281.802 302.797 281.516 301.917 281.516 300.744C281.516 299.923 281.663 299.285 281.956 298.83C282.249 298.361 282.682 298.023 283.254 297.818C283.841 297.598 284.552 297.466 285.388 297.422L288.072 297.18V296.52C288.072 295.992 287.94 295.625 287.676 295.42C287.412 295.2 287.023 295.09 286.51 295.09C286.099 295.09 285.623 295.105 285.08 295.134C284.552 295.163 284.024 295.2 283.496 295.244C282.983 295.288 282.535 295.332 282.154 295.376L282.066 293.308C282.447 293.22 282.902 293.132 283.43 293.044C283.973 292.941 284.537 292.861 285.124 292.802C285.711 292.743 286.253 292.714 286.752 292.714C287.691 292.714 288.475 292.831 289.106 293.066C289.737 293.301 290.213 293.689 290.536 294.232C290.859 294.76 291.02 295.479 291.02 296.388V301.426C291.049 301.631 291.159 301.793 291.35 301.91C291.541 302.013 291.761 302.086 292.01 302.13L291.944 304.154C291.709 304.154 291.475 304.154 291.24 304.154C291.02 304.169 290.807 304.169 290.602 304.154C290.397 304.154 290.213 304.139 290.052 304.11C289.715 304.066 289.421 303.978 289.172 303.846C288.937 303.714 288.747 303.575 288.6 303.428C288.365 303.531 288.05 303.648 287.654 303.78C287.258 303.912 286.825 304.022 286.356 304.11C285.901 304.198 285.439 304.242 284.97 304.242ZM285.674 302.064C285.953 302.064 286.246 302.035 286.554 301.976C286.862 301.917 287.148 301.851 287.412 301.778C287.691 301.69 287.911 301.609 288.072 301.536V299.006L285.828 299.204C285.344 299.248 284.992 299.395 284.772 299.644C284.567 299.879 284.464 300.216 284.464 300.656C284.464 301.096 284.559 301.441 284.75 301.69C284.955 301.939 285.263 302.064 285.674 302.064ZM299.275 304V292.956H302.201V294.254C302.45 294.063 302.758 293.865 303.125 293.66C303.491 293.44 303.887 293.242 304.313 293.066C304.753 292.875 305.171 292.751 305.567 292.692V295.53C305.185 295.589 304.782 295.691 304.357 295.838C303.931 295.97 303.528 296.117 303.147 296.278C302.78 296.439 302.465 296.586 302.201 296.718V304H299.275ZM311.872 304.242C310.655 304.242 309.687 304.037 308.968 303.626C308.264 303.215 307.758 302.592 307.45 301.756C307.142 300.92 306.988 299.871 306.988 298.61C306.988 297.246 307.179 296.131 307.56 295.266C307.956 294.401 308.528 293.763 309.276 293.352C310.024 292.927 310.948 292.714 312.048 292.714C313.676 292.714 314.901 293.125 315.722 293.946C316.558 294.767 316.976 296.065 316.976 297.84L316.844 299.468H309.936C309.951 300.289 310.119 300.905 310.442 301.316C310.765 301.727 311.322 301.932 312.114 301.932C312.569 301.932 313.067 301.925 313.61 301.91C314.153 301.881 314.688 301.851 315.216 301.822C315.759 301.793 316.221 301.763 316.602 301.734L316.668 303.78C316.301 303.839 315.839 303.905 315.282 303.978C314.725 304.051 314.145 304.11 313.544 304.154C312.957 304.213 312.4 304.242 311.872 304.242ZM309.936 297.598H314.05C314.05 296.601 313.889 295.904 313.566 295.508C313.258 295.112 312.752 294.914 312.048 294.914C311.579 294.914 311.19 295.002 310.882 295.178C310.574 295.354 310.339 295.64 310.178 296.036C310.017 296.432 309.936 296.953 309.936 297.598ZM324.224 309.038C323.05 309.038 322.068 308.95 321.276 308.774C320.498 308.598 319.912 308.275 319.516 307.806C319.12 307.351 318.922 306.691 318.922 305.826C318.922 305.445 318.973 305.1 319.076 304.792C319.193 304.499 319.369 304.22 319.604 303.956C319.853 303.692 320.161 303.421 320.528 303.142C320.322 302.995 320.154 302.783 320.022 302.504C319.904 302.211 319.846 301.895 319.846 301.558C319.846 301.441 319.897 301.287 320 301.096C320.102 300.891 320.227 300.678 320.374 300.458C320.52 300.238 320.66 300.04 320.792 299.864C320.498 299.732 320.22 299.541 319.956 299.292C319.692 299.028 319.472 298.676 319.296 298.236C319.134 297.796 319.054 297.231 319.054 296.542C319.054 295.603 319.23 294.855 319.582 294.298C319.948 293.741 320.476 293.337 321.166 293.088C321.855 292.839 322.691 292.714 323.674 292.714C324.055 292.714 324.466 292.743 324.906 292.802C325.346 292.861 325.698 292.919 325.962 292.978L329.548 292.912V294.892L327.876 294.87C328.008 295.046 328.125 295.273 328.228 295.552C328.345 295.816 328.404 296.146 328.404 296.542C328.404 297.554 328.228 298.339 327.876 298.896C327.538 299.453 327.025 299.842 326.336 300.062C325.646 300.267 324.774 300.37 323.718 300.37C323.6 300.37 323.439 300.363 323.234 300.348C323.028 300.319 322.86 300.297 322.728 300.282C322.669 300.429 322.61 300.597 322.552 300.788C322.493 300.964 322.464 301.089 322.464 301.162C322.464 301.323 322.493 301.448 322.552 301.536C322.625 301.624 322.75 301.697 322.926 301.756C323.116 301.8 323.388 301.829 323.74 301.844C324.106 301.859 324.59 301.866 325.192 301.866C326.233 301.866 327.062 301.961 327.678 302.152C328.308 302.343 328.756 302.68 329.02 303.164C329.284 303.648 329.416 304.33 329.416 305.21C329.416 306.515 328.954 307.476 328.03 308.092C327.12 308.723 325.852 309.038 324.224 309.038ZM324.07 306.86C324.979 306.86 325.632 306.75 326.028 306.53C326.438 306.325 326.644 305.98 326.644 305.496C326.644 305.115 326.57 304.836 326.424 304.66C326.292 304.484 326.064 304.367 325.742 304.308C325.419 304.264 324.979 304.242 324.422 304.242C324.275 304.242 324.099 304.235 323.894 304.22C323.688 304.22 323.476 304.213 323.256 304.198C323.05 304.198 322.86 304.191 322.684 304.176C322.522 304.161 322.405 304.154 322.332 304.154C322.126 304.301 321.958 304.44 321.826 304.572C321.708 304.704 321.62 304.836 321.562 304.968C321.518 305.115 321.496 305.291 321.496 305.496C321.496 305.833 321.576 306.097 321.738 306.288C321.899 306.493 322.163 306.64 322.53 306.728C322.911 306.816 323.424 306.86 324.07 306.86ZM323.696 298.302C324.37 298.302 324.847 298.17 325.126 297.906C325.419 297.627 325.566 297.173 325.566 296.542C325.566 295.911 325.419 295.457 325.126 295.178C324.847 294.899 324.37 294.76 323.696 294.76C323.05 294.76 322.581 294.899 322.288 295.178C322.009 295.457 321.87 295.911 321.87 296.542C321.87 297.173 322.009 297.627 322.288 297.906C322.581 298.17 323.05 298.302 323.696 298.302ZM331.532 304V292.956H334.458V304H331.532ZM331.532 291.196V288.688H334.48V291.196H331.532ZM342.095 304.242C340.849 304.242 339.844 304.037 339.081 303.626C338.333 303.215 337.791 302.585 337.453 301.734C337.116 300.869 336.947 299.754 336.947 298.39C336.947 297.07 337.123 295.999 337.475 295.178C337.827 294.342 338.385 293.726 339.147 293.33C339.91 292.919 340.893 292.714 342.095 292.714C343.313 292.714 344.295 292.919 345.043 293.33C345.806 293.726 346.363 294.342 346.715 295.178C347.082 295.999 347.265 297.07 347.265 298.39C347.265 299.754 347.097 300.869 346.759 301.734C346.422 302.585 345.872 303.215 345.109 303.626C344.361 304.037 343.357 304.242 342.095 304.242ZM342.095 301.822C342.711 301.822 343.173 301.712 343.481 301.492C343.789 301.257 343.995 300.891 344.097 300.392C344.215 299.879 344.273 299.211 344.273 298.39C344.273 297.583 344.207 296.945 344.075 296.476C343.943 295.992 343.723 295.647 343.415 295.442C343.107 295.237 342.667 295.134 342.095 295.134C341.538 295.134 341.098 295.237 340.775 295.442C340.467 295.647 340.247 295.992 340.115 296.476C339.983 296.945 339.917 297.583 339.917 298.39C339.917 299.211 339.969 299.879 340.071 300.392C340.189 300.891 340.401 301.257 340.709 301.492C341.017 301.712 341.479 301.822 342.095 301.822ZM349.707 304V292.956H352.633V293.66C352.868 293.513 353.154 293.374 353.491 293.242C353.828 293.095 354.18 292.971 354.547 292.868C354.928 292.765 355.295 292.714 355.647 292.714C356.41 292.714 357.04 292.817 357.539 293.022C358.052 293.213 358.456 293.528 358.749 293.968C359.042 294.408 359.255 294.987 359.387 295.706C359.519 296.41 359.585 297.268 359.585 298.28V304H356.637V298.434C356.637 297.671 356.593 297.063 356.505 296.608C356.417 296.139 356.248 295.801 355.999 295.596C355.75 295.391 355.383 295.288 354.899 295.288C354.635 295.288 354.356 295.317 354.063 295.376C353.784 295.42 353.513 295.486 353.249 295.574C353 295.662 352.794 295.75 352.633 295.838V304H349.707ZM365.189 304.242C364.045 304.242 363.18 303.956 362.593 303.384C362.021 302.797 361.735 301.917 361.735 300.744C361.735 299.923 361.882 299.285 362.175 298.83C362.468 298.361 362.901 298.023 363.473 297.818C364.06 297.598 364.771 297.466 365.607 297.422L368.291 297.18V296.52C368.291 295.992 368.159 295.625 367.895 295.42C367.631 295.2 367.242 295.09 366.729 295.09C366.318 295.09 365.842 295.105 365.299 295.134C364.771 295.163 364.243 295.2 363.715 295.244C363.202 295.288 362.754 295.332 362.373 295.376L362.285 293.308C362.666 293.22 363.121 293.132 363.649 293.044C364.192 292.941 364.756 292.861 365.343 292.802C365.93 292.743 366.472 292.714 366.971 292.714C367.91 292.714 368.694 292.831 369.325 293.066C369.956 293.301 370.432 293.689 370.755 294.232C371.078 294.76 371.239 295.479 371.239 296.388V301.426C371.268 301.631 371.378 301.793 371.569 301.91C371.76 302.013 371.98 302.086 372.229 302.13L372.163 304.154C371.928 304.154 371.694 304.154 371.459 304.154C371.239 304.169 371.026 304.169 370.821 304.154C370.616 304.154 370.432 304.139 370.271 304.11C369.934 304.066 369.64 303.978 369.391 303.846C369.156 303.714 368.966 303.575 368.819 303.428C368.584 303.531 368.269 303.648 367.873 303.78C367.477 303.912 367.044 304.022 366.575 304.11C366.12 304.198 365.658 304.242 365.189 304.242ZM365.893 302.064C366.172 302.064 366.465 302.035 366.773 301.976C367.081 301.917 367.367 301.851 367.631 301.778C367.91 301.69 368.13 301.609 368.291 301.536V299.006L366.047 299.204C365.563 299.248 365.211 299.395 364.991 299.644C364.786 299.879 364.683 300.216 364.683 300.656C364.683 301.096 364.778 301.441 364.969 301.69C365.174 301.939 365.482 302.064 365.893 302.064ZM374.351 304V288.446H377.277V304H374.351Z" fill="#4D6FFB"/>
<path d="M187.749 374V358.974H192.633L195.669 369.006L198.639 358.974H203.589V374H200.553V362.868H200.245L197.099 373.604H194.239L191.093 362.868H190.785V374H187.749ZM209.5 374.242C208.356 374.242 207.491 373.956 206.904 373.384C206.332 372.797 206.046 371.917 206.046 370.744C206.046 369.923 206.193 369.285 206.486 368.83C206.78 368.361 207.212 368.023 207.784 367.818C208.371 367.598 209.082 367.466 209.918 367.422L212.602 367.18V366.52C212.602 365.992 212.47 365.625 212.206 365.42C211.942 365.2 211.554 365.09 211.04 365.09C210.63 365.09 210.153 365.105 209.61 365.134C209.082 365.163 208.554 365.2 208.026 365.244C207.513 365.288 207.066 365.332 206.684 365.376L206.596 363.308C206.978 363.22 207.432 363.132 207.96 363.044C208.503 362.941 209.068 362.861 209.654 362.802C210.241 362.743 210.784 362.714 211.282 362.714C212.221 362.714 213.006 362.831 213.636 363.066C214.267 363.301 214.744 363.689 215.066 364.232C215.389 364.76 215.55 365.479 215.55 366.388V371.426C215.58 371.631 215.69 371.793 215.88 371.91C216.071 372.013 216.291 372.086 216.54 372.13L216.474 374.154C216.24 374.154 216.005 374.154 215.77 374.154C215.55 374.169 215.338 374.169 215.132 374.154C214.927 374.154 214.744 374.139 214.582 374.11C214.245 374.066 213.952 373.978 213.702 373.846C213.468 373.714 213.277 373.575 213.13 373.428C212.896 373.531 212.58 373.648 212.184 373.78C211.788 373.912 211.356 374.022 210.886 374.11C210.432 374.198 209.97 374.242 209.5 374.242ZM210.204 372.064C210.483 372.064 210.776 372.035 211.084 371.976C211.392 371.917 211.678 371.851 211.942 371.778C212.221 371.69 212.441 371.609 212.602 371.536V369.006L210.358 369.204C209.874 369.248 209.522 369.395 209.302 369.644C209.097 369.879 208.994 370.216 208.994 370.656C208.994 371.096 209.09 371.441 209.28 371.69C209.486 371.939 209.794 372.064 210.204 372.064ZM218.574 374V362.956H221.5V374H218.574ZM218.574 361.196V358.688H221.522V361.196H218.574ZM228.367 374.242C227.883 374.242 227.362 374.213 226.805 374.154C226.262 374.11 225.749 374.051 225.265 373.978C224.796 373.905 224.392 373.831 224.055 373.758L224.143 371.58C224.524 371.624 224.95 371.675 225.419 371.734C225.903 371.793 226.372 371.844 226.827 371.888C227.296 371.917 227.678 371.932 227.971 371.932C228.411 371.932 228.77 371.895 229.049 371.822C229.342 371.749 229.562 371.631 229.709 371.47C229.856 371.294 229.929 371.045 229.929 370.722C229.929 370.473 229.863 370.282 229.731 370.15C229.614 370.018 229.379 369.908 229.027 369.82C228.69 369.717 228.191 369.615 227.531 369.512C226.71 369.395 226.028 369.226 225.485 369.006C224.957 368.786 224.568 368.463 224.319 368.038C224.07 367.598 223.945 367.004 223.945 366.256C223.945 365.347 224.143 364.635 224.539 364.122C224.935 363.609 225.463 363.249 226.123 363.044C226.783 362.824 227.502 362.714 228.279 362.714C228.792 362.714 229.32 362.743 229.863 362.802C230.406 362.846 230.919 362.905 231.403 362.978C231.887 363.051 232.29 363.125 232.613 363.198L232.525 365.42C232.158 365.361 231.733 365.31 231.249 365.266C230.765 365.207 230.281 365.163 229.797 365.134C229.328 365.105 228.932 365.09 228.609 365.09C228.272 365.09 227.971 365.127 227.707 365.2C227.443 365.259 227.238 365.361 227.091 365.508C226.959 365.655 226.893 365.875 226.893 366.168C226.893 366.373 226.952 366.542 227.069 366.674C227.186 366.806 227.406 366.923 227.729 367.026C228.066 367.114 228.55 367.202 229.181 367.29C230.09 367.422 230.816 367.605 231.359 367.84C231.902 368.075 232.29 368.412 232.525 368.852C232.774 369.292 232.899 369.886 232.899 370.634C232.899 371.514 232.723 372.218 232.371 372.746C232.019 373.274 231.506 373.655 230.831 373.89C230.156 374.125 229.335 374.242 228.367 374.242ZM246.086 374.242C244.912 374.242 243.944 374.095 243.182 373.802C242.434 373.494 241.84 373.025 241.4 372.394C240.96 371.763 240.652 370.964 240.476 369.996C240.314 369.013 240.234 367.847 240.234 366.498C240.234 365.134 240.314 363.968 240.476 363C240.652 362.017 240.96 361.211 241.4 360.58C241.84 359.949 242.441 359.48 243.204 359.172C243.981 358.864 244.971 358.71 246.174 358.71C246.658 358.71 247.164 358.739 247.692 358.798C248.22 358.857 248.726 358.93 249.21 359.018C249.708 359.091 250.134 359.172 250.486 359.26L250.398 361.68C250.104 361.621 249.738 361.57 249.298 361.526C248.858 361.467 248.41 361.423 247.956 361.394C247.501 361.365 247.076 361.35 246.68 361.35C245.976 361.35 245.404 361.438 244.964 361.614C244.524 361.79 244.179 362.083 243.93 362.494C243.695 362.905 243.534 363.44 243.446 364.1C243.358 364.745 243.314 365.545 243.314 366.498C243.314 367.437 243.358 368.236 243.446 368.896C243.534 369.541 243.695 370.069 243.93 370.48C244.164 370.876 244.502 371.169 244.942 371.36C245.396 371.536 245.983 371.624 246.702 371.624C247.288 371.624 247.934 371.595 248.638 371.536C249.356 371.463 249.95 371.397 250.42 371.338L250.486 373.736C250.134 373.809 249.716 373.89 249.232 373.978C248.748 374.051 248.234 374.11 247.692 374.154C247.149 374.213 246.614 374.242 246.086 374.242ZM252.906 374V358.446H255.832V374H252.906ZM258.78 374V362.956H261.706V374H258.78ZM258.78 361.196V358.688H261.728V361.196H258.78ZM269.057 374.242C267.84 374.242 266.872 374.037 266.153 373.626C265.449 373.215 264.943 372.592 264.635 371.756C264.327 370.92 264.173 369.871 264.173 368.61C264.173 367.246 264.364 366.131 264.745 365.266C265.141 364.401 265.713 363.763 266.461 363.352C267.209 362.927 268.133 362.714 269.233 362.714C270.861 362.714 272.086 363.125 272.907 363.946C273.743 364.767 274.161 366.065 274.161 367.84L274.029 369.468H267.121C267.136 370.289 267.304 370.905 267.627 371.316C267.95 371.727 268.507 371.932 269.299 371.932C269.754 371.932 270.252 371.925 270.795 371.91C271.338 371.881 271.873 371.851 272.401 371.822C272.944 371.793 273.406 371.763 273.787 371.734L273.853 373.78C273.486 373.839 273.024 373.905 272.467 373.978C271.91 374.051 271.33 374.11 270.729 374.154C270.142 374.213 269.585 374.242 269.057 374.242ZM267.121 367.598H271.235C271.235 366.601 271.074 365.904 270.751 365.508C270.443 365.112 269.937 364.914 269.233 364.914C268.764 364.914 268.375 365.002 268.067 365.178C267.759 365.354 267.524 365.64 267.363 366.036C267.202 366.432 267.121 366.953 267.121 367.598ZM276.547 374V362.956H279.473V363.66C279.707 363.513 279.993 363.374 280.331 363.242C280.668 363.095 281.02 362.971 281.387 362.868C281.768 362.765 282.135 362.714 282.487 362.714C283.249 362.714 283.88 362.817 284.379 363.022C284.892 363.213 285.295 363.528 285.589 363.968C285.882 364.408 286.095 364.987 286.227 365.706C286.359 366.41 286.425 367.268 286.425 368.28V374H283.477V368.434C283.477 367.671 283.433 367.063 283.345 366.608C283.257 366.139 283.088 365.801 282.839 365.596C282.589 365.391 282.223 365.288 281.739 365.288C281.475 365.288 281.196 365.317 280.903 365.376C280.624 365.42 280.353 365.486 280.089 365.574C279.839 365.662 279.634 365.75 279.473 365.838V374H276.547ZM292.976 374.264C292.169 374.264 291.516 374.147 291.018 373.912C290.519 373.677 290.16 373.274 289.94 372.702C289.734 372.115 289.632 371.301 289.632 370.26V365.398H288.334V362.956H289.632V360.03H292.558V362.956H295.374V365.398H292.558V369.49C292.558 370.062 292.58 370.509 292.624 370.832C292.682 371.155 292.8 371.382 292.976 371.514C293.152 371.646 293.423 371.712 293.79 371.712C293.892 371.712 294.046 371.705 294.252 371.69C294.457 371.675 294.662 371.661 294.868 371.646C295.073 371.631 295.242 371.617 295.374 371.602L295.462 373.956C295.242 374 294.97 374.044 294.648 374.088C294.34 374.132 294.032 374.169 293.724 374.198C293.43 374.242 293.181 374.264 292.976 374.264ZM301.916 374.242C300.699 374.242 299.731 374.037 299.012 373.626C298.308 373.215 297.802 372.592 297.494 371.756C297.186 370.92 297.032 369.871 297.032 368.61C297.032 367.246 297.223 366.131 297.604 365.266C298 364.401 298.572 363.763 299.32 363.352C300.068 362.927 300.992 362.714 302.092 362.714C303.72 362.714 304.945 363.125 305.766 363.946C306.602 364.767 307.02 366.065 307.02 367.84L306.888 369.468H299.98C299.995 370.289 300.163 370.905 300.486 371.316C300.809 371.727 301.366 371.932 302.158 371.932C302.613 371.932 303.111 371.925 303.654 371.91C304.197 371.881 304.732 371.851 305.26 371.822C305.803 371.793 306.265 371.763 306.646 371.734L306.712 373.78C306.345 373.839 305.883 373.905 305.326 373.978C304.769 374.051 304.189 374.11 303.588 374.154C303.001 374.213 302.444 374.242 301.916 374.242ZM299.98 367.598H304.094C304.094 366.601 303.933 365.904 303.61 365.508C303.302 365.112 302.796 364.914 302.092 364.914C301.623 364.914 301.234 365.002 300.926 365.178C300.618 365.354 300.383 365.64 300.222 366.036C300.061 366.432 299.98 366.953 299.98 367.598ZM313.388 374.242C312.904 374.242 312.383 374.213 311.826 374.154C311.283 374.11 310.77 374.051 310.286 373.978C309.816 373.905 309.413 373.831 309.076 373.758L309.164 371.58C309.545 371.624 309.97 371.675 310.44 371.734C310.924 371.793 311.393 371.844 311.848 371.888C312.317 371.917 312.698 371.932 312.992 371.932C313.432 371.932 313.791 371.895 314.07 371.822C314.363 371.749 314.583 371.631 314.73 371.47C314.876 371.294 314.95 371.045 314.95 370.722C314.95 370.473 314.884 370.282 314.752 370.15C314.634 370.018 314.4 369.908 314.048 369.82C313.71 369.717 313.212 369.615 312.552 369.512C311.73 369.395 311.048 369.226 310.506 369.006C309.978 368.786 309.589 368.463 309.34 368.038C309.09 367.598 308.966 367.004 308.966 366.256C308.966 365.347 309.164 364.635 309.56 364.122C309.956 363.609 310.484 363.249 311.144 363.044C311.804 362.824 312.522 362.714 313.3 362.714C313.813 362.714 314.341 362.743 314.884 362.802C315.426 362.846 315.94 362.905 316.424 362.978C316.908 363.051 317.311 363.125 317.634 363.198L317.546 365.42C317.179 365.361 316.754 365.31 316.27 365.266C315.786 365.207 315.302 365.163 314.818 365.134C314.348 365.105 313.952 365.09 313.63 365.09C313.292 365.09 312.992 365.127 312.728 365.2C312.464 365.259 312.258 365.361 312.112 365.508C311.98 365.655 311.914 365.875 311.914 366.168C311.914 366.373 311.972 366.542 312.09 366.674C312.207 366.806 312.427 366.923 312.75 367.026C313.087 367.114 313.571 367.202 314.202 367.29C315.111 367.422 315.837 367.605 316.38 367.84C316.922 368.075 317.311 368.412 317.546 368.852C317.795 369.292 317.92 369.886 317.92 370.634C317.92 371.514 317.744 372.218 317.392 372.746C317.04 373.274 316.526 373.655 315.852 373.89C315.177 374.125 314.356 374.242 313.388 374.242Z" fill="#4D6FFB"/>
<path d="M108.526 593V577.974H113.41L116.446 588.006L119.416 577.974H124.366V593H121.33V581.868H121.022L117.876 592.604H115.016L111.87 581.868H111.562V593H108.526ZM130.278 593.242C129.134 593.242 128.268 592.956 127.682 592.384C127.11 591.797 126.824 590.917 126.824 589.744C126.824 588.923 126.97 588.285 127.264 587.83C127.557 587.361 127.99 587.023 128.562 586.818C129.148 586.598 129.86 586.466 130.696 586.422L133.38 586.18V585.52C133.38 584.992 133.248 584.625 132.984 584.42C132.72 584.2 132.331 584.09 131.818 584.09C131.407 584.09 130.93 584.105 130.388 584.134C129.86 584.163 129.332 584.2 128.804 584.244C128.29 584.288 127.843 584.332 127.462 584.376L127.374 582.308C127.755 582.22 128.21 582.132 128.738 582.044C129.28 581.941 129.845 581.861 130.432 581.802C131.018 581.743 131.561 581.714 132.06 581.714C132.998 581.714 133.783 581.831 134.414 582.066C135.044 582.301 135.521 582.689 135.844 583.232C136.166 583.76 136.328 584.479 136.328 585.388V590.426C136.357 590.631 136.467 590.793 136.658 590.91C136.848 591.013 137.068 591.086 137.318 591.13L137.252 593.154C137.017 593.154 136.782 593.154 136.548 593.154C136.328 593.169 136.115 593.169 135.91 593.154C135.704 593.154 135.521 593.139 135.36 593.11C135.022 593.066 134.729 592.978 134.48 592.846C134.245 592.714 134.054 592.575 133.908 592.428C133.673 592.531 133.358 592.648 132.962 592.78C132.566 592.912 132.133 593.022 131.664 593.11C131.209 593.198 130.747 593.242 130.278 593.242ZM130.982 591.064C131.26 591.064 131.554 591.035 131.862 590.976C132.17 590.917 132.456 590.851 132.72 590.778C132.998 590.69 133.218 590.609 133.38 590.536V588.006L131.136 588.204C130.652 588.248 130.3 588.395 130.08 588.644C129.874 588.879 129.772 589.216 129.772 589.656C129.772 590.096 129.867 590.441 130.058 590.69C130.263 590.939 130.571 591.064 130.982 591.064ZM139.351 593V581.956H142.277V593H139.351ZM139.351 580.196V577.688H142.299V580.196H139.351ZM149.144 593.242C148.66 593.242 148.14 593.213 147.582 593.154C147.04 593.11 146.526 593.051 146.042 592.978C145.573 592.905 145.17 592.831 144.832 592.758L144.92 590.58C145.302 590.624 145.727 590.675 146.196 590.734C146.68 590.793 147.15 590.844 147.604 590.888C148.074 590.917 148.455 590.932 148.748 590.932C149.188 590.932 149.548 590.895 149.826 590.822C150.12 590.749 150.34 590.631 150.486 590.47C150.633 590.294 150.706 590.045 150.706 589.722C150.706 589.473 150.64 589.282 150.508 589.15C150.391 589.018 150.156 588.908 149.804 588.82C149.467 588.717 148.968 588.615 148.308 588.512C147.487 588.395 146.805 588.226 146.262 588.006C145.734 587.786 145.346 587.463 145.096 587.038C144.847 586.598 144.722 586.004 144.722 585.256C144.722 584.347 144.92 583.635 145.316 583.122C145.712 582.609 146.24 582.249 146.9 582.044C147.56 581.824 148.279 581.714 149.056 581.714C149.57 581.714 150.098 581.743 150.64 581.802C151.183 581.846 151.696 581.905 152.18 581.978C152.664 582.051 153.068 582.125 153.39 582.198L153.302 584.42C152.936 584.361 152.51 584.31 152.026 584.266C151.542 584.207 151.058 584.163 150.574 584.134C150.105 584.105 149.709 584.09 149.386 584.09C149.049 584.09 148.748 584.127 148.484 584.2C148.22 584.259 148.015 584.361 147.868 584.508C147.736 584.655 147.67 584.875 147.67 585.168C147.67 585.373 147.729 585.542 147.846 585.674C147.964 585.806 148.184 585.923 148.506 586.026C148.844 586.114 149.328 586.202 149.958 586.29C150.868 586.422 151.594 586.605 152.136 586.84C152.679 587.075 153.068 587.412 153.302 587.852C153.552 588.292 153.676 588.886 153.676 589.634C153.676 590.514 153.5 591.218 153.148 591.746C152.796 592.274 152.283 592.655 151.608 592.89C150.934 593.125 150.112 593.242 149.144 593.242ZM161.451 593V577.974H164.487V590.426H170.427V593H161.451ZM175.741 593.242C174.787 593.242 174.047 593.044 173.519 592.648C173.005 592.237 172.639 591.621 172.419 590.8C172.213 589.979 172.111 588.945 172.111 587.698V581.956H175.037V587.566C175.037 588.343 175.073 588.959 175.147 589.414C175.235 589.869 175.403 590.191 175.653 590.382C175.902 590.573 176.261 590.668 176.731 590.668C177.185 590.668 177.611 590.609 178.007 590.492C178.403 590.375 178.718 590.257 178.953 590.14V581.956H181.879V593H178.975V592.318C178.476 592.597 177.977 592.824 177.479 593C176.995 593.161 176.415 593.242 175.741 593.242ZM189.245 593.242C187.983 593.242 186.993 593.051 186.275 592.67C185.571 592.274 185.072 591.643 184.779 590.778C184.5 589.913 184.361 588.776 184.361 587.368C184.361 585.975 184.522 584.867 184.845 584.046C185.167 583.21 185.688 582.616 186.407 582.264C187.14 581.897 188.093 581.714 189.267 581.714C189.575 581.714 189.934 581.736 190.345 581.78C190.755 581.824 191.166 581.883 191.577 581.956C192.002 582.015 192.361 582.073 192.655 582.132L192.545 584.486C192.266 584.457 191.951 584.435 191.599 584.42C191.247 584.391 190.902 584.369 190.565 584.354C190.242 584.325 189.978 584.31 189.773 584.31C189.142 584.31 188.643 584.413 188.277 584.618C187.925 584.809 187.675 585.131 187.529 585.586C187.397 586.026 187.331 586.62 187.331 587.368C187.331 588.175 187.397 588.82 187.529 589.304C187.661 589.788 187.895 590.133 188.233 590.338C188.585 590.543 189.098 590.646 189.773 590.646C189.978 590.646 190.249 590.639 190.587 590.624C190.924 590.595 191.269 590.565 191.621 590.536C191.987 590.507 192.31 590.485 192.589 590.47L192.677 592.824C192.383 592.883 192.031 592.941 191.621 593C191.21 593.073 190.792 593.132 190.367 593.176C189.956 593.22 189.582 593.242 189.245 593.242ZM195.015 593V581.956H197.941V583.254C198.19 583.063 198.498 582.865 198.865 582.66C199.231 582.44 199.627 582.242 200.053 582.066C200.493 581.875 200.911 581.751 201.307 581.692V584.53C200.925 584.589 200.522 584.691 200.097 584.838C199.671 584.97 199.268 585.117 198.887 585.278C198.52 585.439 198.205 585.586 197.941 585.718V593H195.015ZM207.898 593.242C206.651 593.242 205.647 593.037 204.884 592.626C204.136 592.215 203.593 591.585 203.256 590.734C202.919 589.869 202.75 588.754 202.75 587.39C202.75 586.07 202.926 584.999 203.278 584.178C203.63 583.342 204.187 582.726 204.95 582.33C205.713 581.919 206.695 581.714 207.898 581.714C209.115 581.714 210.098 581.919 210.846 582.33C211.609 582.726 212.166 583.342 212.518 584.178C212.885 584.999 213.068 586.07 213.068 587.39C213.068 588.754 212.899 589.869 212.562 590.734C212.225 591.585 211.675 592.215 210.912 592.626C210.164 593.037 209.159 593.242 207.898 593.242ZM207.898 590.822C208.514 590.822 208.976 590.712 209.284 590.492C209.592 590.257 209.797 589.891 209.9 589.392C210.017 588.879 210.076 588.211 210.076 587.39C210.076 586.583 210.01 585.945 209.878 585.476C209.746 584.992 209.526 584.647 209.218 584.442C208.91 584.237 208.47 584.134 207.898 584.134C207.341 584.134 206.901 584.237 206.578 584.442C206.27 584.647 206.05 584.992 205.918 585.476C205.786 585.945 205.72 586.583 205.72 587.39C205.72 588.211 205.771 588.879 205.874 589.392C205.991 589.891 206.204 590.257 206.512 590.492C206.82 590.712 207.282 590.822 207.898 590.822Z" fill="#4D6FFB"/>
</g>
<defs>
<radialGradient id="paint0_radial_52_5" cx="0" cy="0" r="1" gradientUnits="userSpaceOnUse" gradientTransform="translate(631.734 709.852) rotate(-90) scale(62.4377 58.072)">
<stop stop-color="#FFDD55"/>
<stop offset="0.1" stop-color="#FFDD55"/>
<stop offset="0.5" stop-color="#FF543E"/>
<stop offset="1" stop-color="#C837AB"/>
</radialGradient>
<radialGradient id="paint1_radial_52_5" cx="0" cy="0" r="1" gradientUnits="userSpaceOnUse" gradientTransform="translate(604.447 646.538) rotate(78.68) scale(27.91 115.046)">
<stop stop-color="#3771C8"/>
<stop offset="0.128" stop-color="#3771C8"/>
<stop offset="1" stop-color="#6600FF" stop-opacity="0"/>
</radialGradient>
<linearGradient id="paint2_linear_52_5" x1="4001.98" y1="7091.54" x2="4001.98" y2="356.208" gradientUnits="userSpaceOnUse">
<stop stop-color="#1FAF38"/>
<stop offset="1" stop-color="#60D669"/>
</linearGradient>
<clipPath id="clip0_52_5">
<rect width="1245" height="845" fill="white"/>
</clipPath>
</defs>
</svg>
