<svg width="216" height="59" viewBox="0 0 216 59" fill="none" xmlns="http://www.w3.org/2000/svg">
<path d="M103.8 48.24C102.92 48.24 101.981 48.1373 100.984 47.932C100.016 47.756 99.1947 47.5653 98.52 47.36V45.6H102.92C104.915 45.6 106.367 45.072 107.276 44.016C108.185 42.9893 108.64 41.0973 108.64 38.34C107.995 38.6627 107.32 38.9267 106.616 39.132C105.912 39.3373 105.12 39.44 104.24 39.44C102.715 39.44 101.409 39.1027 100.324 38.428C99.2387 37.724 98.4027 36.5507 97.816 34.908C97.2587 33.236 96.98 30.9333 96.98 28C96.98 25.0667 97.2733 22.7787 97.86 21.136C98.476 19.464 99.4147 18.2907 100.676 17.616C101.967 16.912 103.595 16.56 105.56 16.56C106.88 16.56 108.112 16.6773 109.256 16.912C110.4 17.1173 111.515 17.44 112.6 17.88V37.24C112.6 40.0267 112.292 42.212 111.676 43.796C111.06 45.4093 110.107 46.5533 108.816 47.228C107.525 47.9027 105.853 48.24 103.8 48.24ZM105.56 36.8C106.117 36.8 106.689 36.712 107.276 36.536C107.863 36.3307 108.317 36.1253 108.64 35.92V19.2H105.56C104.621 19.2 103.8 19.4493 103.096 19.948C102.392 20.4173 101.849 21.2973 101.468 22.588C101.116 23.8493 100.94 25.6533 100.94 28C100.94 30.3467 101.116 32.1653 101.468 33.456C101.849 34.7173 102.392 35.5973 103.096 36.096C103.8 36.5653 104.621 36.8 105.56 36.8ZM125.133 39.44C123.373 39.44 121.892 39.088 120.689 38.384C119.486 37.6507 118.562 36.448 117.917 34.776C117.301 33.104 116.993 30.8453 116.993 28C116.993 25.1253 117.301 22.8667 117.917 21.224C118.562 19.552 119.486 18.364 120.689 17.66C121.892 16.9267 123.373 16.56 125.133 16.56C126.893 16.56 128.374 16.9267 129.577 17.66C130.809 18.364 131.733 19.552 132.349 21.224C132.965 22.8667 133.273 25.1253 133.273 28C133.273 30.8453 132.965 33.104 132.349 34.776C131.733 36.448 130.809 37.6507 129.577 38.384C128.374 39.088 126.893 39.44 125.133 39.44ZM125.133 37.02C125.866 37.02 126.541 36.756 127.157 36.228C127.802 35.7 128.316 34.7907 128.697 33.5C129.108 32.18 129.313 30.3467 129.313 28C129.313 25.6533 129.108 23.8347 128.697 22.544C128.316 21.224 127.802 20.3 127.157 19.772C126.541 19.244 125.866 18.98 125.133 18.98C124.4 18.98 123.71 19.244 123.065 19.772C122.449 20.3 121.936 21.224 121.525 22.544C121.144 23.8347 120.953 25.6533 120.953 28C120.953 30.3467 121.144 32.18 121.525 33.5C121.936 34.7907 122.449 35.7 123.065 36.228C123.71 36.756 124.4 37.02 125.133 37.02ZM143.611 48.24C142.731 48.24 141.793 48.1373 140.795 47.932C139.827 47.756 139.006 47.5653 138.331 47.36V45.6H142.731C144.726 45.6 146.178 45.072 147.087 44.016C147.997 42.9893 148.451 41.0973 148.451 38.34C147.806 38.6627 147.131 38.9267 146.427 39.132C145.723 39.3373 144.931 39.44 144.051 39.44C142.526 39.44 141.221 39.1027 140.135 38.428C139.05 37.724 138.214 36.5507 137.627 34.908C137.07 33.236 136.791 30.9333 136.791 28C136.791 25.0667 137.085 22.7787 137.671 21.136C138.287 19.464 139.226 18.2907 140.487 17.616C141.778 16.912 143.406 16.56 145.371 16.56C146.691 16.56 147.923 16.6773 149.067 16.912C150.211 17.1173 151.326 17.44 152.411 17.88V37.24C152.411 40.0267 152.103 42.212 151.487 43.796C150.871 45.4093 149.918 46.5533 148.627 47.228C147.337 47.9027 145.665 48.24 143.611 48.24ZM145.371 36.8C145.929 36.8 146.501 36.712 147.087 36.536C147.674 36.3307 148.129 36.1253 148.451 35.92V19.2H145.371C144.433 19.2 143.611 19.4493 142.907 19.948C142.203 20.4173 141.661 21.2973 141.279 22.588C140.927 23.8493 140.751 25.6533 140.751 28C140.751 30.3467 140.927 32.1653 141.279 33.456C141.661 34.7173 142.203 35.5973 142.907 36.096C143.611 36.5653 144.433 36.8 145.371 36.8ZM164.945 39.44C163.185 39.44 161.703 39.088 160.501 38.384C159.298 37.6507 158.374 36.448 157.729 34.776C157.113 33.104 156.805 30.8453 156.805 28C156.805 25.1253 157.113 22.8667 157.729 21.224C158.374 19.552 159.298 18.364 160.501 17.66C161.703 16.9267 163.185 16.56 164.945 16.56C166.705 16.56 168.186 16.9267 169.389 17.66C170.621 18.364 171.545 19.552 172.161 21.224C172.777 22.8667 173.085 25.1253 173.085 28C173.085 30.8453 172.777 33.104 172.161 34.776C171.545 36.448 170.621 37.6507 169.389 38.384C168.186 39.088 166.705 39.44 164.945 39.44ZM164.945 37.02C165.678 37.02 166.353 36.756 166.969 36.228C167.614 35.7 168.127 34.7907 168.509 33.5C168.919 32.18 169.125 30.3467 169.125 28C169.125 25.6533 168.919 23.8347 168.509 22.544C168.127 21.224 167.614 20.3 166.969 19.772C166.353 19.244 165.678 18.98 164.945 18.98C164.211 18.98 163.522 19.244 162.877 19.772C162.261 20.3 161.747 21.224 161.337 22.544C160.955 23.8347 160.765 25.6533 160.765 28C160.765 30.3467 160.955 32.18 161.337 33.5C161.747 34.7907 162.261 35.7 162.877 36.228C163.522 36.756 164.211 37.02 164.945 37.02ZM184.303 39.44C182.924 39.44 181.721 39.264 180.695 38.912C179.668 38.5307 178.876 37.8707 178.319 36.932C177.761 35.964 177.483 34.6 177.483 32.84V17H181.443V32.84C181.443 34.3653 181.839 35.4067 182.631 35.964C183.423 36.5213 184.42 36.8 185.623 36.8C186.18 36.8 186.752 36.712 187.339 36.536C187.925 36.3307 188.38 36.1253 188.703 35.92V17H192.663V39H189.363L189.143 37.68H188.923C188.365 38.2373 187.676 38.6773 186.855 39C186.033 39.2933 185.183 39.44 184.303 39.44ZM197.926 47.8V17H201.226L201.446 18.32H201.666C202.223 17.7627 202.912 17.3373 203.734 17.044C204.555 16.7213 205.406 16.56 206.286 16.56C207.84 16.56 209.146 16.912 210.202 17.616C211.287 18.2907 212.108 19.464 212.666 21.136C213.252 22.7787 213.546 25.0667 213.546 28C213.546 30.9333 213.252 33.236 212.666 34.908C212.108 36.5507 211.287 37.724 210.202 38.428C209.146 39.1027 207.84 39.44 206.286 39.44C205.406 39.44 204.614 39.3373 203.91 39.132C203.235 38.9267 202.56 38.6627 201.886 38.34V47.8H197.926ZM204.966 36.8C205.934 36.8 206.755 36.5653 207.43 36.096C208.134 35.5973 208.662 34.7173 209.014 33.456C209.395 32.1653 209.586 30.3467 209.586 28C209.586 25.6533 209.395 23.8493 209.014 22.588C208.662 21.2973 208.134 20.4173 207.43 19.948C206.755 19.4493 205.934 19.2 204.966 19.2C204.408 19.2 203.836 19.288 203.25 19.464C202.663 19.64 202.208 19.8453 201.886 20.08V35.92C202.208 36.1253 202.663 36.3307 203.25 36.536C203.836 36.712 204.408 36.8 204.966 36.8Z" fill="black"/>
<circle cx="76" cy="33" r="6" fill="#FCC835" stroke="black" stroke-width="2"/>
<path d="M58 21.2146C52.7256 11.6759 45.1215 9 35.6073 9C29.8422 9.00775 24.2654 11.0535 19.8628 14.7756C15.4603 18.4977 12.5154 23.6565 11.5488 29.34L4.5597 21.2757C4.28664 20.9679 3.92675 20.75 3.52743 20.6508C3.12812 20.5516 2.70811 20.5756 2.32274 20.7198C1.93737 20.864 1.60472 21.1215 1.3686 21.4585C1.13248 21.7955 1.00397 22.1961 1 22.6075V44.2508C0.999408 44.6663 1.12591 45.072 1.36253 45.4135C1.59916 45.755 1.93458 46.016 2.32378 46.1614C2.71299 46.3068 3.13735 46.3297 3.53993 46.2269C3.94251 46.1242 4.30403 45.9008 4.57599 45.5867L11.5325 37.5224C12.5003 43.2072 15.4473 48.3667 19.8524 52.0882C24.2574 55.8097 29.8366 57.8536 35.6032 57.8583C40.1085 58.1435 44.6026 57.1474 48.5654 54.9851C52.5282 52.8228 55.7978 49.5827 57.9959 45.6397L41.7125 33.4292L58 21.2146Z" fill="#FCC835" stroke="#191919" stroke-width="2" stroke-linecap="round" stroke-linejoin="round"/>
<mask id="path-4-inside-1_30_63" fill="white">
<path d="M44 21C43.4696 21 42.9609 20.7893 42.5858 20.4142C42.2107 20.0391 42 19.5304 42 19C42 18.4696 42.2107 17.9609 42.5858 17.5858C42.9609 17.2107 43.4696 17 44 17M44 21C44.5304 21 45.0391 20.7893 45.4142 20.4142C45.7893 20.0391 46 19.5304 46 19C46 18.4696 45.7893 17.9609 45.4142 17.5858C45.0391 17.2107 44.5304 17 44 17"/>
</mask>
<path d="M44 21V19.5C43.8674 19.5 43.7402 19.4473 43.6464 19.3536L42.5858 20.4142L41.5251 21.4749C42.1815 22.1313 43.0717 22.5 44 22.5V21ZM42.5858 20.4142L43.6464 19.3536C43.5527 19.2598 43.5 19.1326 43.5 19H42H40.5C40.5 19.9283 40.8687 20.8185 41.5251 21.4749L42.5858 20.4142ZM42 19H43.5C43.5 18.8674 43.5527 18.7402 43.6464 18.6464L42.5858 17.5858L41.5251 16.5251C40.8687 17.1815 40.5 18.0717 40.5 19H42ZM42.5858 17.5858L43.6464 18.6464C43.7402 18.5527 43.8674 18.5 44 18.5V17V15.5C43.0717 15.5 42.1815 15.8687 41.5251 16.5251L42.5858 17.5858ZM44 21V22.5C44.9283 22.5 45.8185 22.1313 46.4749 21.4749L45.4142 20.4142L44.3535 19.3536C44.2598 19.4473 44.1326 19.5 44 19.5V21ZM45.4142 20.4142L46.4749 21.4749C47.1312 20.8185 47.5 19.9283 47.5 19H46H44.5C44.5 19.1326 44.4473 19.2598 44.3535 19.3536L45.4142 20.4142ZM46 19H47.5C47.5 18.0717 47.1312 17.1815 46.4749 16.5251L45.4142 17.5858L44.3535 18.6464C44.4473 18.7402 44.5 18.8674 44.5 19H46ZM45.4142 17.5858L46.4749 16.5251C45.8185 15.8687 44.9283 15.5 44 15.5V17V18.5C44.1326 18.5 44.2598 18.5527 44.3535 18.6464L45.4142 17.5858Z" fill="#191919" mask="url(#path-4-inside-1_30_63)"/>
</svg>
